P3
100 50
255
79 71 71 79 71 71 79 71 71 78 71 71 78 70 70 78 70 70 78 70 70 78 70 70 78 70 70 77 70 70 77 69 69 77 69 69 77 69 69 76 69 69 76 69 69 76 68 68 76 68 68 76 68 68 75 68 68 75 68 68 75 67 67 75 67 67 74 67 67 74 67 67 194 242 0 142 177 0 110 137 0 89 112 0 75 93 0 64 79 0 55 69 0 48 60 0 42 52 0 
37 46 0 33 41 0 29 36 0 25 32 0 22 28 0 20 25 0 20 25 0 20 25 0 20 25 0 20 25 0 20 25 0 20 25 0 20 25 0 20 25 0 20 25 0 20 25 0 20 25 0 20 25 0 20 25 0 20 25 0 20 25 0 20 25 0 20 25 0 20 25 0 20 25 0 20 25 0 20 25 0 20 25 0 20 25 0 20 25 0 20 25 0 20 25 0 20 25 0 
20 25 0 20 25 0 20 25 0 20 25 0 20 25 0 20 25 0 20 25 0 20 25 0 20 25 0 238 214 214 238 214 214 238 214 214 238 214 214 238 214 214 238 214 214 238 214 214 238 214 214 238 214 214 237 214 214 237 214 214 237 214 214 237 213 213 237 213 213 237 213 213 237 213 213 237 213 213 237 213 213 237 213 213 237 213 213 237 213 213 236 213 213 236 213 213 236 213 213 
0 0 0 
79 71 71 79 71 71 79 71 71 78 70 70 78 70 70 78 70 70 78 70 70 78 70 70 77 70 70 77 69 69 77 69 69 77 69 69 77 69 69 76 69 69 76 69 69 76 68 68 76 68 68 76 68 68 75 68 68 75 68 68 75 67 67 75 67 67 74 67 67 213 255 0 142 177 0 105 131 0 83 104 0 68 85 0 57 72 0 49 61 0 42 52 0 36 45 0 31 39 0 
27 34 0 24 30 0 20 26 0 20 25 0 20 25 0 20 25 0 20 25 0 20 25 0 20 25 0 20 25 0 20 25 0 20 25 0 20 25 0 20 25 0 20 25 0 20 25 0 20 25 0 20 25 0 20 25 0 20 25 0 20 25 0 20 25 0 20 25 0 20 25 0 20 25 0 20 25 0 20 25 0 20 25 0 20 25 0 20 25 0 20 25 0 20 25 0 20 25 0 
20 25 0 20 25 0 20 25 0 20 25 0 20 25 0 20 25 0 20 25 0 20 25 0 20 25 0 20 25 0 237 214 214 237 214 214 237 214 214 237 214 214 237 214 214 237 213 213 237 213 213 237 213 213 237 213 213 237 213 213 237 213 213 237 213 213 237 213 213 237 213 213 237 213 213 237 213 213 237 213 213 236 213 213 236 213 213 236 213 213 236 212 212 236 212 212 236 212 212 
0 0 0 
79 71 71 79 71 71 78 71 71 78 70 70 78 70 70 78 70 70 78 70 70 77 70 70 77 70 70 77 69 69 77 69 69 77 69 69 76 69 69 76 69 69 76 68 68 76 68 68 76 68 68 75 68 68 75 68 68 75 67 67 75 67 67 75 67 67 74 67 67 158 197 0 107 134 0 81 101 0 65 81 0 53 66 0 44 55 0 37 47 0 32 40 0 27 34 0 23 29 0 
20 25 0 20 25 0 20 25 0 20 25 0 20 25 0 20 25 0 20 25 0 20 25 0 20 25 0 20 25 0 20 25 0 20 25 0 20 25 0 20 25 0 20 25 0 20 25 0 20 25 0 20 25 0 20 25 0 20 25 0 20 25 0 20 25 0 20 25 0 20 25 0 20 25 0 20 25 0 20 25 0 20 25 0 20 25 0 20 25 0 20 25 0 20 25 0 20 25 0 
20 25 0 20 25 0 20 25 0 20 25 0 20 25 0 20 25 0 20 25 0 20 25 0 20 25 0 20 25 0 237 213 213 237 213 213 237 213 213 237 213 213 237 213 213 237 213 213 237 213 213 237 213 213 237 213 213 237 213 213 237 213 213 237 213 213 236 213 213 236 213 213 236 213 213 236 213 213 236 213 213 236 212 212 236 212 212 236 212 212 236 212 212 236 212 212 236 212 212 
0 0 0 
79 71 71 79 71 71 78 70 70 78 70 70 78 70 70 78 70 70 78 70 70 77 70 70 77 69 69 77 69 69 77 69 69 77 69 69 76 69 69 76 68 68 76 68 68 76 68 68 76 68 68 75 68 68 75 68 68 75 67 67 75 67 67 74 67 67 74 67 67 121 152 0 84 105 0 64 80 0 51 64 0 41 52 0 34 43 0 28 36 0 24 30 0 20 25 0 20 25 0 
20 25 0 20 25 0 20 25 0 20 25 0 20 25 0 20 25 0 20 25 0 20 25 0 20 25 0 20 25 0 20 25 0 20 25 0 20 25 0 20 25 0 20 25 0 20 25 0 20 25 0 20 25 0 20 25 0 20 25 0 20 25 0 20 25 0 20 25 0 20 25 0 20 25 0 20 25 0 20 25 0 20 25 0 20 25 0 20 25 0 20 25 0 20 25 0 20 25 0 
20 25 0 20 25 0 20 25 0 20 25 0 20 25 0 20 25 0 20 25 0 20 25 0 20 25 0 20 25 0 20 25 0 237 213 213 237 213 213 237 213 213 237 213 213 237 213 213 237 213 213 236 213 213 236 213 213 236 213 213 236 213 213 236 213 213 236 212 212 236 212 212 236 212 212 236 212 212 236 212 212 236 212 212 236 212 212 236 212 212 236 212 212 235 212 212 235 212 212 
0 0 0 
79 71 71 78 71 71 78 70 70 78 70 70 78 70 70 78 70 70 77 70 70 77 69 69 77 69 69 77 69 69 77 69 69 76 69 69 76 69 69 76 68 68 76 68 68 76 68 68 75 68 68 75 68 68 75 67 67 75 67 67 75 67 67 74 67 67 74 67 67 98 122 0 68 85 0 51 64 0 40 51 0 32 41 0 26 33 0 21 27 0 20 25 0 20 25 0 20 25 0 
20 25 0 20 25 0 20 25 0 20 25 0 20 25 0 20 25 0 20 25 0 20 25 0 20 25 0 20 25 0 20 25 0 20 25 0 20 25 0 20 25 0 20 25 0 20 25 0 20 25 0 20 25 0 20 25 0 20 25 0 20 25 0 20 25 0 20 25 0 20 25 0 20 25 0 20 25 0 20 25 0 20 25 0 20 25 0 20 25 0 20 25 0 20 25 0 20 25 0 
20 25 0 20 25 0 20 25 0 20 25 0 20 25 0 20 25 0 20 25 0 20 25 0 20 25 0 20 25 0 20 25 0 236 213 213 236 213 213 236 213 213 236 213 213 236 213 213 236 213 213 236 212 212 236 212 212 236 212 212 236 212 212 236 212 212 236 212 212 236 212 212 236 212 212 236 212 212 236 212 212 235 212 212 235 212 212 235 212 212 235 212 212 235 212 212 235 211 211 
0 0 0 
78 71 71 78 70 70 78 70 70 78 70 70 78 70 70 78 70 70 77 70 70 77 69 69 77 69 69 77 69 69 77 69 69 76 69 69 76 68 68 76 68 68 76 68 68 76 68 68 75 68 68 75 68 68 75 67 67 75 67 67 74 67 67 74 67 67 74 67 67 83 104 0 56 70 0 42 52 0 32 40 0 25 31 0 20 25 0 20 25 0 20 25 0 20 25 0 20 25 0 
20 25 0 20 25 0 20 25 0 20 25 0 20 25 0 20 25 0 20 25 0 20 25 0 20 25 0 20 25 0 20 25 0 20 25 0 20 25 0 20 25 0 20 25 0 20 25 0 20 25 0 20 25 0 20 25 0 20 25 0 20 25 0 20 25 0 20 25 0 20 25 0 20 25 0 20 25 0 20 25 0 20 25 0 20 25 0 20 25 0 20 25 0 20 25 0 20 25 0 
20 25 0 20 25 0 20 25 0 20 25 0 20 25 0 20 25 0 20 25 0 20 25 0 20 25 0 20 25 0 20 25 0 236 212 212 236 212 212 236 212 212 236 212 212 236 212 212 236 212 212 236 212 212 236 212 212 236 212 212 236 212 212 236 212 212 235 212 212 235 212 212 235 212 212 235 212 212 235 212 212 235 212 212 235 211 211 235 211 211 235 211 211 235 211 211 235 211 211 
0 0 0 
78 70 70 78 70 70 78 70 70 78 70 70 78 70 70 77 70 70 77 69 69 77 69 69 77 69 69 77 69 69 76 69 69 76 69 69 76 68 68 76 68 68 76 68 68 75 68 68 75 68 68 75 67 67 75 67 67 75 67 67 74 67 67 74 67 67 74 66 66 75 93 0 48 60 0 34 43 0 26 32 0 20 25 0 20 25 0 20 25 0 20 25 0 20 25 0 20 25 0 
20 25 0 20 25 0 20 25 0 20 25 0 20 25 0 20 25 0 20 25 0 20 25 0 20 25 0 20 25 0 20 25 0 20 25 0 20 25 0 20 25 0 20 25 0 20 25 0 20 25 0 20 25 0 20 25 0 20 25 0 20 25 0 20 25 0 20 25 0 20 25 0 20 25 0 20 25 0 20 25 0 20 25 0 20 25 0 20 25 0 20 25 0 20 25 0 20 25 0 
20 25 0 20 25 0 20 25 0 20 25 0 20 25 0 20 25 0 20 25 0 20 25 0 20 25 0 20 25 0 20 25 0 236 212 212 236 212 212 236 212 212 236 212 212 236 212 212 235 212 212 235 212 212 235 212 212 235 212 212 235 212 212 235 212 212 235 212 212 235 212 212 235 211 211 235 211 211 235 211 211 235 211 211 235 211 211 235 211 211 235 211 211 234 211 211 234 211 211 
0 0 0 
78 70 70 78 70 70 78 70 70 78 70 70 77 70 70 77 70 70 77 69 69 77 69 69 77 69 69 77 69 69 76 69 69 76 68 68 76 68 68 76 68 68 75 68 68 75 68 68 75 68 68 75 67 67 75 67 67 74 67 67 74 67 67 74 67 67 74 66 66 74 93 0 43 53 0 29 36 0 20 25 0 20 25 0 20 25 0 20 25 0 20 25 0 20 25 0 20 25 0 
20 25 0 20 25 0 20 25 0 20 25 0 20 25 0 20 25 0 20 25 0 20 25 0 20 25 0 20 25 0 20 25 0 20 25 0 20 25 0 20 25 0 20 25 0 20 25 0 20 25 0 20 25 0 20 25 0 20 25 0 20 25 0 20 25 0 20 25 0 20 25 0 20 25 0 20 25 0 20 25 0 20 25 0 20 25 0 20 25 0 20 25 0 20 25 0 20 25 0 
20 25 0 20 25 0 20 25 0 20 25 0 20 25 0 20 25 0 20 25 0 20 25 0 20 25 0 20 25 0 20 25 0 235 212 212 235 212 212 235 212 212 235 212 212 235 212 212 235 212 212 235 211 211 235 211 211 235 211 211 235 211 211 235 211 211 235 211 211 235 211 211 235 211 211 235 211 211 235 211 211 234 211 211 234 211 211 234 211 211 234 211 211 234 211 211 234 211 211 
0 0 0 
78 70 70 78 70 70 78 70 70 78 70 70 77 70 70 77 69 69 77 69 69 77 69 69 77 69 69 76 69 69 76 69 69 76 68 68 76 68 68 76 68 68 75 68 68 75 68 68 75 67 67 75 67 67 75 67 67 74 67 67 74 67 67 74 66 66 74 66 66 73 66 66 41 51 0 25 31 0 20 25 0 20 25 0 20 25 0 20 25 0 20 25 0 20 25 0 20 25 0 
20 25 0 20 25 0 20 25 0 20 25 0 20 25 0 20 25 0 20 25 0 20 25 0 20 25 0 20 25 0 20 25 0 20 25 0 20 25 0 20 25 0 20 25 0 20 25 0 20 25 0 20 25 0 20 25 0 20 25 0 20 25 0 20 25 0 20 25 0 20 25 0 20 25 0 20 25 0 20 25 0 20 25 0 20 25 0 20 25 0 20 25 0 20 25 0 20 25 0 
20 25 0 20 25 0 20 25 0 20 25 0 20 25 0 20 25 0 20 25 0 20 25 0 20 25 0 20 25 0 20 25 0 235 211 211 235 211 211 235 211 211 235 211 211 235 211 211 235 211 211 235 211 211 235 211 211 235 211 211 235 211 211 234 211 211 234 211 211 234 211 211 234 211 211 234 211 211 234 211 211 234 211 211 234 211 211 234 211 211 234 210 210 234 210 210 234 210 210 
0 0 0 
78 70 70 78 70 70 78 70 70 77 70 70 77 69 69 77 69 69 77 69 69 77 69 69 76 69 69 76 69 69 76 68 68 76 68 68 76 68 68 75 68 68 75 68 68 75 67 67 75 67 67 75 67 67 74 67 67 74 67 67 74 67 67 74 66 66 74 66 66 73 66 66 48 60 0 23 29 0 20 25 0 20 25 0 20 25 0 20 25 0 20 25 0 20 25 0 20 25 0 
20 25 0 20 25 0 20 25 0 20 25 0 20 25 0 20 25 0 20 25 0 20 25 0 20 25 0 20 25 0 20 25 0 20 25 0 20 25 0 20 25 0 20 25 0 20 25 0 20 25 0 20 25 0 20 25 0 20 25 0 20 25 0 20 25 0 20 25 0 20 25 0 20 25 0 20 25 0 20 25 0 20 25 0 20 25 0 20 25 0 20 25 0 20 25 0 20 25 0 
20 25 0 20 25 0 20 25 0 20 25 0 20 25 0 20 25 0 20 25 0 20 25 0 20 25 0 20 25 0 20 25 0 235 211 211 234 211 211 234 211 211 234 211 211 234 211 211 234 211 211 234 211 211 234 211 211 234 211 211 234 211 211 234 211 211 234 211 211 234 211 211 234 211 211 234 210 210 234 210 210 234 210 210 234 210 210 234 210 210 234 210 210 234 210 210 233 210 210 
0 0 0 
78 70 70 78 70 70 77 70 70 77 70 70 77 69 69 77 69 69 77 69 69 77 69 69 76 69 69 76 68 68 76 68 68 76 68 68 76 68 68 75 68 68 75 68 68 75 67 67 75 67 67 74 67 67 74 67 67 74 67 67 74 66 66 74 66 66 73 66 66 73 66 66 73 66 66 26 33 0 20 25 0 20 25 0 20 25 0 20 25 0 20 25 0 20 25 0 20 25 0 
20 25 0 20 25 0 20 25 0 20 25 0 20 25 0 20 25 0 20 25 0 20 25 0 20 25 0 20 25 0 20 25 0 20 25 0 20 25 0 20 25 0 20 25 0 20 25 0 20 25 0 20 25 0 20 25 0 20 25 0 20 25 0 20 25 0 20 25 0 20 25 0 20 25 0 20 25 0 20 25 0 20 25 0 20 25 0 20 25 0 20 25 0 20 25 0 20 25 0 
20 25 0 20 25 0 20 25 0 20 25 0 20 25 0 20 25 0 20 25 0 20 25 0 20 25 0 20 25 0 234 211 211 234 211 211 234 211 211 234 211 211 234 211 211 234 211 211 234 211 211 234 211 211 234 210 210 234 210 210 234 210 210 234 210 210 234 210 210 234 210 210 234 210 210 234 210 210 234 210 210 233 210 210 233 210 210 233 210 210 233 210 210 233 210 210 233 210 210 
0 0 0 
78 70 70 78 70 70 77 70 70 77 69 69 77 69 69 77 69 69 77 69 69 76 69 69 76 69 69 76 68 68 76 68 68 76 68 68 75 68 68 75 68 68 75 67 67 75 67 67 75 67 67 74 67 67 74 67 67 74 67 67 74 66 66 74 66 66 73 66 66 73 66 66 73 65 65 73 65 65 20 25 0 20 25 0 20 25 0 20 25 0 20 25 0 20 25 0 20 25 0 
20 25 0 20 25 0 20 25 0 20 25 0 20 25 0 20 25 0 20 25 0 20 25 0 20 25 0 20 25 0 20 25 0 20 25 0 20 25 0 20 25 0 20 25 0 20 25 0 20 25 0 20 25 0 20 25 0 20 25 0 20 25 0 20 25 0 20 25 0 20 25 0 20 25 0 20 25 0 20 25 0 20 25 0 20 25 0 20 25 0 20 25 0 20 25 0 20 25 0 
20 25 0 20 25 0 20 25 0 20 25 0 20 25 0 20 25 0 20 25 0 20 25 0 20 25 0 234 210 210 234 210 210 234 210 210 234 210 210 234 210 210 234 210 210 234 210 210 234 210 210 234 210 210 234 210 210 234 210 210 233 210 210 233 210 210 233 210 210 233 210 210 233 210 210 233 210 210 233 210 210 233 210 210 233 210 210 233 210 210 233 210 210 233 210 210 233 209 209 
0 0 0 
78 70 70 77 70 70 77 69 69 77 69 69 77 69 69 77 69 69 76 69 69 76 69 69 76 68 68 76 68 68 76 68 68 76 68 68 75 68 68 75 68 68 75 67 67 75 67 67 74 67 67 74 67 67 74 67 67 74 66 66 74 66 66 73 66 66 73 66 66 73 66 66 73 65 65 72 65 65 72 65 65 20 25 0 20 25 0 20 25 0 20 25 0 20 25 0 20 25 0 
20 25 0 20 25 0 20 25 0 20 25 0 20 25 0 20 25 0 20 25 0 20 25 0 20 25 0 20 25 0 20 25 0 20 25 0 20 25 0 20 25 0 20 25 0 20 25 0 20 25 0 20 25 0 20 25 0 20 25 0 20 25 0 20 25 0 20 25 0 20 25 0 20 25 0 20 25 0 20 25 0 20 25 0 20 25 0 20 25 0 20 25 0 20 25 0 20 25 0 
20 25 0 20 25 0 20 25 0 20 25 0 20 25 0 20 25 0 20 25 0 20 25 0 233 210 210 233 210 210 233 210 210 233 210 210 233 210 210 233 210 210 233 210 210 233 210 210 233 210 210 233 210 210 233 210 210 233 210 210 233 210 210 233 210 210 233 210 210 233 210 210 233 210 210 233 210 210 233 210 210 233 209 209 233 209 209 233 209 209 233 209 209 233 209 209 232 209 209 
0 0 0 
78 70 70 77 70 70 77 69 69 77 69 69 77 69 69 77 69 69 76 69 69 76 69 69 76 68 68 76 68 68 76 68 68 75 68 68 75 68 68 75 67 67 75 67 67 75 67 67 74 67 67 74 67 67 74 66 66 74 66 66 73 66 66 73 66 66 73 66 66 73 65 65 73 65 65 72 65 65 72 65 65 72 65 65 72 64 64 20 25 0 20 25 0 20 25 0 20 25 0 
20 25 0 20 25 0 20 25 0 20 25 0 20 25 0 20 25 0 20 25 0 20 25 0 20 25 0 20 25 0 20 25 0 20 25 0 20 25 0 20 25 0 20 25 0 20 25 0 20 25 0 20 25 0 20 25 0 20 25 0 20 25 0 20 25 0 20 25 0 20 25 0 20 25 0 20 25 0 20 25 0 20 25 0 20 25 0 20 25 0 20 25 0 20 25 0 20 25 0 
20 25 0 20 25 0 20 25 0 20 25 0 20 25 0 20 25 0 20 25 0 233 210 210 233 210 210 233 210 210 233 210 210 233 210 210 233 210 210 233 210 210 233 210 210 233 210 210 233 210 210 233 210 210 233 209 209 233 209 209 233 209 209 233 209 209 233 209 209 233 209 209 233 209 209 233 209 209 232 209 209 232 209 209 232 209 209 232 209 209 232 209 209 232 209 209 232 209 209 
0 0 0 
77 70 70 77 69 69 77 69 69 77 69 69 77 69 69 76 69 69 76 69 69 76 68 68 76 68 68 76 68 68 75 68 68 75 68 68 75 68 68 75 67 67 75 67 67 74 67 67 74 67 67 74 67 67 74 66 66 74 66 66 73 66 66 73 66 66 73 66 66 73 65 65 72 65 65 72 65 65 72 65 65 72 65 65 72 64 64 19 191 95 20 25 0 20 25 0 20 25 0 
20 25 0 20 25 0 20 25 0 20 25 0 20 25 0 20 25 0 20 25 0 20 25 0 20 25 0 20 25 0 20 25 0 20 25 0 20 25 0 20 25 0 20 25 0 20 25 0 20 25 0 20 25 0 20 25 0 20 25 0 20 25 0 20 25 0 20 25 0 20 25 0 20 25 0 20 25 0 20 25 0 20 25 0 20 25 0 20 25 0 20 25 0 20 25 0 20 25 0 
20 25 0 20 25 0 20 25 0 20 25 0 20 25 0 20 25 0 232 209 209 233 209 209 233 209 209 233 209 209 233 209 209 233 209 209 233 209 209 233 209 209 233 209 209 233 209 209 233 209 209 232 209 209 232 209 209 232 209 209 232 209 209 232 209 209 232 209 209 232 209 209 232 209 209 232 209 209 232 209 209 232 209 209 232 209 209 232 209 209 232 209 209 232 209 209 232 209 209 
0 0 0 
77 69 69 77 69 69 77 69 69 77 69 69 77 69 69 76 69 69 76 68 68 76 68 68 76 68 68 76 68 68 75 68 68 75 68 68 75 67 67 75 67 67 75 67 67 74 67 67 74 67 67 74 66 66 74 66 66 73 66 66 73 66 66 73 66 66 73 65 65 73 65 65 72 65 65 72 65 65 72 65 65 72 64 64 71 64 64 20 200 100 20 203 101 20 203 101 20 25 0 
20 25 0 20 25 0 20 25 0 20 25 0 20 25 0 20 25 0 20 25 0 20 25 0 20 25 0 20 25 0 20 25 0 20 25 0 20 25 0 20 25 0 20 25 0 20 25 0 20 25 0 20 25 0 20 25 0 20 25 0 20 25 0 20 25 0 20 25 0 20 25 0 20 25 0 20 25 0 20 25 0 20 25 0 20 25 0 20 25 0 20 25 0 20 25 0 20 25 0 
20 25 0 20 25 0 20 25 0 20 25 0 232 209 209 232 209 209 232 209 209 232 209 209 232 209 209 232 209 209 232 209 209 232 209 209 232 209 209 232 209 209 232 209 209 232 209 209 232 209 209 232 209 209 232 209 209 232 209 209 232 209 209 232 209 209 232 209 209 232 209 209 232 209 209 232 209 209 232 209 209 232 209 209 232 208 208 232 208 208 232 208 208 232 208 208 231 208 208 
0 0 0 
77 69 69 77 69 69 77 69 69 77 69 69 76 69 69 76 69 69 76 68 68 76 68 68 76 68 68 75 68 68 75 68 68 75 67 67 75 67 67 75 67 67 74 67 67 74 67 67 74 67 67 74 66 66 74 66 66 73 66 66 73 66 66 73 66 66 73 65 65 72 65 65 72 65 65 72 65 65 72 65 65 72 64 64 19 195 97 20 202 101 20 203 101 20 203 101 20 201 100 
19 198 99 19 195 97 20 25 0 20 25 0 20 25 0 20 25 0 20 25 0 20 25 0 20 25 0 20 25 0 20 25 0 20 25 0 20 25 0 20 25 0 20 25 0 20 25 0 20 25 0 20 25 0 20 25 0 20 25 0 20 25 0 20 25 0 20 25 0 20 25 0 20 25 0 20 25 0 20 25 0 20 25 0 20 25 0 20 25 0 20 25 0 20 25 0 20 25 0 
20 25 0 231 208 208 231 208 208 232 208 208 232 208 208 232 208 208 232 208 208 232 208 208 232 209 209 232 209 209 232 209 209 232 209 209 232 209 209 232 209 209 232 209 209 232 209 209 232 209 209 232 209 209 232 208 208 232 208 208 232 208 208 232 208 208 232 208 208 232 208 208 232 208 208 231 208 208 231 208 208 231 208 208 231 208 208 231 208 208 231 208 208 231 208 208 231 208 208 
0 0 0 
77 69 69 77 69 69 77 69 69 76 69 69 76 69 69 76 68 68 76 68 68 76 68 68 76 68 68 75 68 68 75 68 68 75 67 67 75 67 67 75 67 67 74 67 67 74 67 67 74 66 66 74 66 66 73 66 66 73 66 66 73 66 66 73 65 65 73 65 65 72 65 65 72 65 65 72 65 65 72 64 64 18 180 90 19 198 99 20 202 101 20 202 101 20 201 100 19 199 99 
19 196 98 19 193 96 18 189 94 18 185 92 18 180 90 20 25 0 20 25 0 20 25 0 20 25 0 20 25 0 20 25 0 20 25 0 20 25 0 20 25 0 20 25 0 20 25 0 20 25 0 20 25 0 20 25 0 20 25 0 20 25 0 20 25 0 20 25 0 20 25 0 20 25 0 20 25 0 20 25 0 20 25 0 20 25 0 20 25 0 20 25 0 231 208 208 231 208 208 
231 208 208 231 208 208 231 208 208 231 208 208 231 208 208 231 208 208 231 208 208 231 208 208 231 208 208 231 208 208 231 208 208 231 208 208 231 208 208 231 208 208 231 208 208 231 208 208 231 208 208 231 208 208 231 208 208 231 208 208 231 208 208 231 208 208 231 208 208 231 208 208 231 208 208 231 208 208 231 208 208 231 208 208 231 208 208 231 208 208 231 208 208 231 208 208 231 208 208 
0 0 0 
77 69 69 77 69 69 77 69 69 76 69 69 76 68 68 76 68 68 76 68 68 76 68 68 75 68 68 75 68 68 75 67 67 75 67 67 75 67 67 74 67 67 74 67 67 74 67 67 74 66 66 74 66 66 73 66 66 73 66 66 73 66 66 73 65 65 72 65 65 72 65 65 72 65 65 72 65 65 72 64 64 19 191 95 19 198 99 20 200 100 20 200 100 19 199 99 19 197 98 
19 194 97 19 190 95 25 193 99 34 198 107 19 179 90 17 172 86 16 167 83 16 161 80 15 155 77 14 149 74 20 25 0 20 25 0 20 25 0 20 25 0 20 25 0 20 25 0 20 25 0 20 25 0 20 25 0 20 25 0 20 25 0 20 25 0 20 25 0 20 25 0 20 25 0 20 25 0 20 25 0 230 207 207 230 207 207 230 207 207 230 207 207 230 207 207 230 207 207 
230 207 207 231 207 207 231 208 208 231 208 208 231 208 208 231 208 208 231 208 208 231 208 208 231 208 208 231 208 208 231 208 208 231 208 208 231 208 208 231 208 208 231 208 208 231 208 208 231 208 208 231 208 208 231 208 208 231 208 208 231 208 208 231 208 208 231 208 208 231 208 208 231 208 208 231 208 208 231 208 208 231 208 208 231 208 208 231 207 207 231 207 207 231 207 207 230 207 207 
0 0 0 
77 69 69 77 69 69 76 69 69 76 69 69 76 68 68 76 68 68 76 68 68 75 68 68 75 68 68 75 68 68 75 67 67 75 67 67 74 67 67 74 67 67 74 67 67 74 66 66 74 66 66 73 66 66 73 66 66 73 66 66 73 65 65 73 65 65 72 65 65 72 65 65 72 65 65 72 64 64 71 64 64 19 192 96 19 197 98 19 198 99 19 198 99 19 196 98 19 194 97 
19 191 95 20 189 95 65 230 139 73 235 145 20 177 90 16 169 84 16 164 82 15 158 79 15 152 76 14 146 73 13 139 69 13 132 66 12 125 62 11 117 58 10 109 54 10 100 50 9 91 45 8 81 40 7 71 35 5 59 29 4 47 23 3 32 16 2 25 12 2 25 12 229 206 206 229 206 206 229 206 206 229 206 206 229 206 206 230 207 207 230 207 207 230 207 207 230 207 207 
230 207 207 230 207 207 230 207 207 230 207 207 230 207 207 230 207 207 230 207 207 230 207 207 230 207 207 231 207 207 231 207 207 231 207 207 231 207 207 231 207 207 231 207 207 231 207 207 231 207 207 231 207 207 231 207 207 231 207 207 231 207 207 231 207 207 230 207 207 230 207 207 230 207 207 230 207 207 230 207 207 230 207 207 230 207 207 230 207 207 230 207 207 230 207 207 230 207 207 
0 0 0 
77 69 69 76 69 69 76 69 69 76 68 68 76 68 68 76 68 68 76 68 68 75 68 68 75 68 68 75 67 67 75 67 67 75 67 67 74 67 67 74 67 67 74 67 67 74 66 66 74 66 66 73 66 66 73 66 66 73 66 66 73 65 65 72 65 65 72 65 65 72 65 65 72 65 65 72 64 64 17 175 87 19 190 95 19 194 97 19 195 97 19 194 97 19 193 96 19 190 95 
18 187 93 19 185 93 36 198 108 29 187 99 17 171 85 16 165 82 16 160 80 15 154 77 14 148 74 14 142 71 13 136 68 12 129 64 12 121 60 11 114 57 10 106 53 9 97 48 8 88 44 7 78 39 6 68 34 5 57 28 4 44 22 3 30 15 2 25 12 2 25 12 228 205 205 229 206 206 229 206 206 229 206 206 229 206 206 229 206 206 229 206 206 229 206 206 229 206 206 
230 207 207 230 207 207 230 207 207 230 207 207 230 207 207 230 207 207 230 207 207 230 207 207 230 207 207 230 207 207 230 207 207 230 207 207 230 207 207 230 207 207 230 207 207 230 207 207 230 207 207 230 207 207 230 207 207 230 207 207 230 207 207 230 207 207 230 207 207 230 207 207 230 207 207 230 207 207 230 207 207 230 207 207 230 207 207 230 207 207 230 207 207 230 207 207 230 207 207 
0 0 0 
77 69 69 76 69 69 76 68 68 76 68 68 76 68 68 76 68 68 75 68 68 75 68 68 75 67 67 75 67 67 75 67 67 74 67 67 74 67 67 74 67 67 74 66 66 74 66 66 73 66 66 73 66 66 73 66 66 73 65 65 73 65 65 72 65 65 72 65 65 72 65 65 72 64 64 71 64 64 17 177 88 18 188 94 19 191 95 19 192 96 19 191 95 18 189 94 18 186 93 
18 183 91 18 180 90 18 176 88 17 171 86 16 167 83 16 162 81 15 156 78 15 151 75 14 145 72 13 138 69 13 132 66 12 125 62 11 118 59 11 110 55 10 102 51 9 94 47 8 85 42 7 75 37 6 65 32 5 54 27 4 41 20 2 28 14 2 25 12 2 25 12 2 25 12 228 205 205 228 205 205 228 205 205 229 206 206 229 206 206 229 206 206 229 206 206 229 206 206 
229 206 206 229 206 206 229 206 206 229 206 206 229 206 206 230 207 207 230 207 207 230 207 207 230 207 207 230 207 207 230 207 207 230 207 207 230 207 207 230 207 207 230 207 207 230 207 207 230 207 207 230 207 207 230 207 207 230 207 207 230 207 207 230 207 207 230 207 207 230 207 207 230 207 207 230 207 207 230 207 207 230 207 207 230 207 207 230 207 207 230 207 207 229 206 206 229 206 206 
0 0 0 
76 69 69 76 69 69 76 68 68 76 68 68 76 68 68 75 68 68 75 68 68 75 68 68 75 67 67 75 67 67 74 67 67 74 67 67 74 67 67 74 66 66 74 66 66 73 66 66 73 66 66 73 66 66 73 66 66 73 65 65 72 65 65 72 65 65 72 65 65 72 65 65 72 64 64 71 64 64 17 175 87 18 184 92 18 187 93 18 187 93 18 187 93 18 185 92 18 182 91 
17 179 89 17 175 87 17 171 85 16 167 83 16 162 81 15 157 78 15 152 76 14 146 73 14 140 70 13 134 67 12 128 64 12 121 60 11 114 57 10 106 53 9 98 49 9 90 45 8 81 40 7 71 35 6 61 30 5 50 25 3 38 19 2 25 12 2 25 12 2 25 12 2 25 12 228 205 205 228 205 205 228 205 205 228 205 205 228 205 205 228 205 205 228 206 206 229 206 206 
229 206 206 229 206 206 229 206 206 229 206 206 229 206 206 229 206 206 229 206 206 229 206 206 229 206 206 229 206 206 229 206 206 229 206 206 229 206 206 229 206 206 229 206 206 229 206 206 229 206 206 229 206 206 229 206 206 229 206 206 229 206 206 229 206 206 229 206 206 229 206 206 229 206 206 229 206 206 229 206 206 229 206 206 229 206 206 229 206 206 229 206 206 229 206 206 229 206 206 
0 0 0 
5 53 255 5 56 255 6 63 255 76 68 68 76 68 68 75 68 68 75 68 68 75 67 67 75 67 67 75 67 67 74 67 67 74 67 67 74 67 67 74 66 66 74 66 66 73 66 66 73 66 66 73 66 66 73 65 65 73 65 65 72 65 65 72 65 65 72 65 65 72 64 64 71 64 64 71 64 64 17 172 86 18 180 90 18 182 91 18 183 91 18 182 91 18 180 90 17 178 89 
17 174 87 17 171 85 16 167 83 16 163 81 15 158 79 15 153 76 14 148 74 14 142 71 13 136 68 13 130 65 12 123 61 11 116 58 10 109 54 10 102 51 9 94 47 8 85 42 7 76 38 6 67 33 5 57 28 4 46 23 3 34 17 2 25 12 2 25 12 2 25 12 2 25 12 227 204 204 227 204 204 227 205 205 228 205 205 228 205 205 228 205 205 228 205 205 228 205 205 
228 205 205 228 205 205 228 206 206 228 206 206 229 206 206 229 206 206 229 206 206 229 206 206 229 206 206 229 206 206 229 206 206 229 206 206 229 206 206 229 206 206 229 206 206 229 206 206 229 206 206 229 206 206 229 206 206 229 206 206 229 206 206 229 206 206 229 206 206 229 206 206 229 206 206 229 206 206 229 206 206 229 206 206 229 206 206 229 206 206 229 206 206 229 206 206 229 206 206 
0 0 0 
3 37 255 3 38 255 4 40 255 4 43 255 4 48 255 75 68 68 75 67 67 75 67 67 75 67 67 74 67 67 74 67 67 74 67 67 74 66 66 74 66 66 73 66 66 73 66 66 73 66 66 73 66 66 73 65 65 72 65 65 72 65 65 72 65 65 72 65 65 72 64 64 71 64 64 71 64 64 16 166 83 17 175 87 17 177 88 17 178 89 17 177 88 17 175 87 17 173 86 
16 169 84 16 166 83 16 162 81 15 158 79 15 153 76 14 148 74 14 143 71 13 137 68 13 131 65 12 125 62 11 119 59 11 112 56 10 105 52 9 97 48 8 89 44 8 81 40 7 72 36 6 62 31 5 52 26 4 41 20 2 29 14 2 25 12 2 25 12 2 25 12 2 25 12 227 204 204 227 204 204 227 204 204 227 204 204 227 204 204 227 205 205 228 205 205 228 205 205 
228 205 205 228 205 205 228 205 205 228 205 205 228 205 205 228 205 205 228 205 205 228 205 205 228 205 205 228 206 206 228 206 206 228 206 206 229 206 206 229 206 206 229 206 206 229 206 206 229 206 206 229 206 206 229 206 206 229 206 206 229 206 206 229 206 206 229 206 206 229 206 206 229 206 206 229 206 206 229 206 206 229 206 206 229 206 206 228 206 206 228 206 206 228 206 206 228 205 205 
0 0 0 
2 25 205 2 26 208 2 26 214 2 27 223 2 29 236 3 32 255 3 36 255 4 47 255 75 67 67 74 67 67 74 67 67 74 66 66 74 66 66 74 66 66 73 66 66 73 66 66 73 66 66 73 65 65 72 65 65 72 65 65 72 65 65 72 65 65 72 64 64 71 64 64 71 64 64 71 64 64 16 160 80 16 169 84 17 171 85 17 172 86 17 171 85 17 170 85 16 167 83 
16 164 82 16 161 80 15 157 78 15 153 76 14 148 74 14 143 71 13 138 69 13 132 66 12 126 63 12 120 60 11 114 57 10 107 53 10 100 50 9 92 46 8 84 42 7 76 38 6 67 33 5 57 28 4 47 23 3 36 18 2 25 12 2 25 12 2 25 12 2 25 12 2 25 12 226 203 203 226 204 204 226 204 204 227 204 204 227 204 204 227 204 204 227 204 204 227 204 204 
227 205 205 227 205 205 227 205 205 228 205 205 228 205 205 228 205 205 228 205 205 228 205 205 228 205 205 228 205 205 228 205 205 228 205 205 228 205 205 228 205 205 228 205 205 228 205 205 228 205 205 228 205 205 228 205 205 228 205 205 228 205 205 228 205 205 228 205 205 228 205 205 228 205 205 228 205 205 228 205 205 228 205 205 228 205 205 228 205 205 228 205 205 228 205 205 228 205 205 
0 0 0 
2 25 204 2 25 204 2 25 204 2 25 204 2 25 204 2 25 204 2 25 204 2 25 204 2 25 207 3 36 255 74 67 67 74 66 66 74 66 66 73 66 66 73 66 66 73 66 66 73 65 65 73 65 65 72 65 65 72 65 65 72 65 65 72 65 65 72 64 64 71 64 64 71 64 64 71 64 64 15 151 75 16 162 81 16 165 82 16 166 83 16 165 82 16 164 82 16 161 80 
15 159 79 15 155 77 15 151 75 14 147 73 14 142 71 13 138 69 13 132 66 12 127 63 12 121 60 11 115 57 10 108 54 10 101 50 9 94 47 8 87 43 7 79 39 7 70 35 6 61 30 5 52 26 4 41 20 3 30 15 2 25 12 2 25 12 2 25 12 2 25 12 2 25 12 226 203 203 226 203 203 226 203 203 226 203 203 226 204 204 226 204 204 227 204 204 227 204 204 
227 204 204 227 204 204 227 204 204 227 204 204 227 204 204 227 205 205 227 205 205 227 205 205 228 205 205 77 154 15 78 157 15 77 154 15 73 147 14 68 136 13 60 120 12 46 93 9 228 205 205 228 205 205 228 205 205 228 205 205 228 205 205 228 205 205 228 205 205 228 205 205 228 205 205 228 205 205 228 205 205 228 205 205 228 205 205 228 205 205 228 205 205 228 205 205 228 205 205 
0 0 0 
2 25 204 2 25 204 2 25 204 2 25 204 2 25 204 2 25 204 2 25 204 2 25 204 2 25 204 2 25 204 2 25 204 74 66 66 73 66 66 73 66 66 73 66 66 73 66 66 73 65 65 72 65 65 72 65 65 72 65 65 72 65 65 72 64 64 71 64 64 71 64 64 71 64 64 71 64 64 14 140 70 15 154 77 15 158 79 15 159 79 15 159 79 15 157 78 15 155 77 
15 152 76 14 149 74 14 145 72 14 141 70 13 137 68 13 132 66 12 127 63 12 121 60 11 115 57 10 109 54 10 102 51 9 96 48 8 88 44 8 81 40 7 73 36 6 64 32 5 55 27 4 46 23 3 35 17 2 25 12 2 25 12 2 25 12 2 25 12 2 25 12 2 25 12 225 202 202 225 203 203 225 203 203 226 203 203 226 203 203 226 203 203 226 203 203 226 204 204 
226 204 204 226 204 204 227 204 204 227 204 204 227 204 204 227 204 204 227 204 204 85 171 17 89 179 17 90 181 18 89 179 17 87 174 17 83 166 16 78 157 15 72 145 14 64 129 12 55 110 11 39 78 7 227 205 205 227 205 205 227 205 205 227 205 205 227 205 205 227 205 205 227 205 205 227 205 205 227 205 205 227 205 205 227 205 205 227 205 205 227 205 205 227 205 205 227 205 205 
0 0 0 
2 25 204 2 25 204 2 25 204 2 25 204 2 25 204 2 25 204 2 25 204 2 25 204 2 25 204 2 25 204 2 25 204 2 25 204 2 25 204 73 66 66 73 66 66 73 65 65 73 65 65 72 65 65 72 65 65 72 65 65 72 64 64 71 64 64 71 64 64 71 64 64 71 64 64 71 63 63 70 63 63 14 145 72 15 150 75 15 152 76 15 152 76 15 151 75 14 149 74 
14 146 73 14 143 71 13 139 69 13 135 67 13 130 65 12 126 63 12 120 60 11 115 57 10 109 54 10 103 51 9 96 48 9 90 45 8 82 41 7 75 37 6 67 33 5 58 29 4 49 24 3 39 19 2 29 14 2 25 12 2 25 12 2 25 12 2 25 12 2 25 12 224 202 202 225 202 202 225 202 202 225 202 202 225 203 203 225 203 203 225 203 203 226 203 203 226 203 203 
226 203 203 226 203 203 226 203 203 226 204 204 226 204 204 75 151 15 91 182 18 12 25 2 12 25 2 12 25 2 12 25 2 12 25 2 12 25 2 12 25 2 12 25 2 12 25 2 12 25 2 53 107 10 39 78 7 227 204 204 227 204 204 227 204 204 227 204 204 227 204 204 227 204 204 227 204 204 227 204 204 227 204 204 227 204 204 227 204 204 227 204 204 227 204 204 227 204 204 
0 0 0 
2 25 204 2 25 204 2 25 204 2 25 204 2 25 204 2 25 204 2 25 204 2 25 204 2 25 204 2 25 204 2 25 204 2 25 204 2 25 204 2 25 204 2 25 204 73 65 65 72 65 65 72 65 65 72 65 65 72 65 65 72 64 64 71 64 64 71 64 64 71 64 64 71 64 64 70 63 63 70 63 63 13 133 66 14 141 70 14 144 72 14 144 72 14 143 71 14 141 70 
13 139 69 13 136 68 13 132 66 12 128 64 12 124 62 11 119 59 11 114 57 10 108 54 10 103 51 9 96 48 9 90 45 8 83 41 7 76 38 6 68 34 6 60 30 5 51 25 4 42 21 3 32 16 2 25 12 2 25 12 2 25 12 2 25 12 2 25 12 2 25 12 224 201 201 224 202 202 224 202 202 224 202 202 225 202 202 225 202 202 225 202 202 225 203 203 225 203 203 
225 203 203 226 203 203 226 203 203 226 203 203 226 203 203 12 25 2 12 25 2 12 25 2 12 25 2 12 25 2 12 25 2 12 25 2 12 25 2 12 25 2 12 25 2 12 25 2 12 25 2 12 25 2 12 25 2 33 67 6 227 204 204 227 204 204 227 204 204 227 204 204 227 204 204 227 204 204 227 204 204 227 204 204 227 204 204 227 204 204 227 204 204 227 204 204 227 204 204 
0 0 0 
2 25 204 2 25 204 2 25 204 2 25 204 2 25 204 2 25 204 2 25 204 2 25 204 2 25 204 2 25 204 2 25 204 2 25 204 2 25 204 2 25 204 2 25 204 2 25 204 72 65 65 72 65 65 72 65 65 72 64 64 71 64 64 71 64 64 71 64 64 71 64 64 71 63 63 70 63 63 70 63 63 11 117 58 13 131 65 13 135 67 13 136 68 13 135 67 13 134 67 
13 131 65 12 129 64 12 125 62 12 121 60 11 117 58 11 112 56 10 107 53 10 102 51 9 96 48 9 90 45 8 83 41 7 76 38 6 69 34 6 61 30 5 53 26 4 44 22 3 35 17 2 25 12 2 25 12 2 25 12 2 25 12 2 25 12 2 25 12 2 25 12 138 124 124 137 124 124 224 201 201 224 202 202 224 202 202 224 202 202 224 202 202 225 202 202 225 202 202 
225 202 202 25 22 22 25 22 22 25 22 22 12 25 2 12 25 2 12 25 2 12 25 2 12 25 2 12 25 2 12 25 2 12 25 2 12 25 2 12 25 2 12 25 2 12 25 2 12 25 2 12 25 2 12 25 2 12 25 2 12 25 2 226 204 204 226 204 204 226 204 204 226 204 204 226 204 204 226 204 204 226 204 204 226 204 204 226 204 204 226 204 204 226 204 204 226 204 204 
0 0 0 
2 25 204 2 25 204 2 25 204 2 25 204 2 25 204 2 25 204 2 25 204 2 25 204 2 25 204 2 25 204 2 25 204 2 25 204 2 25 204 2 25 204 2 25 204 2 25 204 2 25 204 72 65 65 72 65 65 72 64 64 71 64 64 71 64 64 71 64 64 71 64 64 70 63 63 70 63 63 70 63 63 70 63 63 11 118 59 12 124 62 12 126 63 12 126 63 12 125 62 
12 123 61 12 121 60 11 117 58 11 114 57 10 109 54 10 105 52 10 100 50 9 94 47 8 88 44 8 82 41 7 76 38 6 69 34 6 61 30 5 53 26 4 45 22 3 36 18 2 27 13 2 25 12 2 25 12 2 25 12 2 25 12 2 25 12 2 25 12 140 126 126 140 126 126 140 126 126 140 126 126 139 125 125 25 22 22 25 22 22 25 22 22 25 22 22 25 22 22 
25 22 22 25 22 22 25 22 22 12 25 2 12 25 2 12 25 2 12 25 2 12 25 2 12 25 2 12 25 2 12 25 2 12 25 2 12 25 2 12 25 2 12 25 2 12 25 2 12 25 2 12 25 2 12 25 2 12 25 2 12 25 2 12 25 2 226 203 203 226 203 203 226 203 203 226 203 203 226 203 203 226 203 203 226 203 203 226 203 203 226 203 203 226 203 203 226 203 203 
0 0 0 
2 25 204 2 25 204 2 25 204 2 25 204 2 25 204 2 25 204 2 25 204 2 25 204 2 25 204 2 25 204 2 25 204 2 25 204 2 25 204 2 25 204 2 25 204 2 25 204 2 25 204 2 25 204 72 64 64 71 64 64 71 64 64 71 64 64 71 64 64 71 63 63 70 63 63 70 63 63 70 63 63 70 63 63 9 97 48 11 111 55 11 116 58 11 117 58 11 116 58 
11 114 57 11 112 56 10 109 54 10 105 52 10 101 50 9 97 48 9 92 46 8 86 43 8 80 40 7 74 37 6 68 34 6 61 30 5 53 26 4 45 22 3 37 18 2 28 14 2 25 12 2 25 12 2 25 12 2 25 12 2 25 12 2 25 12 2 25 12 25 22 22 25 22 22 25 22 22 25 22 22 25 22 22 25 22 22 25 22 22 25 22 22 25 22 22 25 22 22 
25 22 22 25 22 22 25 22 22 12 25 2 12 25 2 12 25 2 12 25 2 12 25 2 12 25 2 12 25 2 12 25 2 12 25 2 12 25 2 12 25 2 12 25 2 12 25 2 12 25 2 12 25 2 12 25 2 12 25 2 12 25 2 12 25 2 226 203 203 226 203 203 226 203 203 226 203 203 226 203 203 226 203 203 226 203 203 226 203 203 226 203 203 226 203 203 226 203 203 
0 0 0 
2 25 204 2 25 204 2 25 204 2 25 204 2 25 204 2 25 204 2 25 204 2 25 204 2 25 204 2 25 204 2 25 204 2 25 204 2 25 204 2 25 204 2 25 204 2 25 204 2 25 204 2 25 204 2 25 204 148 119 14 132 105 13 110 88 11 77 62 7 154 139 139 154 139 139 154 138 138 154 138 138 153 138 138 153 138 138 9 94 47 10 103 51 10 105 52 10 106 53 
10 105 52 10 103 51 10 100 50 9 96 48 9 92 46 8 88 44 8 83 41 7 78 39 7 72 36 6 66 33 5 59 29 5 52 26 4 44 22 3 36 18 2 28 14 2 25 12 2 25 12 2 25 12 2 25 12 2 25 12 2 25 12 2 25 12 25 22 22 25 22 22 25 22 22 25 22 22 25 22 22 25 22 22 25 22 22 25 22 22 25 22 22 25 22 22 25 22 22 
25 22 22 25 22 22 25 22 22 12 25 2 12 25 2 12 25 2 12 25 2 12 25 2 12 25 2 12 25 2 12 25 2 12 25 2 12 25 2 12 25 2 12 25 2 12 25 2 12 25 2 12 25 2 12 25 2 12 25 2 12 25 2 12 25 2 225 203 203 225 203 203 225 203 203 225 203 203 225 203 203 225 203 203 225 203 203 225 203 203 225 203 203 225 203 203 225 203 203 
0 0 0 
2 25 204 2 25 204 2 25 204 2 25 204 2 25 204 2 25 204 2 25 204 2 25 204 2 25 204 2 25 204 2 25 204 2 25 204 2 25 204 2 25 204 2 25 204 2 25 204 2 25 204 2 25 204 2 25 204 2 25 204 142 114 14 122 97 12 98 78 9 69 55 6 25 20 2 156 140 140 155 140 140 155 140 140 155 139 139 155 139 139 8 86 43 9 92 46 9 94 47 
9 94 47 9 92 46 9 90 45 8 87 43 8 83 41 7 78 39 7 74 37 6 68 34 6 63 31 5 56 28 5 50 25 4 43 21 3 35 17 2 27 13 2 25 12 2 25 12 2 25 12 2 25 12 2 25 12 2 25 12 2 25 12 25 22 22 25 22 22 25 22 22 25 22 22 25 22 22 25 22 22 25 22 22 25 22 22 25 22 22 25 22 22 25 22 22 25 22 22 
25 22 22 25 22 22 25 22 22 12 25 2 12 25 2 12 25 2 12 25 2 12 25 2 12 25 2 12 25 2 12 25 2 12 25 2 12 25 2 12 25 2 12 25 2 12 25 2 12 25 2 12 25 2 12 25 2 12 25 2 12 25 2 12 25 2 225 202 202 225 202 202 225 202 202 225 202 202 225 202 202 225 202 202 225 202 202 225 202 202 225 202 202 225 202 202 225 202 202 
0 0 0 
2 25 204 2 25 204 2 25 204 2 25 204 2 25 204 2 25 204 2 25 204 2 25 204 2 25 204 2 25 204 2 25 204 2 25 204 2 25 204 2 25 204 2 25 204 2 25 204 2 25 204 2 25 204 2 25 204 2 25 204 2 25 204 123 98 12 100 80 10 74 59 7 43 34 4 25 20 2 157 141 141 157 141 141 156 141 141 156 140 140 156 140 140 7 74 37 7 79 39 
8 81 40 8 80 40 7 78 39 7 76 38 7 72 36 6 68 34 6 63 31 5 58 29 5 52 26 4 46 23 3 39 19 3 32 16 2 25 12 2 25 12 2 25 12 2 25 12 2 25 12 2 25 12 2 25 12 2 25 12 25 22 22 25 22 22 25 22 22 25 22 22 25 22 22 25 22 22 25 22 22 25 22 22 25 22 22 25 22 22 25 22 22 25 22 22 25 22 22 
25 22 22 25 22 22 25 22 22 12 25 2 12 25 2 12 25 2 12 25 2 12 25 2 12 25 2 12 25 2 12 25 2 12 25 2 12 25 2 12 25 2 12 25 2 12 25 2 12 25 2 12 25 2 12 25 2 12 25 2 12 25 2 12 25 2 12 25 2 139 125 125 138 124 124 138 124 124 138 124 124 224 202 202 224 202 202 224 202 202 224 202 202 224 202 202 224 202 202 
0 0 0 
2 25 204 2 25 204 2 25 204 2 25 204 2 25 204 2 25 204 2 25 204 2 25 204 2 25 204 2 25 204 2 25 204 2 25 204 2 25 204 2 25 204 2 25 204 2 25 204 2 25 204 2 25 204 2 25 204 2 25 204 2 25 204 2 25 204 97 77 9 72 58 7 44 35 4 25 20 2 158 142 142 158 142 142 158 142 142 158 142 142 157 141 141 157 141 141 5 59 29 
6 64 32 6 66 33 6 65 32 6 63 31 6 60 30 5 56 28 5 52 26 4 47 23 4 41 20 3 35 17 2 28 14 2 25 12 2 25 12 2 25 12 2 25 12 2 25 12 2 25 12 2 25 12 2 25 12 25 22 22 25 22 22 25 22 22 25 22 22 25 22 22 25 22 22 25 22 22 25 22 22 25 22 22 25 22 22 25 22 22 25 22 22 25 22 22 25 22 22 
25 22 22 25 22 22 25 22 22 12 25 2 12 25 2 12 25 2 12 25 2 12 25 2 12 25 2 12 25 2 12 25 2 12 25 2 12 25 2 12 25 2 12 25 2 12 25 2 12 25 2 12 25 2 12 25 2 12 25 2 12 25 2 12 25 2 12 25 2 140 126 126 140 126 126 140 126 126 139 125 125 139 125 125 139 125 125 139 125 125 138 124 124 138 124 124 138 124 124 
0 0 0 
2 25 204 2 25 204 2 25 204 2 25 204 2 25 204 2 25 204 2 25 204 2 25 204 2 25 204 2 25 204 2 25 204 2 25 204 2 25 204 2 25 204 2 25 204 2 25 204 2 25 204 2 25 204 2 25 204 2 25 204 2 25 204 2 25 204 90 72 9 66 53 6 39 31 3 25 20 2 25 20 2 159 143 143 159 143 143 159 143 143 158 143 143 158 142 142 158 142 142 
3 38 19 4 47 23 4 48 24 4 48 24 4 46 23 4 42 21 3 38 19 3 33 16 2 28 14 2 25 12 2 25 12 2 25 12 2 25 12 2 25 12 2 25 12 2 25 12 2 25 12 2 25 12 25 22 22 25 22 22 25 22 22 25 22 22 25 22 22 25 22 22 25 22 22 25 22 22 25 22 22 25 22 22 25 22 22 25 22 22 25 22 22 25 22 22 25 22 22 
25 22 22 25 22 22 25 22 22 12 25 2 12 25 2 12 25 2 12 25 2 12 25 2 12 25 2 12 25 2 12 25 2 12 25 2 12 25 2 12 25 2 12 25 2 12 25 2 12 25 2 12 25 2 12 25 2 12 25 2 12 25 2 12 25 2 142 128 128 142 128 128 142 127 127 141 127 127 141 127 127 141 127 127 140 126 126 140 126 126 140 126 126 140 126 126 139 125 125 
0 0 0 
2 25 204 2 25 204 2 25 204 2 25 204 2 25 204 2 25 204 2 25 204 2 25 204 2 25 204 2 25 204 2 25 204 2 25 204 2 25 204 2 25 204 2 25 204 2 25 204 2 25 204 2 25 204 2 25 204 2 25 204 2 25 204 2 25 204 2 25 204 58 46 5 31 25 3 25 20 2 25 20 2 160 144 144 160 144 144 160 144 144 160 144 144 159 143 143 159 143 143 
159 143 143 159 143 143 2 25 12 2 27 13 2 27 13 2 25 12 2 25 12 2 25 12 2 25 12 2 25 12 2 25 12 2 25 12 2 25 12 2 25 12 2 25 12 2 25 12 25 22 22 25 22 22 25 22 22 25 22 22 25 22 22 25 22 22 25 22 22 25 22 22 25 22 22 25 22 22 25 22 22 25 22 22 25 22 22 25 22 22 25 22 22 25 22 22 25 22 22 
25 22 22 149 134 134 149 134 134 12 25 2 12 25 2 12 25 2 12 25 2 12 25 2 12 25 2 12 25 2 12 25 2 12 25 2 12 25 2 12 25 2 12 25 2 12 25 2 12 25 2 12 25 2 12 25 2 12 25 2 12 25 2 12 25 2 25 22 22 25 22 22 25 22 22 143 128 128 142 128 128 142 128 128 142 128 128 142 127 127 141 127 127 141 127 127 141 127 127 
0 0 0 
2 25 204 2 25 204 2 25 204 2 25 204 2 25 204 2 25 204 2 25 204 2 25 204 2 25 204 2 25 204 2 25 204 2 25 204 2 25 204 2 25 204 2 25 204 2 25 204 2 25 204 2 25 204 2 25 204 2 25 204 2 25 204 2 25 204 2 25 204 47 37 4 25 20 2 25 20 2 25 20 2 161 145 145 161 145 145 161 145 145 161 145 145 160 144 144 160 144 144 
160 144 144 160 144 144 159 143 143 25 22 22 25 22 22 2 25 12 2 25 12 2 25 12 2 25 12 2 25 12 2 25 12 2 25 12 2 25 12 25 22 22 25 22 22 25 22 22 25 22 22 25 22 22 25 22 22 25 22 22 25 22 22 25 22 22 25 22 22 25 22 22 25 22 22 25 22 22 25 22 22 25 22 22 25 22 22 25 22 22 152 136 136 151 136 136 151 136 136 
151 136 136 151 135 135 150 135 135 150 135 135 12 25 2 12 25 2 12 25 2 12 25 2 12 25 2 12 25 2 12 25 2 12 25 2 12 25 2 12 25 2 12 25 2 12 25 2 12 25 2 12 25 2 12 25 2 12 25 2 12 25 2 12 25 2 25 22 22 25 22 22 25 22 22 25 22 22 25 22 22 25 22 22 25 22 22 25 22 22 143 128 128 142 128 128 142 128 128 
0 0 0 
2 25 204 2 25 204 2 25 204 2 25 204 2 25 204 2 25 204 2 25 204 2 25 204 2 25 204 2 25 204 2 25 204 2 25 204 2 25 204 2 25 204 2 25 204 2 25 204 2 25 204 2 25 204 2 25 204 2 25 204 2 25 204 2 25 204 2 25 204 2 25 204 25 20 2 25 20 2 25 20 2 162 146 146 162 146 146 162 146 146 162 145 145 161 145 145 161 145 145 
161 145 145 161 144 144 160 144 144 160 144 144 160 144 144 159 143 143 25 22 22 25 22 22 25 22 22 25 22 22 25 22 22 25 22 22 25 22 22 25 22 22 25 22 22 25 22 22 25 22 22 25 22 22 25 22 22 25 22 22 25 22 22 25 22 22 25 22 22 25 22 22 154 139 139 154 139 139 154 138 138 154 138 138 153 138 138 153 138 138 153 137 137 152 137 137 152 137 137 
152 137 137 152 136 136 25 22 22 25 22 22 12 25 2 12 25 2 12 25 2 12 25 2 12 25 2 12 25 2 12 25 2 12 25 2 12 25 2 12 25 2 12 25 2 12 25 2 12 25 2 12 25 2 12 25 2 12 25 2 12 25 2 25 22 22 25 22 22 25 22 22 25 22 22 25 22 22 25 22 22 25 22 22 25 22 22 25 22 22 25 22 22 144 129 129 144 129 129 
0 0 0 
2 25 204 2 25 204 2 25 204 2 25 204 2 25 204 2 25 204 2 25 204 2 25 204 2 25 204 2 25 204 2 25 204 2 25 204 2 25 204 2 25 204 2 25 204 2 25 204 2 25 204 2 25 204 2 25 204 2 25 204 2 25 204 2 25 204 2 25 204 2 25 204 25 20 2 25 20 2 25 20 2 163 147 147 163 147 147 163 146 146 162 146 146 25 22 22 25 22 22 
25 22 22 25 22 22 161 145 145 161 145 145 161 145 145 160 144 144 160 144 144 160 144 144 160 144 144 159 143 143 159 143 143 159 143 143 159 143 143 158 142 142 158 142 142 158 142 142 157 142 142 157 141 141 157 141 141 157 141 141 156 141 141 156 140 140 156 140 140 156 140 140 155 140 140 155 140 140 155 139 139 155 139 139 154 139 139 154 139 139 154 138 138 154 138 138 153 138 138 
25 22 22 25 22 22 25 22 22 25 22 22 25 22 22 12 25 2 12 25 2 12 25 2 12 25 2 12 25 2 12 25 2 12 25 2 12 25 2 12 25 2 12 25 2 12 25 2 12 25 2 12 25 2 12 25 2 12 25 2 12 25 2 25 22 22 25 22 22 25 22 22 25 22 22 25 22 22 25 22 22 25 22 22 25 22 22 25 22 22 25 22 22 25 22 22 25 22 22 
0 0 0 
2 25 204 2 25 204 2 25 204 2 25 204 2 25 204 2 25 204 2 25 204 2 25 204 2 25 204 2 25 204 2 25 204 2 25 204 2 25 204 2 25 204 2 25 204 2 25 204 2 25 204 2 25 204 2 25 204 2 25 204 2 25 204 2 25 204 2 25 204 2 25 204 25 20 2 25 20 2 25 22 22 25 22 22 25 22 22 25 22 22 25 22 22 25 22 22 25 22 22 
25 22 22 25 22 22 25 22 22 25 22 22 161 145 145 161 145 145 161 145 145 161 145 145 160 144 144 160 144 144 160 144 144 160 144 144 159 143 143 159 143 143 159 143 143 159 143 143 158 142 142 158 142 142 158 142 142 158 142 142 157 142 142 157 141 141 157 141 141 157 141 141 156 141 141 156 140 140 156 140 140 155 140 140 155 140 140 155 139 139 155 139 139 154 139 139 154 139 139 
25 22 22 25 22 22 25 22 22 25 22 22 25 22 22 25 22 22 12 25 2 12 25 2 12 25 2 12 25 2 12 25 2 12 25 2 12 25 2 12 25 2 12 25 2 12 25 2 12 25 2 12 25 2 12 25 2 12 25 2 25 22 22 25 22 22 25 22 22 25 22 22 25 22 22 25 22 22 25 22 22 25 22 22 25 22 22 25 22 22 25 22 22 25 22 22 25 22 22 
0 0 0 
2 25 204 2 25 204 2 25 204 2 25 204 2 25 204 2 25 204 2 25 204 2 25 204 2 25 204 2 25 204 2 25 204 2 25 204 2 25 204 2 25 204 2 25 204 2 25 204 2 25 204 2 25 204 2 25 204 2 25 204 2 25 204 2 25 204 2 25 204 2 25 204 25 20 2 25 20 2 25 22 22 25 22 22 25 22 22 25 22 22 25 22 22 25 22 22 25 22 22 
25 22 22 25 22 22 25 22 22 162 146 146 162 146 146 162 146 146 162 145 145 161 145 145 161 145 145 161 145 145 161 145 145 160 144 144 160 144 144 160 144 144 160 144 144 159 143 143 159 143 143 159 143 143 159 143 143 158 142 142 158 142 142 158 142 142 158 142 142 157 142 142 157 141 141 157 141 141 157 141 141 156 141 141 156 140 140 156 140 140 156 140 140 155 140 140 155 140 140 
155 139 139 155 139 139 25 22 22 25 22 22 25 22 22 25 22 22 25 22 22 25 22 22 12 25 2 12 25 2 12 25 2 12 25 2 12 25 2 12 25 2 12 25 2 12 25 2 12 25 2 12 25 2 25 22 22 25 22 22 25 22 22 25 22 22 25 22 22 25 22 22 25 22 22 25 22 22 25 22 22 25 22 22 25 22 22 25 22 22 25 22 22 25 22 22 25 22 22 
0 0 0 
2 25 204 2 25 204 2 25 204 2 25 204 2 25 204 2 25 204 2 25 204 2 25 204 2 25 204 2 25 204 2 25 204 2 25 204 2 25 204 2 25 204 2 25 204 2 25 204 2 25 204 2 25 204 2 25 204 2 25 204 2 25 204 2 25 204 2 25 204 2 25 204 25 20 2 25 22 22 25 22 22 25 22 22 25 22 22 25 22 22 25 22 22 25 22 22 25 22 22 
25 22 22 164 147 147 163 147 147 163 147 147 163 147 147 163 146 146 162 146 146 162 146 146 162 146 146 162 145 145 161 145 145 161 145 145 161 145 145 161 145 145 160 144 144 160 144 144 160 144 144 160 144 144 159 143 143 159 143 143 159 143 143 159 143 143 158 143 143 158 142 142 158 142 142 158 142 142 157 142 142 157 141 141 157 141 141 157 141 141 156 141 141 156 140 140 156 140 140 
156 140 140 155 140 140 155 140 140 155 139 139 155 139 139 25 22 22 25 22 22 25 22 22 25 22 22 25 22 22 12 25 2 12 25 2 12 25 2 12 25 2 12 25 2 12 25 2 25 22 22 25 22 22 25 22 22 25 22 22 25 22 22 25 22 22 25 22 22 25 22 22 25 22 22 25 22 22 25 22 22 25 22 22 25 22 22 25 22 22 25 22 22 25 22 22 25 22 22 
0 0 0 
2 25 204 2 25 204 2 25 204 2 25 204 2 25 204 2 25 204 2 25 204 2 25 204 2 25 204 2 25 204 2 25 204 2 25 204 2 25 204 2 25 204 2 25 204 2 25 204 2 25 204 2 25 204 2 25 204 2 25 204 2 25 204 2 25 204 2 25 204 2 25 204 25 22 22 25 22 22 25 22 22 25 22 22 25 22 22 25 22 22 25 22 22 165 148 148 165 148 148 
164 148 148 164 148 148 164 148 148 164 147 147 164 147 147 163 147 147 163 147 147 163 146 146 163 146 146 162 146 146 162 146 146 162 146 146 162 145 145 161 145 145 161 145 145 161 145 145 161 144 144 160 144 144 160 144 144 160 144 144 160 144 144 159 143 143 159 143 143 159 143 143 159 143 143 158 142 142 158 142 142 158 142 142 158 142 142 157 142 142 157 141 141 157 141 141 157 141 141 
156 141 141 156 141 141 156 140 140 156 140 140 155 140 140 155 140 140 155 139 139 155 139 139 155 139 139 154 139 139 25 22 22 25 22 22 25 22 22 25 22 22 25 22 22 25 22 22 25 22 22 25 22 22 25 22 22 25 22 22 25 22 22 25 22 22 25 22 22 25 22 22 25 22 22 25 22 22 25 22 22 25 22 22 25 22 22 25 22 22 25 22 22 25 22 22 25 22 22 
0 0 0 
2 25 204 2 25 204 2 25 204 2 25 204 2 25 204 2 25 204 2 25 204 2 25 204 2 25 204 2 25 204 2 25 204 2 25 204 2 25 204 2 25 204 2 25 204 2 25 204 2 25 204 2 25 204 2 25 204 2 25 204 2 25 204 2 25 204 2 25 204 2 25 204 25 22 22 25 22 22 167 150 150 166 150 150 166 150 150 166 149 149 166 149 149 166 149 149 165 149 149 
165 149 149 165 148 148 165 148 148 164 148 148 164 148 148 164 147 147 164 147 147 163 147 147 163 147 147 163 147 147 163 146 146 162 146 146 162 146 146 162 146 146 162 145 145 161 145 145 161 145 145 161 145 145 161 145 145 161 144 144 160 144 144 160 144 144 160 144 144 160 144 144 159 143 143 159 143 143 159 143 143 159 143 143 158 142 142 158 142 142 158 142 142 158 142 142 157 142 142 
157 141 141 157 141 141 157 141 141 156 141 141 156 141 141 156 140 140 156 140 140 156 140 140 155 140 140 155 139 139 155 139 139 155 139 139 154 139 139 154 139 139 154 138 138 154 138 138 25 22 22 25 22 22 25 22 22 25 22 22 25 22 22 25 22 22 25 22 22 25 22 22 25 22 22 25 22 22 25 22 22 25 22 22 25 22 22 25 22 22 25 22 22 25 22 22 25 22 22 
0 0 0 
2 25 204 2 25 204 2 25 204 2 25 204 2 25 204 2 25 204 2 25 204 2 25 204 2 25 204 2 25 204 2 25 204 2 25 204 2 25 204 2 25 204 2 25 204 2 25 204 2 25 204 2 25 204 2 25 204 2 25 204 2 25 204 2 25 204 2 25 204 2 25 204 168 151 151 167 151 151 167 150 150 167 150 150 167 150 150 167 150 150 166 150 150 166 149 149 166 149 149 
166 149 149 165 149 149 165 149 149 165 148 148 165 148 148 164 148 148 164 148 148 164 148 148 164 147 147 163 147 147 163 147 147 163 147 147 163 146 146 163 146 146 162 146 146 162 146 146 162 146 146 162 145 145 161 145 145 161 145 145 161 145 145 161 145 145 160 144 144 160 144 144 160 144 144 160 144 144 159 143 143 159 143 143 159 143 143 159 143 143 159 143 143 158 142 142 158 142 142 
158 142 142 158 142 142 157 142 142 157 141 141 157 141 141 157 141 141 156 141 141 156 141 141 156 140 140 156 140 140 156 140 140 155 140 140 155 140 140 155 139 139 155 139 139 154 139 139 154 139 139 154 138 138 154 138 138 153 138 138 153 138 138 153 138 138 153 137 137 153 137 137 152 137 137 25 22 22 25 22 22 25 22 22 25 22 22 25 22 22 25 22 22 25 22 22 25 22 22 
0 0 0 
2 25 204 2 25 204 2 25 204 2 25 204 2 25 204 2 25 204 2 25 204 2 25 204 2 25 204 2 25 204 2 25 204 2 25 204 2 25 204 2 25 204 2 25 204 2 25 204 2 25 204 2 25 204 2 25 204 2 25 204 2 25 204 2 25 204 2 25 204 2 25 204 168 151 151 168 151 151 168 151 151 167 151 151 167 150 150 167 150 150 167 150 150 167 150 150 166 150 150 
166 149 149 166 149 149 166 149 149 165 149 149 165 149 149 165 148 148 165 148 148 164 148 148 164 148 148 164 148 148 164 147 147 164 147 147 163 147 147 163 147 147 163 147 147 163 146 146 162 146 146 162 146 146 162 146 146 162 145 145 161 145 145 161 145 145 161 145 145 161 145 145 161 144 144 160 144 144 160 144 144 160 144 144 160 144 144 159 143 143 159 143 143 159 143 143 159 143 143 
159 143 143 158 142 142 158 142 142 158 142 142 158 142 142 157 142 142 157 141 141 157 141 141 157 141 141 156 141 141 156 141 141 156 140 140 156 140 140 156 140 140 155 140 140 155 140 140 155 139 139 155 139 139 154 139 139 154 139 139 154 139 139 154 138 138 154 138 138 153 138 138 153 138 138 153 138 138 153 137 137 152 137 137 152 137 137 152 137 137 152 137 137 152 136 136 151 136 136 
0 0 0 
0 0 0 0 0 0 0 0 0 0 0 0 0 0 0 0 0 0 0 0 0 0 0 0 0 0 0 0 0 0 0 0 0 0 0 0 0 0 0 0 0 0 0 0 0 0 0 0 0 0 0 0 0 0 0 0 0 0 0 0 0 0 0 0 0 0 0 0 0 0 0 0 0 0 0 0 0 0 0 0 0 0 0 0 0 0 0 0 0 0 0 0 0 0 0 0 0 0 0 
0 0 0 0 0 0 0 0 0 0 0 0 0 0 0 0 0 0 0 0 0 0 0 0 0 0 0 0 0 0 0 0 0 0 0 0 0 0 0 0 0 0 0 0 0 0 0 0 0 0 0 0 0 0 0 0 0 0 0 0 0 0 0 0 0 0 0 0 0 0 0 0 0 0 0 0 0 0 0 0 0 0 0 0 0 0 0 0 0 0 0 0 0 0 0 0 0 0 0 
0 0 0 0 0 0 0 0 0 0 0 0 0 0 0 0 0 0 0 0 0 0 0 0 0 0 0 0 0 0 0 0 0 0 0 0 0 0 0 0 0 0 0 0 0 0 0 0 0 0 0 0 0 0 0 0 0 0 0 0 0 0 0 0 0 0 0 0 0 0 0 0 0 0 0 0 0 0 0 0 0 0 0 0 0 0 0 0 0 0 0 0 0 0 0 0 0 0 0 
0 0 0 
