# Regular icosahedron, circumradius 1
# Generated by generate.py in this directory - do not edit by hand.
# Copyright (c) 2026 Willy Clarke, MIT License (see LICENSE at repo root).
v -0.525731 0.850651 0.000000
v 0.525731 0.850651 0.000000
v -0.525731 -0.850651 0.000000
v 0.525731 -0.850651 0.000000
v 0.000000 -0.525731 0.850651
v 0.000000 0.525731 0.850651
v 0.000000 -0.525731 -0.850651
v 0.000000 0.525731 -0.850651
v 0.850651 0.000000 -0.525731
v 0.850651 0.000000 0.525731
v -0.850651 0.000000 -0.525731
v -0.850651 0.000000 0.525731
f 1 12 6
f 1 6 2
f 1 2 8
f 1 8 11
f 1 11 12
f 2 6 10
f 6 12 5
f 12 11 3
f 11 8 7
f 8 2 9
f 4 10 5
f 4 5 3
f 4 3 7
f 4 7 9
f 4 9 10
f 5 10 6
f 3 5 12
f 7 3 11
f 9 7 8
f 10 9 2
