# Torus, major radius 1.0, minor radius 0.4, 32x16 segments, analytic vertex normals
# Generated by generate.py in this directory - do not edit by hand.
# Copyright (c) 2026 Willy Clarke, MIT License (see LICENSE at repo root).
v 1.400000 0.000000 0.000000
v 1.369552 0.153073 0.000000
v 1.282843 0.282843 0.000000
v 1.153073 0.369552 0.000000
v 1.000000 0.400000 0.000000
v 0.846927 0.369552 0.000000
v 0.717157 0.282843 0.000000
v 0.630448 0.153073 0.000000
v 0.600000 0.000000 0.000000
v 0.630448 -0.153073 0.000000
v 0.717157 -0.282843 0.000000
v 0.846927 -0.369552 0.000000
v 1.000000 -0.400000 0.000000
v 1.153073 -0.369552 0.000000
v 1.282843 -0.282843 0.000000
v 1.369552 -0.153073 0.000000
v 1.373099 0.000000 0.273126
v 1.343236 0.153073 0.267186
v 1.258193 0.282843 0.250270
v 1.130917 0.369552 0.224953
v 0.980785 0.400000 0.195090
v 0.830653 0.369552 0.165227
v 0.703377 0.282843 0.139910
v 0.618334 0.153073 0.122994
v 0.588471 0.000000 0.117054
v 0.618334 -0.153073 0.122994
v 0.703377 -0.282843 0.139910
v 0.830653 -0.369552 0.165227
v 0.980785 -0.400000 0.195090
v 1.130917 -0.369552 0.224953
v 1.258193 -0.282843 0.250270
v 1.343236 -0.153073 0.267186
v 1.293431 0.000000 0.535757
v 1.265301 0.153073 0.524105
v 1.185192 0.282843 0.490923
v 1.065301 0.369552 0.441262
v 0.923880 0.400000 0.382683
v 0.782458 0.369552 0.324105
v 0.662567 0.282843 0.274444
v 0.582458 0.153073 0.241262
v 0.554328 0.000000 0.229610
v 0.582458 -0.153073 0.241262
v 0.662567 -0.282843 0.274444
v 0.782458 -0.369552 0.324105
v 0.923880 -0.400000 0.382683
v 1.065301 -0.369552 0.441262
v 1.185192 -0.282843 0.490923
v 1.265301 -0.153073 0.524105
v 1.164057 0.000000 0.777798
v 1.138741 0.153073 0.760882
v 1.066645 0.282843 0.712709
v 0.958745 0.369552 0.640613
v 0.831470 0.400000 0.555570
v 0.704194 0.369552 0.470527
v 0.596294 0.282843 0.398431
v 0.524199 0.153073 0.350258
v 0.498882 0.000000 0.333342
v 0.524199 -0.153073 0.350258
v 0.596294 -0.282843 0.398431
v 0.704194 -0.369552 0.470527
v 0.831470 -0.400000 0.555570
v 0.958745 -0.369552 0.640613
v 1.066645 -0.282843 0.712709
v 1.138741 -0.153073 0.760882
v 0.989949 0.000000 0.989949
v 0.968419 0.153073 0.968419
v 0.907107 0.282843 0.907107
v 0.815346 0.369552 0.815346
v 0.707107 0.400000 0.707107
v 0.598868 0.369552 0.598868
v 0.507107 0.282843 0.507107
v 0.445794 0.153073 0.445794
v 0.424264 0.000000 0.424264
v 0.445794 -0.153073 0.445794
v 0.507107 -0.282843 0.507107
v 0.598868 -0.369552 0.598868
v 0.707107 -0.400000 0.707107
v 0.815346 -0.369552 0.815346
v 0.907107 -0.282843 0.907107
v 0.968419 -0.153073 0.968419
v 0.777798 0.000000 1.164057
v 0.760882 0.153073 1.138741
v 0.712709 0.282843 1.066645
v 0.640613 0.369552 0.958745
v 0.555570 0.400000 0.831470
v 0.470527 0.369552 0.704194
v 0.398431 0.282843 0.596294
v 0.350258 0.153073 0.524199
v 0.333342 0.000000 0.498882
v 0.350258 -0.153073 0.524199
v 0.398431 -0.282843 0.596294
v 0.470527 -0.369552 0.704194
v 0.555570 -0.400000 0.831470
v 0.640613 -0.369552 0.958745
v 0.712709 -0.282843 1.066645
v 0.760882 -0.153073 1.138741
v 0.535757 0.000000 1.293431
v 0.524105 0.153073 1.265301
v 0.490923 0.282843 1.185192
v 0.441262 0.369552 1.065301
v 0.382683 0.400000 0.923880
v 0.324105 0.369552 0.782458
v 0.274444 0.282843 0.662567
v 0.241262 0.153073 0.582458
v 0.229610 0.000000 0.554328
v 0.241262 -0.153073 0.582458
v 0.274444 -0.282843 0.662567
v 0.324105 -0.369552 0.782458
v 0.382683 -0.400000 0.923880
v 0.441262 -0.369552 1.065301
v 0.490923 -0.282843 1.185192
v 0.524105 -0.153073 1.265301
v 0.273126 0.000000 1.373099
v 0.267186 0.153073 1.343236
v 0.250270 0.282843 1.258193
v 0.224953 0.369552 1.130917
v 0.195090 0.400000 0.980785
v 0.165227 0.369552 0.830653
v 0.139910 0.282843 0.703377
v 0.122994 0.153073 0.618334
v 0.117054 0.000000 0.588471
v 0.122994 -0.153073 0.618334
v 0.139910 -0.282843 0.703377
v 0.165227 -0.369552 0.830653
v 0.195090 -0.400000 0.980785
v 0.224953 -0.369552 1.130917
v 0.250270 -0.282843 1.258193
v 0.267186 -0.153073 1.343236
v 0.000000 0.000000 1.400000
v 0.000000 0.153073 1.369552
v 0.000000 0.282843 1.282843
v 0.000000 0.369552 1.153073
v 0.000000 0.400000 1.000000
v 0.000000 0.369552 0.846927
v 0.000000 0.282843 0.717157
v 0.000000 0.153073 0.630448
v 0.000000 0.000000 0.600000
v 0.000000 -0.153073 0.630448
v 0.000000 -0.282843 0.717157
v 0.000000 -0.369552 0.846927
v 0.000000 -0.400000 1.000000
v 0.000000 -0.369552 1.153073
v 0.000000 -0.282843 1.282843
v 0.000000 -0.153073 1.369552
v -0.273126 0.000000 1.373099
v -0.267186 0.153073 1.343236
v -0.250270 0.282843 1.258193
v -0.224953 0.369552 1.130917
v -0.195090 0.400000 0.980785
v -0.165227 0.369552 0.830653
v -0.139910 0.282843 0.703377
v -0.122994 0.153073 0.618334
v -0.117054 0.000000 0.588471
v -0.122994 -0.153073 0.618334
v -0.139910 -0.282843 0.703377
v -0.165227 -0.369552 0.830653
v -0.195090 -0.400000 0.980785
v -0.224953 -0.369552 1.130917
v -0.250270 -0.282843 1.258193
v -0.267186 -0.153073 1.343236
v -0.535757 0.000000 1.293431
v -0.524105 0.153073 1.265301
v -0.490923 0.282843 1.185192
v -0.441262 0.369552 1.065301
v -0.382683 0.400000 0.923880
v -0.324105 0.369552 0.782458
v -0.274444 0.282843 0.662567
v -0.241262 0.153073 0.582458
v -0.229610 0.000000 0.554328
v -0.241262 -0.153073 0.582458
v -0.274444 -0.282843 0.662567
v -0.324105 -0.369552 0.782458
v -0.382683 -0.400000 0.923880
v -0.441262 -0.369552 1.065301
v -0.490923 -0.282843 1.185192
v -0.524105 -0.153073 1.265301
v -0.777798 0.000000 1.164057
v -0.760882 0.153073 1.138741
v -0.712709 0.282843 1.066645
v -0.640613 0.369552 0.958745
v -0.555570 0.400000 0.831470
v -0.470527 0.369552 0.704194
v -0.398431 0.282843 0.596294
v -0.350258 0.153073 0.524199
v -0.333342 0.000000 0.498882
v -0.350258 -0.153073 0.524199
v -0.398431 -0.282843 0.596294
v -0.470527 -0.369552 0.704194
v -0.555570 -0.400000 0.831470
v -0.640613 -0.369552 0.958745
v -0.712709 -0.282843 1.066645
v -0.760882 -0.153073 1.138741
v -0.989949 0.000000 0.989949
v -0.968419 0.153073 0.968419
v -0.907107 0.282843 0.907107
v -0.815346 0.369552 0.815346
v -0.707107 0.400000 0.707107
v -0.598868 0.369552 0.598868
v -0.507107 0.282843 0.507107
v -0.445794 0.153073 0.445794
v -0.424264 0.000000 0.424264
v -0.445794 -0.153073 0.445794
v -0.507107 -0.282843 0.507107
v -0.598868 -0.369552 0.598868
v -0.707107 -0.400000 0.707107
v -0.815346 -0.369552 0.815346
v -0.907107 -0.282843 0.907107
v -0.968419 -0.153073 0.968419
v -1.164057 0.000000 0.777798
v -1.138741 0.153073 0.760882
v -1.066645 0.282843 0.712709
v -0.958745 0.369552 0.640613
v -0.831470 0.400000 0.555570
v -0.704194 0.369552 0.470527
v -0.596294 0.282843 0.398431
v -0.524199 0.153073 0.350258
v -0.498882 0.000000 0.333342
v -0.524199 -0.153073 0.350258
v -0.596294 -0.282843 0.398431
v -0.704194 -0.369552 0.470527
v -0.831470 -0.400000 0.555570
v -0.958745 -0.369552 0.640613
v -1.066645 -0.282843 0.712709
v -1.138741 -0.153073 0.760882
v -1.293431 0.000000 0.535757
v -1.265301 0.153073 0.524105
v -1.185192 0.282843 0.490923
v -1.065301 0.369552 0.441262
v -0.923880 0.400000 0.382683
v -0.782458 0.369552 0.324105
v -0.662567 0.282843 0.274444
v -0.582458 0.153073 0.241262
v -0.554328 0.000000 0.229610
v -0.582458 -0.153073 0.241262
v -0.662567 -0.282843 0.274444
v -0.782458 -0.369552 0.324105
v -0.923880 -0.400000 0.382683
v -1.065301 -0.369552 0.441262
v -1.185192 -0.282843 0.490923
v -1.265301 -0.153073 0.524105
v -1.373099 0.000000 0.273126
v -1.343236 0.153073 0.267186
v -1.258193 0.282843 0.250270
v -1.130917 0.369552 0.224953
v -0.980785 0.400000 0.195090
v -0.830653 0.369552 0.165227
v -0.703377 0.282843 0.139910
v -0.618334 0.153073 0.122994
v -0.588471 0.000000 0.117054
v -0.618334 -0.153073 0.122994
v -0.703377 -0.282843 0.139910
v -0.830653 -0.369552 0.165227
v -0.980785 -0.400000 0.195090
v -1.130917 -0.369552 0.224953
v -1.258193 -0.282843 0.250270
v -1.343236 -0.153073 0.267186
v -1.400000 0.000000 0.000000
v -1.369552 0.153073 0.000000
v -1.282843 0.282843 0.000000
v -1.153073 0.369552 0.000000
v -1.000000 0.400000 0.000000
v -0.846927 0.369552 0.000000
v -0.717157 0.282843 0.000000
v -0.630448 0.153073 0.000000
v -0.600000 0.000000 0.000000
v -0.630448 -0.153073 0.000000
v -0.717157 -0.282843 0.000000
v -0.846927 -0.369552 0.000000
v -1.000000 -0.400000 0.000000
v -1.153073 -0.369552 0.000000
v -1.282843 -0.282843 0.000000
v -1.369552 -0.153073 0.000000
v -1.373099 0.000000 -0.273126
v -1.343236 0.153073 -0.267186
v -1.258193 0.282843 -0.250270
v -1.130917 0.369552 -0.224953
v -0.980785 0.400000 -0.195090
v -0.830653 0.369552 -0.165227
v -0.703377 0.282843 -0.139910
v -0.618334 0.153073 -0.122994
v -0.588471 0.000000 -0.117054
v -0.618334 -0.153073 -0.122994
v -0.703377 -0.282843 -0.139910
v -0.830653 -0.369552 -0.165227
v -0.980785 -0.400000 -0.195090
v -1.130917 -0.369552 -0.224953
v -1.258193 -0.282843 -0.250270
v -1.343236 -0.153073 -0.267186
v -1.293431 0.000000 -0.535757
v -1.265301 0.153073 -0.524105
v -1.185192 0.282843 -0.490923
v -1.065301 0.369552 -0.441262
v -0.923880 0.400000 -0.382683
v -0.782458 0.369552 -0.324105
v -0.662567 0.282843 -0.274444
v -0.582458 0.153073 -0.241262
v -0.554328 0.000000 -0.229610
v -0.582458 -0.153073 -0.241262
v -0.662567 -0.282843 -0.274444
v -0.782458 -0.369552 -0.324105
v -0.923880 -0.400000 -0.382683
v -1.065301 -0.369552 -0.441262
v -1.185192 -0.282843 -0.490923
v -1.265301 -0.153073 -0.524105
v -1.164057 0.000000 -0.777798
v -1.138741 0.153073 -0.760882
v -1.066645 0.282843 -0.712709
v -0.958745 0.369552 -0.640613
v -0.831470 0.400000 -0.555570
v -0.704194 0.369552 -0.470527
v -0.596294 0.282843 -0.398431
v -0.524199 0.153073 -0.350258
v -0.498882 0.000000 -0.333342
v -0.524199 -0.153073 -0.350258
v -0.596294 -0.282843 -0.398431
v -0.704194 -0.369552 -0.470527
v -0.831470 -0.400000 -0.555570
v -0.958745 -0.369552 -0.640613
v -1.066645 -0.282843 -0.712709
v -1.138741 -0.153073 -0.760882
v -0.989949 0.000000 -0.989949
v -0.968419 0.153073 -0.968419
v -0.907107 0.282843 -0.907107
v -0.815346 0.369552 -0.815346
v -0.707107 0.400000 -0.707107
v -0.598868 0.369552 -0.598868
v -0.507107 0.282843 -0.507107
v -0.445794 0.153073 -0.445794
v -0.424264 0.000000 -0.424264
v -0.445794 -0.153073 -0.445794
v -0.507107 -0.282843 -0.507107
v -0.598868 -0.369552 -0.598868
v -0.707107 -0.400000 -0.707107
v -0.815346 -0.369552 -0.815346
v -0.907107 -0.282843 -0.907107
v -0.968419 -0.153073 -0.968419
v -0.777798 0.000000 -1.164057
v -0.760882 0.153073 -1.138741
v -0.712709 0.282843 -1.066645
v -0.640613 0.369552 -0.958745
v -0.555570 0.400000 -0.831470
v -0.470527 0.369552 -0.704194
v -0.398431 0.282843 -0.596294
v -0.350258 0.153073 -0.524199
v -0.333342 0.000000 -0.498882
v -0.350258 -0.153073 -0.524199
v -0.398431 -0.282843 -0.596294
v -0.470527 -0.369552 -0.704194
v -0.555570 -0.400000 -0.831470
v -0.640613 -0.369552 -0.958745
v -0.712709 -0.282843 -1.066645
v -0.760882 -0.153073 -1.138741
v -0.535757 0.000000 -1.293431
v -0.524105 0.153073 -1.265301
v -0.490923 0.282843 -1.185192
v -0.441262 0.369552 -1.065301
v -0.382683 0.400000 -0.923880
v -0.324105 0.369552 -0.782458
v -0.274444 0.282843 -0.662567
v -0.241262 0.153073 -0.582458
v -0.229610 0.000000 -0.554328
v -0.241262 -0.153073 -0.582458
v -0.274444 -0.282843 -0.662567
v -0.324105 -0.369552 -0.782458
v -0.382683 -0.400000 -0.923880
v -0.441262 -0.369552 -1.065301
v -0.490923 -0.282843 -1.185192
v -0.524105 -0.153073 -1.265301
v -0.273126 0.000000 -1.373099
v -0.267186 0.153073 -1.343236
v -0.250270 0.282843 -1.258193
v -0.224953 0.369552 -1.130917
v -0.195090 0.400000 -0.980785
v -0.165227 0.369552 -0.830653
v -0.139910 0.282843 -0.703377
v -0.122994 0.153073 -0.618334
v -0.117054 0.000000 -0.588471
v -0.122994 -0.153073 -0.618334
v -0.139910 -0.282843 -0.703377
v -0.165227 -0.369552 -0.830653
v -0.195090 -0.400000 -0.980785
v -0.224953 -0.369552 -1.130917
v -0.250270 -0.282843 -1.258193
v -0.267186 -0.153073 -1.343236
v -0.000000 0.000000 -1.400000
v -0.000000 0.153073 -1.369552
v -0.000000 0.282843 -1.282843
v -0.000000 0.369552 -1.153073
v -0.000000 0.400000 -1.000000
v -0.000000 0.369552 -0.846927
v -0.000000 0.282843 -0.717157
v -0.000000 0.153073 -0.630448
v -0.000000 0.000000 -0.600000
v -0.000000 -0.153073 -0.630448
v -0.000000 -0.282843 -0.717157
v -0.000000 -0.369552 -0.846927
v -0.000000 -0.400000 -1.000000
v -0.000000 -0.369552 -1.153073
v -0.000000 -0.282843 -1.282843
v -0.000000 -0.153073 -1.369552
v 0.273126 0.000000 -1.373099
v 0.267186 0.153073 -1.343236
v 0.250270 0.282843 -1.258193
v 0.224953 0.369552 -1.130917
v 0.195090 0.400000 -0.980785
v 0.165227 0.369552 -0.830653
v 0.139910 0.282843 -0.703377
v 0.122994 0.153073 -0.618334
v 0.117054 0.000000 -0.588471
v 0.122994 -0.153073 -0.618334
v 0.139910 -0.282843 -0.703377
v 0.165227 -0.369552 -0.830653
v 0.195090 -0.400000 -0.980785
v 0.224953 -0.369552 -1.130917
v 0.250270 -0.282843 -1.258193
v 0.267186 -0.153073 -1.343236
v 0.535757 0.000000 -1.293431
v 0.524105 0.153073 -1.265301
v 0.490923 0.282843 -1.185192
v 0.441262 0.369552 -1.065301
v 0.382683 0.400000 -0.923880
v 0.324105 0.369552 -0.782458
v 0.274444 0.282843 -0.662567
v 0.241262 0.153073 -0.582458
v 0.229610 0.000000 -0.554328
v 0.241262 -0.153073 -0.582458
v 0.274444 -0.282843 -0.662567
v 0.324105 -0.369552 -0.782458
v 0.382683 -0.400000 -0.923880
v 0.441262 -0.369552 -1.065301
v 0.490923 -0.282843 -1.185192
v 0.524105 -0.153073 -1.265301
v 0.777798 0.000000 -1.164057
v 0.760882 0.153073 -1.138741
v 0.712709 0.282843 -1.066645
v 0.640613 0.369552 -0.958745
v 0.555570 0.400000 -0.831470
v 0.470527 0.369552 -0.704194
v 0.398431 0.282843 -0.596294
v 0.350258 0.153073 -0.524199
v 0.333342 0.000000 -0.498882
v 0.350258 -0.153073 -0.524199
v 0.398431 -0.282843 -0.596294
v 0.470527 -0.369552 -0.704194
v 0.555570 -0.400000 -0.831470
v 0.640613 -0.369552 -0.958745
v 0.712709 -0.282843 -1.066645
v 0.760882 -0.153073 -1.138741
v 0.989949 0.000000 -0.989949
v 0.968419 0.153073 -0.968419
v 0.907107 0.282843 -0.907107
v 0.815346 0.369552 -0.815346
v 0.707107 0.400000 -0.707107
v 0.598868 0.369552 -0.598868
v 0.507107 0.282843 -0.507107
v 0.445794 0.153073 -0.445794
v 0.424264 0.000000 -0.424264
v 0.445794 -0.153073 -0.445794
v 0.507107 -0.282843 -0.507107
v 0.598868 -0.369552 -0.598868
v 0.707107 -0.400000 -0.707107
v 0.815346 -0.369552 -0.815346
v 0.907107 -0.282843 -0.907107
v 0.968419 -0.153073 -0.968419
v 1.164057 0.000000 -0.777798
v 1.138741 0.153073 -0.760882
v 1.066645 0.282843 -0.712709
v 0.958745 0.369552 -0.640613
v 0.831470 0.400000 -0.555570
v 0.704194 0.369552 -0.470527
v 0.596294 0.282843 -0.398431
v 0.524199 0.153073 -0.350258
v 0.498882 0.000000 -0.333342
v 0.524199 -0.153073 -0.350258
v 0.596294 -0.282843 -0.398431
v 0.704194 -0.369552 -0.470527
v 0.831470 -0.400000 -0.555570
v 0.958745 -0.369552 -0.640613
v 1.066645 -0.282843 -0.712709
v 1.138741 -0.153073 -0.760882
v 1.293431 0.000000 -0.535757
v 1.265301 0.153073 -0.524105
v 1.185192 0.282843 -0.490923
v 1.065301 0.369552 -0.441262
v 0.923880 0.400000 -0.382683
v 0.782458 0.369552 -0.324105
v 0.662567 0.282843 -0.274444
v 0.582458 0.153073 -0.241262
v 0.554328 0.000000 -0.229610
v 0.582458 -0.153073 -0.241262
v 0.662567 -0.282843 -0.274444
v 0.782458 -0.369552 -0.324105
v 0.923880 -0.400000 -0.382683
v 1.065301 -0.369552 -0.441262
v 1.185192 -0.282843 -0.490923
v 1.265301 -0.153073 -0.524105
v 1.373099 0.000000 -0.273126
v 1.343236 0.153073 -0.267186
v 1.258193 0.282843 -0.250270
v 1.130917 0.369552 -0.224953
v 0.980785 0.400000 -0.195090
v 0.830653 0.369552 -0.165227
v 0.703377 0.282843 -0.139910
v 0.618334 0.153073 -0.122994
v 0.588471 0.000000 -0.117054
v 0.618334 -0.153073 -0.122994
v 0.703377 -0.282843 -0.139910
v 0.830653 -0.369552 -0.165227
v 0.980785 -0.400000 -0.195090
v 1.130917 -0.369552 -0.224953
v 1.258193 -0.282843 -0.250270
v 1.343236 -0.153073 -0.267186
vn 1.000000 0.000000 0.000000
vn 0.923880 0.382683 0.000000
vn 0.707107 0.707107 0.000000
vn 0.382683 0.923880 0.000000
vn 0.000000 1.000000 0.000000
vn -0.382683 0.923880 -0.000000
vn -0.707107 0.707107 -0.000000
vn -0.923880 0.382683 -0.000000
vn -1.000000 0.000000 -0.000000
vn -0.923880 -0.382683 -0.000000
vn -0.707107 -0.707107 -0.000000
vn -0.382683 -0.923880 -0.000000
vn -0.000000 -1.000000 -0.000000
vn 0.382683 -0.923880 0.000000
vn 0.707107 -0.707107 0.000000
vn 0.923880 -0.382683 0.000000
vn 0.980785 0.000000 0.195090
vn 0.906127 0.382683 0.180240
vn 0.693520 0.707107 0.137950
vn 0.375330 0.923880 0.074658
vn 0.000000 1.000000 0.000000
vn -0.375330 0.923880 -0.074658
vn -0.693520 0.707107 -0.137950
vn -0.906127 0.382683 -0.180240
vn -0.980785 0.000000 -0.195090
vn -0.906127 -0.382683 -0.180240
vn -0.693520 -0.707107 -0.137950
vn -0.375330 -0.923880 -0.074658
vn -0.000000 -1.000000 -0.000000
vn 0.375330 -0.923880 0.074658
vn 0.693520 -0.707107 0.137950
vn 0.906127 -0.382683 0.180240
vn 0.923880 0.000000 0.382683
vn 0.853553 0.382683 0.353553
vn 0.653281 0.707107 0.270598
vn 0.353553 0.923880 0.146447
vn 0.000000 1.000000 0.000000
vn -0.353553 0.923880 -0.146447
vn -0.653281 0.707107 -0.270598
vn -0.853553 0.382683 -0.353553
vn -0.923880 0.000000 -0.382683
vn -0.853553 -0.382683 -0.353553
vn -0.653281 -0.707107 -0.270598
vn -0.353553 -0.923880 -0.146447
vn -0.000000 -1.000000 -0.000000
vn 0.353553 -0.923880 0.146447
vn 0.653281 -0.707107 0.270598
vn 0.853553 -0.382683 0.353553
vn 0.831470 0.000000 0.555570
vn 0.768178 0.382683 0.513280
vn 0.587938 0.707107 0.392847
vn 0.318190 0.923880 0.212608
vn 0.000000 1.000000 0.000000
vn -0.318190 0.923880 -0.212608
vn -0.587938 0.707107 -0.392847
vn -0.768178 0.382683 -0.513280
vn -0.831470 0.000000 -0.555570
vn -0.768178 -0.382683 -0.513280
vn -0.587938 -0.707107 -0.392847
vn -0.318190 -0.923880 -0.212608
vn -0.000000 -1.000000 -0.000000
vn 0.318190 -0.923880 0.212608
vn 0.587938 -0.707107 0.392847
vn 0.768178 -0.382683 0.513280
vn 0.707107 0.000000 0.707107
vn 0.653281 0.382683 0.653281
vn 0.500000 0.707107 0.500000
vn 0.270598 0.923880 0.270598
vn 0.000000 1.000000 0.000000
vn -0.270598 0.923880 -0.270598
vn -0.500000 0.707107 -0.500000
vn -0.653281 0.382683 -0.653281
vn -0.707107 0.000000 -0.707107
vn -0.653281 -0.382683 -0.653281
vn -0.500000 -0.707107 -0.500000
vn -0.270598 -0.923880 -0.270598
vn -0.000000 -1.000000 -0.000000
vn 0.270598 -0.923880 0.270598
vn 0.500000 -0.707107 0.500000
vn 0.653281 -0.382683 0.653281
vn 0.555570 0.000000 0.831470
vn 0.513280 0.382683 0.768178
vn 0.392847 0.707107 0.587938
vn 0.212608 0.923880 0.318190
vn 0.000000 1.000000 0.000000
vn -0.212608 0.923880 -0.318190
vn -0.392847 0.707107 -0.587938
vn -0.513280 0.382683 -0.768178
vn -0.555570 0.000000 -0.831470
vn -0.513280 -0.382683 -0.768178
vn -0.392847 -0.707107 -0.587938
vn -0.212608 -0.923880 -0.318190
vn -0.000000 -1.000000 -0.000000
vn 0.212608 -0.923880 0.318190
vn 0.392847 -0.707107 0.587938
vn 0.513280 -0.382683 0.768178
vn 0.382683 0.000000 0.923880
vn 0.353553 0.382683 0.853553
vn 0.270598 0.707107 0.653281
vn 0.146447 0.923880 0.353553
vn 0.000000 1.000000 0.000000
vn -0.146447 0.923880 -0.353553
vn -0.270598 0.707107 -0.653281
vn -0.353553 0.382683 -0.853553
vn -0.382683 0.000000 -0.923880
vn -0.353553 -0.382683 -0.853553
vn -0.270598 -0.707107 -0.653281
vn -0.146447 -0.923880 -0.353553
vn -0.000000 -1.000000 -0.000000
vn 0.146447 -0.923880 0.353553
vn 0.270598 -0.707107 0.653281
vn 0.353553 -0.382683 0.853553
vn 0.195090 0.000000 0.980785
vn 0.180240 0.382683 0.906127
vn 0.137950 0.707107 0.693520
vn 0.074658 0.923880 0.375330
vn 0.000000 1.000000 0.000000
vn -0.074658 0.923880 -0.375330
vn -0.137950 0.707107 -0.693520
vn -0.180240 0.382683 -0.906127
vn -0.195090 0.000000 -0.980785
vn -0.180240 -0.382683 -0.906127
vn -0.137950 -0.707107 -0.693520
vn -0.074658 -0.923880 -0.375330
vn -0.000000 -1.000000 -0.000000
vn 0.074658 -0.923880 0.375330
vn 0.137950 -0.707107 0.693520
vn 0.180240 -0.382683 0.906127
vn 0.000000 0.000000 1.000000
vn 0.000000 0.382683 0.923880
vn 0.000000 0.707107 0.707107
vn 0.000000 0.923880 0.382683
vn 0.000000 1.000000 0.000000
vn -0.000000 0.923880 -0.382683
vn -0.000000 0.707107 -0.707107
vn -0.000000 0.382683 -0.923880
vn -0.000000 0.000000 -1.000000
vn -0.000000 -0.382683 -0.923880
vn -0.000000 -0.707107 -0.707107
vn -0.000000 -0.923880 -0.382683
vn -0.000000 -1.000000 -0.000000
vn 0.000000 -0.923880 0.382683
vn 0.000000 -0.707107 0.707107
vn 0.000000 -0.382683 0.923880
vn -0.195090 0.000000 0.980785
vn -0.180240 0.382683 0.906127
vn -0.137950 0.707107 0.693520
vn -0.074658 0.923880 0.375330
vn -0.000000 1.000000 0.000000
vn 0.074658 0.923880 -0.375330
vn 0.137950 0.707107 -0.693520
vn 0.180240 0.382683 -0.906127
vn 0.195090 0.000000 -0.980785
vn 0.180240 -0.382683 -0.906127
vn 0.137950 -0.707107 -0.693520
vn 0.074658 -0.923880 -0.375330
vn 0.000000 -1.000000 -0.000000
vn -0.074658 -0.923880 0.375330
vn -0.137950 -0.707107 0.693520
vn -0.180240 -0.382683 0.906127
vn -0.382683 0.000000 0.923880
vn -0.353553 0.382683 0.853553
vn -0.270598 0.707107 0.653281
vn -0.146447 0.923880 0.353553
vn -0.000000 1.000000 0.000000
vn 0.146447 0.923880 -0.353553
vn 0.270598 0.707107 -0.653281
vn 0.353553 0.382683 -0.853553
vn 0.382683 0.000000 -0.923880
vn 0.353553 -0.382683 -0.853553
vn 0.270598 -0.707107 -0.653281
vn 0.146447 -0.923880 -0.353553
vn 0.000000 -1.000000 -0.000000
vn -0.146447 -0.923880 0.353553
vn -0.270598 -0.707107 0.653281
vn -0.353553 -0.382683 0.853553
vn -0.555570 0.000000 0.831470
vn -0.513280 0.382683 0.768178
vn -0.392847 0.707107 0.587938
vn -0.212608 0.923880 0.318190
vn -0.000000 1.000000 0.000000
vn 0.212608 0.923880 -0.318190
vn 0.392847 0.707107 -0.587938
vn 0.513280 0.382683 -0.768178
vn 0.555570 0.000000 -0.831470
vn 0.513280 -0.382683 -0.768178
vn 0.392847 -0.707107 -0.587938
vn 0.212608 -0.923880 -0.318190
vn 0.000000 -1.000000 -0.000000
vn -0.212608 -0.923880 0.318190
vn -0.392847 -0.707107 0.587938
vn -0.513280 -0.382683 0.768178
vn -0.707107 0.000000 0.707107
vn -0.653281 0.382683 0.653281
vn -0.500000 0.707107 0.500000
vn -0.270598 0.923880 0.270598
vn -0.000000 1.000000 0.000000
vn 0.270598 0.923880 -0.270598
vn 0.500000 0.707107 -0.500000
vn 0.653281 0.382683 -0.653281
vn 0.707107 0.000000 -0.707107
vn 0.653281 -0.382683 -0.653281
vn 0.500000 -0.707107 -0.500000
vn 0.270598 -0.923880 -0.270598
vn 0.000000 -1.000000 -0.000000
vn -0.270598 -0.923880 0.270598
vn -0.500000 -0.707107 0.500000
vn -0.653281 -0.382683 0.653281
vn -0.831470 0.000000 0.555570
vn -0.768178 0.382683 0.513280
vn -0.587938 0.707107 0.392847
vn -0.318190 0.923880 0.212608
vn -0.000000 1.000000 0.000000
vn 0.318190 0.923880 -0.212608
vn 0.587938 0.707107 -0.392847
vn 0.768178 0.382683 -0.513280
vn 0.831470 0.000000 -0.555570
vn 0.768178 -0.382683 -0.513280
vn 0.587938 -0.707107 -0.392847
vn 0.318190 -0.923880 -0.212608
vn 0.000000 -1.000000 -0.000000
vn -0.318190 -0.923880 0.212608
vn -0.587938 -0.707107 0.392847
vn -0.768178 -0.382683 0.513280
vn -0.923880 0.000000 0.382683
vn -0.853553 0.382683 0.353553
vn -0.653281 0.707107 0.270598
vn -0.353553 0.923880 0.146447
vn -0.000000 1.000000 0.000000
vn 0.353553 0.923880 -0.146447
vn 0.653281 0.707107 -0.270598
vn 0.853553 0.382683 -0.353553
vn 0.923880 0.000000 -0.382683
vn 0.853553 -0.382683 -0.353553
vn 0.653281 -0.707107 -0.270598
vn 0.353553 -0.923880 -0.146447
vn 0.000000 -1.000000 -0.000000
vn -0.353553 -0.923880 0.146447
vn -0.653281 -0.707107 0.270598
vn -0.853553 -0.382683 0.353553
vn -0.980785 0.000000 0.195090
vn -0.906127 0.382683 0.180240
vn -0.693520 0.707107 0.137950
vn -0.375330 0.923880 0.074658
vn -0.000000 1.000000 0.000000
vn 0.375330 0.923880 -0.074658
vn 0.693520 0.707107 -0.137950
vn 0.906127 0.382683 -0.180240
vn 0.980785 0.000000 -0.195090
vn 0.906127 -0.382683 -0.180240
vn 0.693520 -0.707107 -0.137950
vn 0.375330 -0.923880 -0.074658
vn 0.000000 -1.000000 -0.000000
vn -0.375330 -0.923880 0.074658
vn -0.693520 -0.707107 0.137950
vn -0.906127 -0.382683 0.180240
vn -1.000000 0.000000 0.000000
vn -0.923880 0.382683 0.000000
vn -0.707107 0.707107 0.000000
vn -0.382683 0.923880 0.000000
vn -0.000000 1.000000 0.000000
vn 0.382683 0.923880 -0.000000
vn 0.707107 0.707107 -0.000000
vn 0.923880 0.382683 -0.000000
vn 1.000000 0.000000 -0.000000
vn 0.923880 -0.382683 -0.000000
vn 0.707107 -0.707107 -0.000000
vn 0.382683 -0.923880 -0.000000
vn 0.000000 -1.000000 -0.000000
vn -0.382683 -0.923880 0.000000
vn -0.707107 -0.707107 0.000000
vn -0.923880 -0.382683 0.000000
vn -0.980785 0.000000 -0.195090
vn -0.906127 0.382683 -0.180240
vn -0.693520 0.707107 -0.137950
vn -0.375330 0.923880 -0.074658
vn -0.000000 1.000000 -0.000000
vn 0.375330 0.923880 0.074658
vn 0.693520 0.707107 0.137950
vn 0.906127 0.382683 0.180240
vn 0.980785 0.000000 0.195090
vn 0.906127 -0.382683 0.180240
vn 0.693520 -0.707107 0.137950
vn 0.375330 -0.923880 0.074658
vn 0.000000 -1.000000 0.000000
vn -0.375330 -0.923880 -0.074658
vn -0.693520 -0.707107 -0.137950
vn -0.906127 -0.382683 -0.180240
vn -0.923880 0.000000 -0.382683
vn -0.853553 0.382683 -0.353553
vn -0.653281 0.707107 -0.270598
vn -0.353553 0.923880 -0.146447
vn -0.000000 1.000000 -0.000000
vn 0.353553 0.923880 0.146447
vn 0.653281 0.707107 0.270598
vn 0.853553 0.382683 0.353553
vn 0.923880 0.000000 0.382683
vn 0.853553 -0.382683 0.353553
vn 0.653281 -0.707107 0.270598
vn 0.353553 -0.923880 0.146447
vn 0.000000 -1.000000 0.000000
vn -0.353553 -0.923880 -0.146447
vn -0.653281 -0.707107 -0.270598
vn -0.853553 -0.382683 -0.353553
vn -0.831470 0.000000 -0.555570
vn -0.768178 0.382683 -0.513280
vn -0.587938 0.707107 -0.392847
vn -0.318190 0.923880 -0.212608
vn -0.000000 1.000000 -0.000000
vn 0.318190 0.923880 0.212608
vn 0.587938 0.707107 0.392847
vn 0.768178 0.382683 0.513280
vn 0.831470 0.000000 0.555570
vn 0.768178 -0.382683 0.513280
vn 0.587938 -0.707107 0.392847
vn 0.318190 -0.923880 0.212608
vn 0.000000 -1.000000 0.000000
vn -0.318190 -0.923880 -0.212608
vn -0.587938 -0.707107 -0.392847
vn -0.768178 -0.382683 -0.513280
vn -0.707107 0.000000 -0.707107
vn -0.653281 0.382683 -0.653281
vn -0.500000 0.707107 -0.500000
vn -0.270598 0.923880 -0.270598
vn -0.000000 1.000000 -0.000000
vn 0.270598 0.923880 0.270598
vn 0.500000 0.707107 0.500000
vn 0.653281 0.382683 0.653281
vn 0.707107 0.000000 0.707107
vn 0.653281 -0.382683 0.653281
vn 0.500000 -0.707107 0.500000
vn 0.270598 -0.923880 0.270598
vn 0.000000 -1.000000 0.000000
vn -0.270598 -0.923880 -0.270598
vn -0.500000 -0.707107 -0.500000
vn -0.653281 -0.382683 -0.653281
vn -0.555570 0.000000 -0.831470
vn -0.513280 0.382683 -0.768178
vn -0.392847 0.707107 -0.587938
vn -0.212608 0.923880 -0.318190
vn -0.000000 1.000000 -0.000000
vn 0.212608 0.923880 0.318190
vn 0.392847 0.707107 0.587938
vn 0.513280 0.382683 0.768178
vn 0.555570 0.000000 0.831470
vn 0.513280 -0.382683 0.768178
vn 0.392847 -0.707107 0.587938
vn 0.212608 -0.923880 0.318190
vn 0.000000 -1.000000 0.000000
vn -0.212608 -0.923880 -0.318190
vn -0.392847 -0.707107 -0.587938
vn -0.513280 -0.382683 -0.768178
vn -0.382683 0.000000 -0.923880
vn -0.353553 0.382683 -0.853553
vn -0.270598 0.707107 -0.653281
vn -0.146447 0.923880 -0.353553
vn -0.000000 1.000000 -0.000000
vn 0.146447 0.923880 0.353553
vn 0.270598 0.707107 0.653281
vn 0.353553 0.382683 0.853553
vn 0.382683 0.000000 0.923880
vn 0.353553 -0.382683 0.853553
vn 0.270598 -0.707107 0.653281
vn 0.146447 -0.923880 0.353553
vn 0.000000 -1.000000 0.000000
vn -0.146447 -0.923880 -0.353553
vn -0.270598 -0.707107 -0.653281
vn -0.353553 -0.382683 -0.853553
vn -0.195090 0.000000 -0.980785
vn -0.180240 0.382683 -0.906127
vn -0.137950 0.707107 -0.693520
vn -0.074658 0.923880 -0.375330
vn -0.000000 1.000000 -0.000000
vn 0.074658 0.923880 0.375330
vn 0.137950 0.707107 0.693520
vn 0.180240 0.382683 0.906127
vn 0.195090 0.000000 0.980785
vn 0.180240 -0.382683 0.906127
vn 0.137950 -0.707107 0.693520
vn 0.074658 -0.923880 0.375330
vn 0.000000 -1.000000 0.000000
vn -0.074658 -0.923880 -0.375330
vn -0.137950 -0.707107 -0.693520
vn -0.180240 -0.382683 -0.906127
vn -0.000000 0.000000 -1.000000
vn -0.000000 0.382683 -0.923880
vn -0.000000 0.707107 -0.707107
vn -0.000000 0.923880 -0.382683
vn -0.000000 1.000000 -0.000000
vn 0.000000 0.923880 0.382683
vn 0.000000 0.707107 0.707107
vn 0.000000 0.382683 0.923880
vn 0.000000 0.000000 1.000000
vn 0.000000 -0.382683 0.923880
vn 0.000000 -0.707107 0.707107
vn 0.000000 -0.923880 0.382683
vn 0.000000 -1.000000 0.000000
vn -0.000000 -0.923880 -0.382683
vn -0.000000 -0.707107 -0.707107
vn -0.000000 -0.382683 -0.923880
vn 0.195090 0.000000 -0.980785
vn 0.180240 0.382683 -0.906127
vn 0.137950 0.707107 -0.693520
vn 0.074658 0.923880 -0.375330
vn 0.000000 1.000000 -0.000000
vn -0.074658 0.923880 0.375330
vn -0.137950 0.707107 0.693520
vn -0.180240 0.382683 0.906127
vn -0.195090 0.000000 0.980785
vn -0.180240 -0.382683 0.906127
vn -0.137950 -0.707107 0.693520
vn -0.074658 -0.923880 0.375330
vn -0.000000 -1.000000 0.000000
vn 0.074658 -0.923880 -0.375330
vn 0.137950 -0.707107 -0.693520
vn 0.180240 -0.382683 -0.906127
vn 0.382683 0.000000 -0.923880
vn 0.353553 0.382683 -0.853553
vn 0.270598 0.707107 -0.653281
vn 0.146447 0.923880 -0.353553
vn 0.000000 1.000000 -0.000000
vn -0.146447 0.923880 0.353553
vn -0.270598 0.707107 0.653281
vn -0.353553 0.382683 0.853553
vn -0.382683 0.000000 0.923880
vn -0.353553 -0.382683 0.853553
vn -0.270598 -0.707107 0.653281
vn -0.146447 -0.923880 0.353553
vn -0.000000 -1.000000 0.000000
vn 0.146447 -0.923880 -0.353553
vn 0.270598 -0.707107 -0.653281
vn 0.353553 -0.382683 -0.853553
vn 0.555570 0.000000 -0.831470
vn 0.513280 0.382683 -0.768178
vn 0.392847 0.707107 -0.587938
vn 0.212608 0.923880 -0.318190
vn 0.000000 1.000000 -0.000000
vn -0.212608 0.923880 0.318190
vn -0.392847 0.707107 0.587938
vn -0.513280 0.382683 0.768178
vn -0.555570 0.000000 0.831470
vn -0.513280 -0.382683 0.768178
vn -0.392847 -0.707107 0.587938
vn -0.212608 -0.923880 0.318190
vn -0.000000 -1.000000 0.000000
vn 0.212608 -0.923880 -0.318190
vn 0.392847 -0.707107 -0.587938
vn 0.513280 -0.382683 -0.768178
vn 0.707107 0.000000 -0.707107
vn 0.653281 0.382683 -0.653281
vn 0.500000 0.707107 -0.500000
vn 0.270598 0.923880 -0.270598
vn 0.000000 1.000000 -0.000000
vn -0.270598 0.923880 0.270598
vn -0.500000 0.707107 0.500000
vn -0.653281 0.382683 0.653281
vn -0.707107 0.000000 0.707107
vn -0.653281 -0.382683 0.653281
vn -0.500000 -0.707107 0.500000
vn -0.270598 -0.923880 0.270598
vn -0.000000 -1.000000 0.000000
vn 0.270598 -0.923880 -0.270598
vn 0.500000 -0.707107 -0.500000
vn 0.653281 -0.382683 -0.653281
vn 0.831470 0.000000 -0.555570
vn 0.768178 0.382683 -0.513280
vn 0.587938 0.707107 -0.392847
vn 0.318190 0.923880 -0.212608
vn 0.000000 1.000000 -0.000000
vn -0.318190 0.923880 0.212608
vn -0.587938 0.707107 0.392847
vn -0.768178 0.382683 0.513280
vn -0.831470 0.000000 0.555570
vn -0.768178 -0.382683 0.513280
vn -0.587938 -0.707107 0.392847
vn -0.318190 -0.923880 0.212608
vn -0.000000 -1.000000 0.000000
vn 0.318190 -0.923880 -0.212608
vn 0.587938 -0.707107 -0.392847
vn 0.768178 -0.382683 -0.513280
vn 0.923880 0.000000 -0.382683
vn 0.853553 0.382683 -0.353553
vn 0.653281 0.707107 -0.270598
vn 0.353553 0.923880 -0.146447
vn 0.000000 1.000000 -0.000000
vn -0.353553 0.923880 0.146447
vn -0.653281 0.707107 0.270598
vn -0.853553 0.382683 0.353553
vn -0.923880 0.000000 0.382683
vn -0.853553 -0.382683 0.353553
vn -0.653281 -0.707107 0.270598
vn -0.353553 -0.923880 0.146447
vn -0.000000 -1.000000 0.000000
vn 0.353553 -0.923880 -0.146447
vn 0.653281 -0.707107 -0.270598
vn 0.853553 -0.382683 -0.353553
vn 0.980785 0.000000 -0.195090
vn 0.906127 0.382683 -0.180240
vn 0.693520 0.707107 -0.137950
vn 0.375330 0.923880 -0.074658
vn 0.000000 1.000000 -0.000000
vn -0.375330 0.923880 0.074658
vn -0.693520 0.707107 0.137950
vn -0.906127 0.382683 0.180240
vn -0.980785 0.000000 0.195090
vn -0.906127 -0.382683 0.180240
vn -0.693520 -0.707107 0.137950
vn -0.375330 -0.923880 0.074658
vn -0.000000 -1.000000 0.000000
vn 0.375330 -0.923880 -0.074658
vn 0.693520 -0.707107 -0.137950
vn 0.906127 -0.382683 -0.180240
f 1//1 17//17 18//18
f 1//1 18//18 2//2
f 2//2 18//18 19//19
f 2//2 19//19 3//3
f 3//3 19//19 20//20
f 3//3 20//20 4//4
f 4//4 20//20 21//21
f 4//4 21//21 5//5
f 5//5 21//21 22//22
f 5//5 22//22 6//6
f 6//6 22//22 23//23
f 6//6 23//23 7//7
f 7//7 23//23 24//24
f 7//7 24//24 8//8
f 8//8 24//24 25//25
f 8//8 25//25 9//9
f 9//9 25//25 26//26
f 9//9 26//26 10//10
f 10//10 26//26 27//27
f 10//10 27//27 11//11
f 11//11 27//27 28//28
f 11//11 28//28 12//12
f 12//12 28//28 29//29
f 12//12 29//29 13//13
f 13//13 29//29 30//30
f 13//13 30//30 14//14
f 14//14 30//30 31//31
f 14//14 31//31 15//15
f 15//15 31//31 32//32
f 15//15 32//32 16//16
f 16//16 32//32 17//17
f 16//16 17//17 1//1
f 17//17 33//33 34//34
f 17//17 34//34 18//18
f 18//18 34//34 35//35
f 18//18 35//35 19//19
f 19//19 35//35 36//36
f 19//19 36//36 20//20
f 20//20 36//36 37//37
f 20//20 37//37 21//21
f 21//21 37//37 38//38
f 21//21 38//38 22//22
f 22//22 38//38 39//39
f 22//22 39//39 23//23
f 23//23 39//39 40//40
f 23//23 40//40 24//24
f 24//24 40//40 41//41
f 24//24 41//41 25//25
f 25//25 41//41 42//42
f 25//25 42//42 26//26
f 26//26 42//42 43//43
f 26//26 43//43 27//27
f 27//27 43//43 44//44
f 27//27 44//44 28//28
f 28//28 44//44 45//45
f 28//28 45//45 29//29
f 29//29 45//45 46//46
f 29//29 46//46 30//30
f 30//30 46//46 47//47
f 30//30 47//47 31//31
f 31//31 47//47 48//48
f 31//31 48//48 32//32
f 32//32 48//48 33//33
f 32//32 33//33 17//17
f 33//33 49//49 50//50
f 33//33 50//50 34//34
f 34//34 50//50 51//51
f 34//34 51//51 35//35
f 35//35 51//51 52//52
f 35//35 52//52 36//36
f 36//36 52//52 53//53
f 36//36 53//53 37//37
f 37//37 53//53 54//54
f 37//37 54//54 38//38
f 38//38 54//54 55//55
f 38//38 55//55 39//39
f 39//39 55//55 56//56
f 39//39 56//56 40//40
f 40//40 56//56 57//57
f 40//40 57//57 41//41
f 41//41 57//57 58//58
f 41//41 58//58 42//42
f 42//42 58//58 59//59
f 42//42 59//59 43//43
f 43//43 59//59 60//60
f 43//43 60//60 44//44
f 44//44 60//60 61//61
f 44//44 61//61 45//45
f 45//45 61//61 62//62
f 45//45 62//62 46//46
f 46//46 62//62 63//63
f 46//46 63//63 47//47
f 47//47 63//63 64//64
f 47//47 64//64 48//48
f 48//48 64//64 49//49
f 48//48 49//49 33//33
f 49//49 65//65 66//66
f 49//49 66//66 50//50
f 50//50 66//66 67//67
f 50//50 67//67 51//51
f 51//51 67//67 68//68
f 51//51 68//68 52//52
f 52//52 68//68 69//69
f 52//52 69//69 53//53
f 53//53 69//69 70//70
f 53//53 70//70 54//54
f 54//54 70//70 71//71
f 54//54 71//71 55//55
f 55//55 71//71 72//72
f 55//55 72//72 56//56
f 56//56 72//72 73//73
f 56//56 73//73 57//57
f 57//57 73//73 74//74
f 57//57 74//74 58//58
f 58//58 74//74 75//75
f 58//58 75//75 59//59
f 59//59 75//75 76//76
f 59//59 76//76 60//60
f 60//60 76//76 77//77
f 60//60 77//77 61//61
f 61//61 77//77 78//78
f 61//61 78//78 62//62
f 62//62 78//78 79//79
f 62//62 79//79 63//63
f 63//63 79//79 80//80
f 63//63 80//80 64//64
f 64//64 80//80 65//65
f 64//64 65//65 49//49
f 65//65 81//81 82//82
f 65//65 82//82 66//66
f 66//66 82//82 83//83
f 66//66 83//83 67//67
f 67//67 83//83 84//84
f 67//67 84//84 68//68
f 68//68 84//84 85//85
f 68//68 85//85 69//69
f 69//69 85//85 86//86
f 69//69 86//86 70//70
f 70//70 86//86 87//87
f 70//70 87//87 71//71
f 71//71 87//87 88//88
f 71//71 88//88 72//72
f 72//72 88//88 89//89
f 72//72 89//89 73//73
f 73//73 89//89 90//90
f 73//73 90//90 74//74
f 74//74 90//90 91//91
f 74//74 91//91 75//75
f 75//75 91//91 92//92
f 75//75 92//92 76//76
f 76//76 92//92 93//93
f 76//76 93//93 77//77
f 77//77 93//93 94//94
f 77//77 94//94 78//78
f 78//78 94//94 95//95
f 78//78 95//95 79//79
f 79//79 95//95 96//96
f 79//79 96//96 80//80
f 80//80 96//96 81//81
f 80//80 81//81 65//65
f 81//81 97//97 98//98
f 81//81 98//98 82//82
f 82//82 98//98 99//99
f 82//82 99//99 83//83
f 83//83 99//99 100//100
f 83//83 100//100 84//84
f 84//84 100//100 101//101
f 84//84 101//101 85//85
f 85//85 101//101 102//102
f 85//85 102//102 86//86
f 86//86 102//102 103//103
f 86//86 103//103 87//87
f 87//87 103//103 104//104
f 87//87 104//104 88//88
f 88//88 104//104 105//105
f 88//88 105//105 89//89
f 89//89 105//105 106//106
f 89//89 106//106 90//90
f 90//90 106//106 107//107
f 90//90 107//107 91//91
f 91//91 107//107 108//108
f 91//91 108//108 92//92
f 92//92 108//108 109//109
f 92//92 109//109 93//93
f 93//93 109//109 110//110
f 93//93 110//110 94//94
f 94//94 110//110 111//111
f 94//94 111//111 95//95
f 95//95 111//111 112//112
f 95//95 112//112 96//96
f 96//96 112//112 97//97
f 96//96 97//97 81//81
f 97//97 113//113 114//114
f 97//97 114//114 98//98
f 98//98 114//114 115//115
f 98//98 115//115 99//99
f 99//99 115//115 116//116
f 99//99 116//116 100//100
f 100//100 116//116 117//117
f 100//100 117//117 101//101
f 101//101 117//117 118//118
f 101//101 118//118 102//102
f 102//102 118//118 119//119
f 102//102 119//119 103//103
f 103//103 119//119 120//120
f 103//103 120//120 104//104
f 104//104 120//120 121//121
f 104//104 121//121 105//105
f 105//105 121//121 122//122
f 105//105 122//122 106//106
f 106//106 122//122 123//123
f 106//106 123//123 107//107
f 107//107 123//123 124//124
f 107//107 124//124 108//108
f 108//108 124//124 125//125
f 108//108 125//125 109//109
f 109//109 125//125 126//126
f 109//109 126//126 110//110
f 110//110 126//126 127//127
f 110//110 127//127 111//111
f 111//111 127//127 128//128
f 111//111 128//128 112//112
f 112//112 128//128 113//113
f 112//112 113//113 97//97
f 113//113 129//129 130//130
f 113//113 130//130 114//114
f 114//114 130//130 131//131
f 114//114 131//131 115//115
f 115//115 131//131 132//132
f 115//115 132//132 116//116
f 116//116 132//132 133//133
f 116//116 133//133 117//117
f 117//117 133//133 134//134
f 117//117 134//134 118//118
f 118//118 134//134 135//135
f 118//118 135//135 119//119
f 119//119 135//135 136//136
f 119//119 136//136 120//120
f 120//120 136//136 137//137
f 120//120 137//137 121//121
f 121//121 137//137 138//138
f 121//121 138//138 122//122
f 122//122 138//138 139//139
f 122//122 139//139 123//123
f 123//123 139//139 140//140
f 123//123 140//140 124//124
f 124//124 140//140 141//141
f 124//124 141//141 125//125
f 125//125 141//141 142//142
f 125//125 142//142 126//126
f 126//126 142//142 143//143
f 126//126 143//143 127//127
f 127//127 143//143 144//144
f 127//127 144//144 128//128
f 128//128 144//144 129//129
f 128//128 129//129 113//113
f 129//129 145//145 146//146
f 129//129 146//146 130//130
f 130//130 146//146 147//147
f 130//130 147//147 131//131
f 131//131 147//147 148//148
f 131//131 148//148 132//132
f 132//132 148//148 149//149
f 132//132 149//149 133//133
f 133//133 149//149 150//150
f 133//133 150//150 134//134
f 134//134 150//150 151//151
f 134//134 151//151 135//135
f 135//135 151//151 152//152
f 135//135 152//152 136//136
f 136//136 152//152 153//153
f 136//136 153//153 137//137
f 137//137 153//153 154//154
f 137//137 154//154 138//138
f 138//138 154//154 155//155
f 138//138 155//155 139//139
f 139//139 155//155 156//156
f 139//139 156//156 140//140
f 140//140 156//156 157//157
f 140//140 157//157 141//141
f 141//141 157//157 158//158
f 141//141 158//158 142//142
f 142//142 158//158 159//159
f 142//142 159//159 143//143
f 143//143 159//159 160//160
f 143//143 160//160 144//144
f 144//144 160//160 145//145
f 144//144 145//145 129//129
f 145//145 161//161 162//162
f 145//145 162//162 146//146
f 146//146 162//162 163//163
f 146//146 163//163 147//147
f 147//147 163//163 164//164
f 147//147 164//164 148//148
f 148//148 164//164 165//165
f 148//148 165//165 149//149
f 149//149 165//165 166//166
f 149//149 166//166 150//150
f 150//150 166//166 167//167
f 150//150 167//167 151//151
f 151//151 167//167 168//168
f 151//151 168//168 152//152
f 152//152 168//168 169//169
f 152//152 169//169 153//153
f 153//153 169//169 170//170
f 153//153 170//170 154//154
f 154//154 170//170 171//171
f 154//154 171//171 155//155
f 155//155 171//171 172//172
f 155//155 172//172 156//156
f 156//156 172//172 173//173
f 156//156 173//173 157//157
f 157//157 173//173 174//174
f 157//157 174//174 158//158
f 158//158 174//174 175//175
f 158//158 175//175 159//159
f 159//159 175//175 176//176
f 159//159 176//176 160//160
f 160//160 176//176 161//161
f 160//160 161//161 145//145
f 161//161 177//177 178//178
f 161//161 178//178 162//162
f 162//162 178//178 179//179
f 162//162 179//179 163//163
f 163//163 179//179 180//180
f 163//163 180//180 164//164
f 164//164 180//180 181//181
f 164//164 181//181 165//165
f 165//165 181//181 182//182
f 165//165 182//182 166//166
f 166//166 182//182 183//183
f 166//166 183//183 167//167
f 167//167 183//183 184//184
f 167//167 184//184 168//168
f 168//168 184//184 185//185
f 168//168 185//185 169//169
f 169//169 185//185 186//186
f 169//169 186//186 170//170
f 170//170 186//186 187//187
f 170//170 187//187 171//171
f 171//171 187//187 188//188
f 171//171 188//188 172//172
f 172//172 188//188 189//189
f 172//172 189//189 173//173
f 173//173 189//189 190//190
f 173//173 190//190 174//174
f 174//174 190//190 191//191
f 174//174 191//191 175//175
f 175//175 191//191 192//192
f 175//175 192//192 176//176
f 176//176 192//192 177//177
f 176//176 177//177 161//161
f 177//177 193//193 194//194
f 177//177 194//194 178//178
f 178//178 194//194 195//195
f 178//178 195//195 179//179
f 179//179 195//195 196//196
f 179//179 196//196 180//180
f 180//180 196//196 197//197
f 180//180 197//197 181//181
f 181//181 197//197 198//198
f 181//181 198//198 182//182
f 182//182 198//198 199//199
f 182//182 199//199 183//183
f 183//183 199//199 200//200
f 183//183 200//200 184//184
f 184//184 200//200 201//201
f 184//184 201//201 185//185
f 185//185 201//201 202//202
f 185//185 202//202 186//186
f 186//186 202//202 203//203
f 186//186 203//203 187//187
f 187//187 203//203 204//204
f 187//187 204//204 188//188
f 188//188 204//204 205//205
f 188//188 205//205 189//189
f 189//189 205//205 206//206
f 189//189 206//206 190//190
f 190//190 206//206 207//207
f 190//190 207//207 191//191
f 191//191 207//207 208//208
f 191//191 208//208 192//192
f 192//192 208//208 193//193
f 192//192 193//193 177//177
f 193//193 209//209 210//210
f 193//193 210//210 194//194
f 194//194 210//210 211//211
f 194//194 211//211 195//195
f 195//195 211//211 212//212
f 195//195 212//212 196//196
f 196//196 212//212 213//213
f 196//196 213//213 197//197
f 197//197 213//213 214//214
f 197//197 214//214 198//198
f 198//198 214//214 215//215
f 198//198 215//215 199//199
f 199//199 215//215 216//216
f 199//199 216//216 200//200
f 200//200 216//216 217//217
f 200//200 217//217 201//201
f 201//201 217//217 218//218
f 201//201 218//218 202//202
f 202//202 218//218 219//219
f 202//202 219//219 203//203
f 203//203 219//219 220//220
f 203//203 220//220 204//204
f 204//204 220//220 221//221
f 204//204 221//221 205//205
f 205//205 221//221 222//222
f 205//205 222//222 206//206
f 206//206 222//222 223//223
f 206//206 223//223 207//207
f 207//207 223//223 224//224
f 207//207 224//224 208//208
f 208//208 224//224 209//209
f 208//208 209//209 193//193
f 209//209 225//225 226//226
f 209//209 226//226 210//210
f 210//210 226//226 227//227
f 210//210 227//227 211//211
f 211//211 227//227 228//228
f 211//211 228//228 212//212
f 212//212 228//228 229//229
f 212//212 229//229 213//213
f 213//213 229//229 230//230
f 213//213 230//230 214//214
f 214//214 230//230 231//231
f 214//214 231//231 215//215
f 215//215 231//231 232//232
f 215//215 232//232 216//216
f 216//216 232//232 233//233
f 216//216 233//233 217//217
f 217//217 233//233 234//234
f 217//217 234//234 218//218
f 218//218 234//234 235//235
f 218//218 235//235 219//219
f 219//219 235//235 236//236
f 219//219 236//236 220//220
f 220//220 236//236 237//237
f 220//220 237//237 221//221
f 221//221 237//237 238//238
f 221//221 238//238 222//222
f 222//222 238//238 239//239
f 222//222 239//239 223//223
f 223//223 239//239 240//240
f 223//223 240//240 224//224
f 224//224 240//240 225//225
f 224//224 225//225 209//209
f 225//225 241//241 242//242
f 225//225 242//242 226//226
f 226//226 242//242 243//243
f 226//226 243//243 227//227
f 227//227 243//243 244//244
f 227//227 244//244 228//228
f 228//228 244//244 245//245
f 228//228 245//245 229//229
f 229//229 245//245 246//246
f 229//229 246//246 230//230
f 230//230 246//246 247//247
f 230//230 247//247 231//231
f 231//231 247//247 248//248
f 231//231 248//248 232//232
f 232//232 248//248 249//249
f 232//232 249//249 233//233
f 233//233 249//249 250//250
f 233//233 250//250 234//234
f 234//234 250//250 251//251
f 234//234 251//251 235//235
f 235//235 251//251 252//252
f 235//235 252//252 236//236
f 236//236 252//252 253//253
f 236//236 253//253 237//237
f 237//237 253//253 254//254
f 237//237 254//254 238//238
f 238//238 254//254 255//255
f 238//238 255//255 239//239
f 239//239 255//255 256//256
f 239//239 256//256 240//240
f 240//240 256//256 241//241
f 240//240 241//241 225//225
f 241//241 257//257 258//258
f 241//241 258//258 242//242
f 242//242 258//258 259//259
f 242//242 259//259 243//243
f 243//243 259//259 260//260
f 243//243 260//260 244//244
f 244//244 260//260 261//261
f 244//244 261//261 245//245
f 245//245 261//261 262//262
f 245//245 262//262 246//246
f 246//246 262//262 263//263
f 246//246 263//263 247//247
f 247//247 263//263 264//264
f 247//247 264//264 248//248
f 248//248 264//264 265//265
f 248//248 265//265 249//249
f 249//249 265//265 266//266
f 249//249 266//266 250//250
f 250//250 266//266 267//267
f 250//250 267//267 251//251
f 251//251 267//267 268//268
f 251//251 268//268 252//252
f 252//252 268//268 269//269
f 252//252 269//269 253//253
f 253//253 269//269 270//270
f 253//253 270//270 254//254
f 254//254 270//270 271//271
f 254//254 271//271 255//255
f 255//255 271//271 272//272
f 255//255 272//272 256//256
f 256//256 272//272 257//257
f 256//256 257//257 241//241
f 257//257 273//273 274//274
f 257//257 274//274 258//258
f 258//258 274//274 275//275
f 258//258 275//275 259//259
f 259//259 275//275 276//276
f 259//259 276//276 260//260
f 260//260 276//276 277//277
f 260//260 277//277 261//261
f 261//261 277//277 278//278
f 261//261 278//278 262//262
f 262//262 278//278 279//279
f 262//262 279//279 263//263
f 263//263 279//279 280//280
f 263//263 280//280 264//264
f 264//264 280//280 281//281
f 264//264 281//281 265//265
f 265//265 281//281 282//282
f 265//265 282//282 266//266
f 266//266 282//282 283//283
f 266//266 283//283 267//267
f 267//267 283//283 284//284
f 267//267 284//284 268//268
f 268//268 284//284 285//285
f 268//268 285//285 269//269
f 269//269 285//285 286//286
f 269//269 286//286 270//270
f 270//270 286//286 287//287
f 270//270 287//287 271//271
f 271//271 287//287 288//288
f 271//271 288//288 272//272
f 272//272 288//288 273//273
f 272//272 273//273 257//257
f 273//273 289//289 290//290
f 273//273 290//290 274//274
f 274//274 290//290 291//291
f 274//274 291//291 275//275
f 275//275 291//291 292//292
f 275//275 292//292 276//276
f 276//276 292//292 293//293
f 276//276 293//293 277//277
f 277//277 293//293 294//294
f 277//277 294//294 278//278
f 278//278 294//294 295//295
f 278//278 295//295 279//279
f 279//279 295//295 296//296
f 279//279 296//296 280//280
f 280//280 296//296 297//297
f 280//280 297//297 281//281
f 281//281 297//297 298//298
f 281//281 298//298 282//282
f 282//282 298//298 299//299
f 282//282 299//299 283//283
f 283//283 299//299 300//300
f 283//283 300//300 284//284
f 284//284 300//300 301//301
f 284//284 301//301 285//285
f 285//285 301//301 302//302
f 285//285 302//302 286//286
f 286//286 302//302 303//303
f 286//286 303//303 287//287
f 287//287 303//303 304//304
f 287//287 304//304 288//288
f 288//288 304//304 289//289
f 288//288 289//289 273//273
f 289//289 305//305 306//306
f 289//289 306//306 290//290
f 290//290 306//306 307//307
f 290//290 307//307 291//291
f 291//291 307//307 308//308
f 291//291 308//308 292//292
f 292//292 308//308 309//309
f 292//292 309//309 293//293
f 293//293 309//309 310//310
f 293//293 310//310 294//294
f 294//294 310//310 311//311
f 294//294 311//311 295//295
f 295//295 311//311 312//312
f 295//295 312//312 296//296
f 296//296 312//312 313//313
f 296//296 313//313 297//297
f 297//297 313//313 314//314
f 297//297 314//314 298//298
f 298//298 314//314 315//315
f 298//298 315//315 299//299
f 299//299 315//315 316//316
f 299//299 316//316 300//300
f 300//300 316//316 317//317
f 300//300 317//317 301//301
f 301//301 317//317 318//318
f 301//301 318//318 302//302
f 302//302 318//318 319//319
f 302//302 319//319 303//303
f 303//303 319//319 320//320
f 303//303 320//320 304//304
f 304//304 320//320 305//305
f 304//304 305//305 289//289
f 305//305 321//321 322//322
f 305//305 322//322 306//306
f 306//306 322//322 323//323
f 306//306 323//323 307//307
f 307//307 323//323 324//324
f 307//307 324//324 308//308
f 308//308 324//324 325//325
f 308//308 325//325 309//309
f 309//309 325//325 326//326
f 309//309 326//326 310//310
f 310//310 326//326 327//327
f 310//310 327//327 311//311
f 311//311 327//327 328//328
f 311//311 328//328 312//312
f 312//312 328//328 329//329
f 312//312 329//329 313//313
f 313//313 329//329 330//330
f 313//313 330//330 314//314
f 314//314 330//330 331//331
f 314//314 331//331 315//315
f 315//315 331//331 332//332
f 315//315 332//332 316//316
f 316//316 332//332 333//333
f 316//316 333//333 317//317
f 317//317 333//333 334//334
f 317//317 334//334 318//318
f 318//318 334//334 335//335
f 318//318 335//335 319//319
f 319//319 335//335 336//336
f 319//319 336//336 320//320
f 320//320 336//336 321//321
f 320//320 321//321 305//305
f 321//321 337//337 338//338
f 321//321 338//338 322//322
f 322//322 338//338 339//339
f 322//322 339//339 323//323
f 323//323 339//339 340//340
f 323//323 340//340 324//324
f 324//324 340//340 341//341
f 324//324 341//341 325//325
f 325//325 341//341 342//342
f 325//325 342//342 326//326
f 326//326 342//342 343//343
f 326//326 343//343 327//327
f 327//327 343//343 344//344
f 327//327 344//344 328//328
f 328//328 344//344 345//345
f 328//328 345//345 329//329
f 329//329 345//345 346//346
f 329//329 346//346 330//330
f 330//330 346//346 347//347
f 330//330 347//347 331//331
f 331//331 347//347 348//348
f 331//331 348//348 332//332
f 332//332 348//348 349//349
f 332//332 349//349 333//333
f 333//333 349//349 350//350
f 333//333 350//350 334//334
f 334//334 350//350 351//351
f 334//334 351//351 335//335
f 335//335 351//351 352//352
f 335//335 352//352 336//336
f 336//336 352//352 337//337
f 336//336 337//337 321//321
f 337//337 353//353 354//354
f 337//337 354//354 338//338
f 338//338 354//354 355//355
f 338//338 355//355 339//339
f 339//339 355//355 356//356
f 339//339 356//356 340//340
f 340//340 356//356 357//357
f 340//340 357//357 341//341
f 341//341 357//357 358//358
f 341//341 358//358 342//342
f 342//342 358//358 359//359
f 342//342 359//359 343//343
f 343//343 359//359 360//360
f 343//343 360//360 344//344
f 344//344 360//360 361//361
f 344//344 361//361 345//345
f 345//345 361//361 362//362
f 345//345 362//362 346//346
f 346//346 362//362 363//363
f 346//346 363//363 347//347
f 347//347 363//363 364//364
f 347//347 364//364 348//348
f 348//348 364//364 365//365
f 348//348 365//365 349//349
f 349//349 365//365 366//366
f 349//349 366//366 350//350
f 350//350 366//366 367//367
f 350//350 367//367 351//351
f 351//351 367//367 368//368
f 351//351 368//368 352//352
f 352//352 368//368 353//353
f 352//352 353//353 337//337
f 353//353 369//369 370//370
f 353//353 370//370 354//354
f 354//354 370//370 371//371
f 354//354 371//371 355//355
f 355//355 371//371 372//372
f 355//355 372//372 356//356
f 356//356 372//372 373//373
f 356//356 373//373 357//357
f 357//357 373//373 374//374
f 357//357 374//374 358//358
f 358//358 374//374 375//375
f 358//358 375//375 359//359
f 359//359 375//375 376//376
f 359//359 376//376 360//360
f 360//360 376//376 377//377
f 360//360 377//377 361//361
f 361//361 377//377 378//378
f 361//361 378//378 362//362
f 362//362 378//378 379//379
f 362//362 379//379 363//363
f 363//363 379//379 380//380
f 363//363 380//380 364//364
f 364//364 380//380 381//381
f 364//364 381//381 365//365
f 365//365 381//381 382//382
f 365//365 382//382 366//366
f 366//366 382//382 383//383
f 366//366 383//383 367//367
f 367//367 383//383 384//384
f 367//367 384//384 368//368
f 368//368 384//384 369//369
f 368//368 369//369 353//353
f 369//369 385//385 386//386
f 369//369 386//386 370//370
f 370//370 386//386 387//387
f 370//370 387//387 371//371
f 371//371 387//387 388//388
f 371//371 388//388 372//372
f 372//372 388//388 389//389
f 372//372 389//389 373//373
f 373//373 389//389 390//390
f 373//373 390//390 374//374
f 374//374 390//390 391//391
f 374//374 391//391 375//375
f 375//375 391//391 392//392
f 375//375 392//392 376//376
f 376//376 392//392 393//393
f 376//376 393//393 377//377
f 377//377 393//393 394//394
f 377//377 394//394 378//378
f 378//378 394//394 395//395
f 378//378 395//395 379//379
f 379//379 395//395 396//396
f 379//379 396//396 380//380
f 380//380 396//396 397//397
f 380//380 397//397 381//381
f 381//381 397//397 398//398
f 381//381 398//398 382//382
f 382//382 398//398 399//399
f 382//382 399//399 383//383
f 383//383 399//399 400//400
f 383//383 400//400 384//384
f 384//384 400//400 385//385
f 384//384 385//385 369//369
f 385//385 401//401 402//402
f 385//385 402//402 386//386
f 386//386 402//402 403//403
f 386//386 403//403 387//387
f 387//387 403//403 404//404
f 387//387 404//404 388//388
f 388//388 404//404 405//405
f 388//388 405//405 389//389
f 389//389 405//405 406//406
f 389//389 406//406 390//390
f 390//390 406//406 407//407
f 390//390 407//407 391//391
f 391//391 407//407 408//408
f 391//391 408//408 392//392
f 392//392 408//408 409//409
f 392//392 409//409 393//393
f 393//393 409//409 410//410
f 393//393 410//410 394//394
f 394//394 410//410 411//411
f 394//394 411//411 395//395
f 395//395 411//411 412//412
f 395//395 412//412 396//396
f 396//396 412//412 413//413
f 396//396 413//413 397//397
f 397//397 413//413 414//414
f 397//397 414//414 398//398
f 398//398 414//414 415//415
f 398//398 415//415 399//399
f 399//399 415//415 416//416
f 399//399 416//416 400//400
f 400//400 416//416 401//401
f 400//400 401//401 385//385
f 401//401 417//417 418//418
f 401//401 418//418 402//402
f 402//402 418//418 419//419
f 402//402 419//419 403//403
f 403//403 419//419 420//420
f 403//403 420//420 404//404
f 404//404 420//420 421//421
f 404//404 421//421 405//405
f 405//405 421//421 422//422
f 405//405 422//422 406//406
f 406//406 422//422 423//423
f 406//406 423//423 407//407
f 407//407 423//423 424//424
f 407//407 424//424 408//408
f 408//408 424//424 425//425
f 408//408 425//425 409//409
f 409//409 425//425 426//426
f 409//409 426//426 410//410
f 410//410 426//426 427//427
f 410//410 427//427 411//411
f 411//411 427//427 428//428
f 411//411 428//428 412//412
f 412//412 428//428 429//429
f 412//412 429//429 413//413
f 413//413 429//429 430//430
f 413//413 430//430 414//414
f 414//414 430//430 431//431
f 414//414 431//431 415//415
f 415//415 431//431 432//432
f 415//415 432//432 416//416
f 416//416 432//432 417//417
f 416//416 417//417 401//401
f 417//417 433//433 434//434
f 417//417 434//434 418//418
f 418//418 434//434 435//435
f 418//418 435//435 419//419
f 419//419 435//435 436//436
f 419//419 436//436 420//420
f 420//420 436//436 437//437
f 420//420 437//437 421//421
f 421//421 437//437 438//438
f 421//421 438//438 422//422
f 422//422 438//438 439//439
f 422//422 439//439 423//423
f 423//423 439//439 440//440
f 423//423 440//440 424//424
f 424//424 440//440 441//441
f 424//424 441//441 425//425
f 425//425 441//441 442//442
f 425//425 442//442 426//426
f 426//426 442//442 443//443
f 426//426 443//443 427//427
f 427//427 443//443 444//444
f 427//427 444//444 428//428
f 428//428 444//444 445//445
f 428//428 445//445 429//429
f 429//429 445//445 446//446
f 429//429 446//446 430//430
f 430//430 446//446 447//447
f 430//430 447//447 431//431
f 431//431 447//447 448//448
f 431//431 448//448 432//432
f 432//432 448//448 433//433
f 432//432 433//433 417//417
f 433//433 449//449 450//450
f 433//433 450//450 434//434
f 434//434 450//450 451//451
f 434//434 451//451 435//435
f 435//435 451//451 452//452
f 435//435 452//452 436//436
f 436//436 452//452 453//453
f 436//436 453//453 437//437
f 437//437 453//453 454//454
f 437//437 454//454 438//438
f 438//438 454//454 455//455
f 438//438 455//455 439//439
f 439//439 455//455 456//456
f 439//439 456//456 440//440
f 440//440 456//456 457//457
f 440//440 457//457 441//441
f 441//441 457//457 458//458
f 441//441 458//458 442//442
f 442//442 458//458 459//459
f 442//442 459//459 443//443
f 443//443 459//459 460//460
f 443//443 460//460 444//444
f 444//444 460//460 461//461
f 444//444 461//461 445//445
f 445//445 461//461 462//462
f 445//445 462//462 446//446
f 446//446 462//462 463//463
f 446//446 463//463 447//447
f 447//447 463//463 464//464
f 447//447 464//464 448//448
f 448//448 464//464 449//449
f 448//448 449//449 433//433
f 449//449 465//465 466//466
f 449//449 466//466 450//450
f 450//450 466//466 467//467
f 450//450 467//467 451//451
f 451//451 467//467 468//468
f 451//451 468//468 452//452
f 452//452 468//468 469//469
f 452//452 469//469 453//453
f 453//453 469//469 470//470
f 453//453 470//470 454//454
f 454//454 470//470 471//471
f 454//454 471//471 455//455
f 455//455 471//471 472//472
f 455//455 472//472 456//456
f 456//456 472//472 473//473
f 456//456 473//473 457//457
f 457//457 473//473 474//474
f 457//457 474//474 458//458
f 458//458 474//474 475//475
f 458//458 475//475 459//459
f 459//459 475//475 476//476
f 459//459 476//476 460//460
f 460//460 476//476 477//477
f 460//460 477//477 461//461
f 461//461 477//477 478//478
f 461//461 478//478 462//462
f 462//462 478//478 479//479
f 462//462 479//479 463//463
f 463//463 479//479 480//480
f 463//463 480//480 464//464
f 464//464 480//480 465//465
f 464//464 465//465 449//449
f 465//465 481//481 482//482
f 465//465 482//482 466//466
f 466//466 482//482 483//483
f 466//466 483//483 467//467
f 467//467 483//483 484//484
f 467//467 484//484 468//468
f 468//468 484//484 485//485
f 468//468 485//485 469//469
f 469//469 485//485 486//486
f 469//469 486//486 470//470
f 470//470 486//486 487//487
f 470//470 487//487 471//471
f 471//471 487//487 488//488
f 471//471 488//488 472//472
f 472//472 488//488 489//489
f 472//472 489//489 473//473
f 473//473 489//489 490//490
f 473//473 490//490 474//474
f 474//474 490//490 491//491
f 474//474 491//491 475//475
f 475//475 491//491 492//492
f 475//475 492//492 476//476
f 476//476 492//492 493//493
f 476//476 493//493 477//477
f 477//477 493//493 494//494
f 477//477 494//494 478//478
f 478//478 494//494 495//495
f 478//478 495//495 479//479
f 479//479 495//495 496//496
f 479//479 496//496 480//480
f 480//480 496//496 481//481
f 480//480 481//481 465//465
f 481//481 497//497 498//498
f 481//481 498//498 482//482
f 482//482 498//498 499//499
f 482//482 499//499 483//483
f 483//483 499//499 500//500
f 483//483 500//500 484//484
f 484//484 500//500 501//501
f 484//484 501//501 485//485
f 485//485 501//501 502//502
f 485//485 502//502 486//486
f 486//486 502//502 503//503
f 486//486 503//503 487//487
f 487//487 503//503 504//504
f 487//487 504//504 488//488
f 488//488 504//504 505//505
f 488//488 505//505 489//489
f 489//489 505//505 506//506
f 489//489 506//506 490//490
f 490//490 506//506 507//507
f 490//490 507//507 491//491
f 491//491 507//507 508//508
f 491//491 508//508 492//492
f 492//492 508//508 509//509
f 492//492 509//509 493//493
f 493//493 509//509 510//510
f 493//493 510//510 494//494
f 494//494 510//510 511//511
f 494//494 511//511 495//495
f 495//495 511//511 512//512
f 495//495 512//512 496//496
f 496//496 512//512 497//497
f 496//496 497//497 481//481
f 497//497 1//1 2//2
f 497//497 2//2 498//498
f 498//498 2//2 3//3
f 498//498 3//3 499//499
f 499//499 3//3 4//4
f 499//499 4//4 500//500
f 500//500 4//4 5//5
f 500//500 5//5 501//501
f 501//501 5//5 6//6
f 501//501 6//6 502//502
f 502//502 6//6 7//7
f 502//502 7//7 503//503
f 503//503 7//7 8//8
f 503//503 8//8 504//504
f 504//504 8//8 9//9
f 504//504 9//9 505//505
f 505//505 9//9 10//10
f 505//505 10//10 506//506
f 506//506 10//10 11//11
f 506//506 11//11 507//507
f 507//507 11//11 12//12
f 507//507 12//12 508//508
f 508//508 12//12 13//13
f 508//508 13//13 509//509
f 509//509 13//13 14//14
f 509//509 14//14 510//510
f 510//510 14//14 15//15
f 510//510 15//15 511//511
f 511//511 15//15 16//16
f 511//511 16//16 512//512
f 512//512 16//16 1//1
f 512//512 1//1 497//497
