P3
64 64
255
25 23 20 25 23 20 25 23 20 25 23 20 25 23 20 25 23 20 25 23 20 25 23 20 25 23 20 25 23 20 25 23 20 25 23 20 25 23 20 25 23 20 162 118 70 162 118 70 162 118 70 162 118 70 223 171 111 223 171 111 223 171 111 162 118 70 162 118 70 162 118 70 162 118 70 223 171 111 223 171 111 223 171 111 223 171 111 162 118 70 162 118 70 162 118 70 162 118 70 
223 171 111 223 171 111 223 171 111 223 171 111 162 118 70 162 118 70 162 118 70 162 118 70 162 118 70 223 171 111 223 171 111 223 171 111 223 171 111 223 171 111 223 171 111 162 118 70 162 118 70 162 118 70 162 118 70 162 118 70 223 171 111 223 171 111 223 171 111 223 171 111 223 171 111 223 171 111 223 171 111 162 118 70 162 118 70 162 118 70 162 118 70 
25 23 20 25 23 20 25 23 20 25 23 20 25 23 20 25 23 20 25 23 20 25 23 20 25 23 20 25 23 20 25 23 20 25 23 20 25 23 20 25 23 20 162 118 70 162 118 70 162 118 70 162 118 70 223 171 111 223 171 111 223 171 111 162 118 70 162 118 70 162 118 70 162 118 70 223 171 111 223 171 111 223 171 111 223 171 111 162 118 70 162 118 70 162 118 70 162 118 70 
223 171 111 223 171 111 223 171 111 223 171 111 162 118 70 162 118 70 162 118 70 162 118 70 162 118 70 223 171 111 223 171 111 223 171 111 223 171 111 223 171 111 162 118 70 162 118 70 162 118 70 162 118 70 162 118 70 162 118 70 223 171 111 223 171 111 223 171 111 223 171 111 223 171 111 223 171 111 162 118 70 162 118 70 162 118 70 162 118 70 162 118 70 
25 23 20 25 23 20 25 23 20 25 23 20 25 23 20 25 23 20 25 23 20 25 23 20 25 23 20 25 23 20 25 23 20 25 23 20 25 23 20 25 23 20 25 23 20 162 118 70 162 118 70 162 118 70 223 171 111 223 171 111 223 171 111 162 118 70 162 118 70 162 118 70 162 118 70 223 171 111 223 171 111 223 171 111 223 171 111 162 118 70 162 118 70 162 118 70 75 74 72 
75 74 72 75 74 72 75 74 72 75 74 72 75 74 72 75 74 72 75 74 72 75 74 72 75 74 72 75 74 72 75 74 72 75 74 72 75 74 72 75 74 72 75 74 72 75 74 72 75 74 72 75 74 72 75 74 72 75 74 72 207 171 129 223 171 111 223 171 111 223 171 111 223 171 111 223 171 111 162 118 70 162 118 70 162 118 70 162 118 70 162 118 70 
25 23 20 25 23 20 25 23 20 25 23 20 25 23 20 25 23 20 25 23 20 25 23 20 25 23 20 25 23 20 25 23 20 25 23 20 25 23 20 25 23 20 25 23 20 162 118 70 162 118 70 162 118 70 223 171 111 223 171 111 223 171 111 162 118 70 162 118 70 162 118 70 162 118 70 223 171 111 223 171 111 223 171 111 223 171 111 162 118 70 162 118 70 162 118 70 75 74 72 
75 74 72 75 74 72 75 74 72 75 74 72 75 74 72 75 74 72 75 74 72 75 74 72 75 74 72 75 74 72 75 74 72 75 74 72 75 74 72 75 74 72 75 74 72 75 74 72 75 74 72 75 74 72 75 74 72 75 74 72 223 171 111 223 171 111 223 171 111 223 171 111 223 171 111 223 171 111 162 118 70 162 118 70 162 118 70 162 118 70 162 118 70 
25 23 20 25 23 20 25 23 20 25 23 20 25 23 20 25 23 20 25 23 20 25 23 20 25 23 20 25 23 20 25 23 20 25 23 20 25 23 20 25 23 20 25 23 20 162 118 70 162 118 70 162 118 70 223 171 111 223 171 111 223 171 111 162 118 70 162 118 70 162 118 70 162 118 70 223 171 111 223 171 111 223 171 111 223 171 111 162 118 70 162 118 70 162 118 70 75 74 72 
75 74 72 75 74 72 75 74 72 75 74 72 75 74 72 75 74 72 75 74 72 75 74 72 75 74 72 75 74 72 75 74 72 75 74 72 75 74 72 75 74 72 75 74 72 75 74 72 75 74 72 75 74 72 75 74 72 207 171 129 223 171 111 223 171 111 223 171 111 223 171 111 223 171 111 223 171 111 162 118 70 162 118 70 162 118 70 162 118 70 162 118 70 
25 23 20 25 23 20 25 23 20 25 23 20 25 23 20 25 23 20 25 23 20 25 23 20 25 23 20 25 23 20 25 23 20 25 23 20 25 23 20 25 23 20 25 23 20 162 118 70 162 118 70 162 118 70 223 171 111 223 171 111 223 171 111 162 118 70 162 118 70 162 118 70 162 118 70 223 171 111 223 171 111 223 171 111 223 171 111 162 118 70 162 118 70 162 118 70 75 74 72 
75 74 72 75 74 72 75 74 72 75 74 72 75 74 72 75 74 72 75 74 72 75 74 72 75 74 72 75 74 72 75 74 72 75 74 72 75 74 72 75 74 72 75 74 72 75 74 72 75 74 72 75 74 72 75 74 72 207 171 129 223 171 111 223 171 111 223 171 111 223 171 111 223 171 111 223 171 111 162 118 70 162 118 70 162 118 70 162 118 70 162 118 70 
25 23 20 25 23 20 25 23 20 25 23 20 25 23 20 25 23 20 25 23 20 25 23 20 25 23 20 25 23 20 25 23 20 25 23 20 25 23 20 25 23 20 25 23 20 162 118 70 162 118 70 162 118 70 223 171 111 223 171 111 223 171 111 162 118 70 162 118 70 162 118 70 162 118 70 223 171 111 223 171 111 223 171 111 223 171 111 162 118 70 162 118 70 162 118 70 75 74 72 
75 74 72 75 74 72 75 74 72 75 74 72 75 74 72 75 74 72 75 74 72 75 74 72 75 74 72 75 74 72 75 74 72 75 74 72 75 74 72 75 74 72 75 74 72 75 74 72 75 74 72 75 74 72 75 74 72 207 171 129 223 171 111 223 171 111 223 171 111 223 171 111 223 171 111 223 171 111 162 118 70 162 118 70 162 118 70 162 118 70 162 118 70 
25 23 20 25 23 20 25 23 20 25 23 20 25 23 20 25 23 20 25 23 20 25 23 20 25 23 20 25 23 20 25 23 20 25 23 20 25 23 20 25 23 20 25 23 20 162 118 70 162 118 70 162 118 70 223 171 111 223 171 111 223 171 111 162 118 70 162 118 70 162 118 70 162 118 70 223 171 111 223 171 111 223 171 111 223 171 111 162 118 70 162 118 70 162 118 70 75 74 72 
75 74 72 75 74 72 75 74 72 75 74 72 75 74 72 75 74 72 75 74 72 75 74 72 75 74 72 75 74 72 75 74 72 75 74 72 75 74 72 75 74 72 75 74 72 75 74 72 75 74 72 75 74 72 75 74 72 207 171 129 223 171 111 223 171 111 223 171 111 223 171 111 223 171 111 223 171 111 162 118 70 162 118 70 162 118 70 162 118 70 162 118 70 
25 23 20 25 23 20 25 23 20 25 23 20 25 23 20 25 23 20 25 23 20 25 23 20 25 23 20 25 23 20 25 23 20 25 23 20 25 23 20 25 23 20 25 23 20 162 118 70 162 118 70 162 118 70 223 171 111 223 171 111 223 171 111 223 171 111 162 118 70 162 118 70 162 118 70 223 171 111 223 171 111 223 171 111 223 171 111 162 118 70 162 118 70 162 118 70 75 74 72 
75 74 72 75 74 72 75 74 72 75 74 72 75 74 72 75 74 72 75 74 72 75 74 72 75 74 72 75 74 72 75 74 72 75 74 72 75 74 72 75 74 72 75 74 72 75 74 72 75 74 72 75 74 72 75 74 72 207 171 129 223 171 111 223 171 111 223 171 111 223 171 111 223 171 111 162 118 70 162 118 70 162 118 70 162 118 70 162 118 70 162 118 70 
25 23 20 25 23 20 25 23 20 25 23 20 25 23 20 25 23 20 25 23 20 25 23 20 25 23 20 25 23 20 25 23 20 25 23 20 25 23 20 25 23 20 25 23 20 162 118 70 162 118 70 162 118 70 223 171 111 223 171 111 223 171 111 223 171 111 162 118 70 162 118 70 162 118 70 223 171 111 223 171 111 223 171 111 223 171 111 162 118 70 162 118 70 162 118 70 75 74 71 
75 74 71 75 74 71 75 74 71 75 74 71 75 74 71 75 74 71 75 74 71 75 74 71 75 74 72 75 74 72 75 74 72 75 74 72 75 74 72 75 74 72 75 74 72 75 74 71 75 74 71 75 74 71 75 74 71 207 171 129 223 171 111 223 171 111 223 171 111 223 171 111 223 171 111 162 118 70 162 118 70 162 118 70 162 118 70 162 118 70 162 118 70 
25 23 20 25 23 20 25 23 20 25 23 20 25 23 20 25 23 20 25 23 20 25 23 20 25 23 20 25 23 20 25 23 20 25 23 20 25 23 20 25 23 20 25 23 20 162 118 70 162 118 70 162 118 70 223 171 111 223 171 111 223 171 111 223 171 111 162 118 70 162 118 70 162 118 70 223 171 111 223 171 111 223 171 111 223 171 111 162 118 70 162 118 70 162 118 70 75 74 71 
75 74 71 75 74 71 75 74 71 75 74 71 75 74 71 75 74 71 75 74 71 75 74 71 75 74 71 75 74 71 75 74 71 75 74 71 75 74 71 75 74 71 75 74 71 75 74 71 75 74 71 75 74 71 75 74 71 207 171 129 223 171 111 223 171 111 223 171 111 223 171 111 223 171 111 162 118 70 162 118 70 162 118 70 162 118 70 162 118 70 162 118 70 
25 23 20 25 23 20 25 23 20 25 23 20 25 23 20 25 23 20 25 23 20 25 23 20 25 23 20 25 23 20 25 23 20 25 23 20 25 23 20 25 23 20 25 23 20 162 118 70 162 118 70 162 118 70 223 171 111 223 171 111 223 171 111 223 171 111 162 118 70 162 118 70 162 118 70 223 171 111 223 171 111 223 171 111 223 171 111 162 118 70 162 118 70 162 118 70 75 74 71 
75 74 71 75 74 71 75 74 71 75 74 71 75 74 71 75 74 71 75 74 71 75 74 71 75 74 71 75 74 71 75 74 71 75 74 71 75 74 71 75 74 71 75 74 71 75 74 71 75 74 71 75 74 71 75 74 71 223 171 111 223 171 111 223 171 111 223 171 111 223 171 111 223 171 111 162 118 70 162 118 70 162 118 70 162 118 70 162 118 70 162 118 70 
25 23 20 25 23 20 25 23 20 25 23 20 25 23 20 25 23 20 25 23 20 25 23 20 25 23 20 25 23 20 25 23 20 25 23 20 25 23 20 25 23 20 25 23 20 25 23 20 162 118 70 162 118 70 162 118 70 223 171 111 223 171 111 223 171 111 162 118 70 162 118 70 162 118 70 223 171 111 223 171 111 223 171 111 223 171 111 162 118 70 162 118 70 162 118 70 75 74 71 
75 74 71 75 74 71 75 74 71 75 74 71 75 74 71 75 74 71 75 74 71 75 74 71 75 74 71 75 74 71 75 74 71 75 74 71 75 74 71 75 74 71 75 74 71 75 74 71 75 74 71 144 144 144 207 171 129 223 171 111 223 171 111 223 171 111 223 171 111 223 171 111 223 171 111 162 118 70 162 118 70 162 118 70 162 118 70 162 118 70 162 118 70 
25 23 20 25 23 20 25 23 20 25 23 20 25 23 20 25 23 20 25 23 20 25 23 20 25 23 20 25 23 20 25 23 20 25 23 20 25 23 20 25 23 20 25 23 20 25 23 20 162 118 70 162 118 70 162 118 70 223 171 111 223 171 111 223 171 111 162 118 70 162 118 70 162 118 70 223 171 111 223 171 111 223 171 111 223 171 111 162 118 70 162 118 70 162 118 70 75 73 71 
75 73 71 75 73 71 75 73 71 75 73 71 75 73 71 75 74 71 75 74 71 75 74 71 75 74 71 75 74 71 75 74 71 75 74 71 75 74 71 75 74 71 57 57 57 57 57 57 57 57 57 152 152 152 207 171 129 223 171 111 223 171 111 223 171 111 223 171 111 223 171 111 223 171 111 162 118 70 162 118 70 162 118 70 162 118 70 162 118 70 162 118 70 
25 23 20 25 23 20 25 23 20 25 23 20 25 23 20 25 23 20 25 23 20 25 23 20 25 23 20 25 23 20 25 23 20 25 23 20 25 23 20 25 23 20 25 23 20 25 23 20 162 118 70 162 118 70 162 118 70 223 171 111 223 171 111 223 171 111 162 118 70 162 118 70 162 118 70 223 171 111 223 171 111 223 171 111 223 171 111 162 118 70 162 118 70 162 118 70 75 73 71 
75 73 71 75 73 71 75 73 71 75 73 71 75 73 71 75 73 71 75 73 71 75 73 71 75 73 71 75 73 71 75 73 71 57 57 57 57 57 57 158 158 158 57 57 57 57 57 57 57 57 57 57 57 57 207 171 129 223 171 111 223 171 111 223 171 111 223 171 111 223 171 111 162 118 70 162 118 70 162 118 70 162 118 70 162 118 70 162 118 70 162 118 70 
25 23 20 25 23 20 25 23 20 25 23 20 25 23 20 25 23 20 25 23 20 25 23 20 25 23 20 25 23 20 25 23 20 25 23 20 25 23 20 25 23 20 25 23 20 25 23 20 162 118 70 162 118 70 162 118 70 223 171 111 223 171 111 223 171 111 162 118 70 162 118 70 162 118 70 223 171 111 223 171 111 223 171 111 223 171 111 162 118 70 162 118 70 162 118 70 75 73 71 
75 73 71 75 73 71 75 73 71 75 73 71 75 73 71 75 73 71 75 73 71 75 73 71 57 57 57 57 57 57 161 161 161 57 57 57 57 57 57 161 161 161 57 57 57 57 57 57 161 161 161 161 161 161 207 171 129 223 171 111 223 171 111 223 171 111 223 171 111 223 171 111 162 118 70 162 118 70 162 118 70 162 118 70 162 118 70 162 118 70 162 118 70 
25 23 20 25 23 20 25 23 20 25 23 20 25 23 20 25 23 20 25 23 20 25 23 20 25 23 20 25 23 20 25 23 20 25 23 20 25 23 20 25 23 20 25 23 20 25 23 20 162 118 70 162 118 70 162 118 70 223 171 111 223 171 111 223 171 111 162 118 70 162 118 70 162 118 70 223 171 111 223 171 111 223 171 111 223 171 111 162 118 70 162 118 70 162 118 70 75 73 71 
75 73 71 75 73 71 75 73 71 145 145 57 149 149 57 57 57 156 165 165 57 57 57 178 57 57 57 162 162 162 162 162 162 57 57 57 57 57 57 57 57 57 57 57 57 57 57 57 57 57 255 57 57 255 207 171 129 223 171 111 223 171 111 223 171 111 223 171 111 223 171 111 162 118 70 162 118 70 162 118 70 162 118 70 162 118 70 162 118 70 223 171 111 
25 23 20 25 23 20 25 23 20 25 23 20 25 23 20 25 23 20 25 23 20 25 23 20 25 23 20 25 23 20 25 23 20 25 23 20 25 23 20 25 23 20 25 23 20 25 23 20 162 118 70 162 118 70 162 118 70 223 171 111 223 171 111 223 171 111 162 118 70 162 118 70 162 118 70 223 171 111 223 171 111 223 171 111 223 171 111 162 118 70 162 118 70 162 118 70 75 73 71 
75 73 71 75 73 71 57 57 106 57 57 108 114 114 57 121 121 57 57 57 130 57 57 140 155 155 57 163 163 163 57 57 57 163 163 163 163 163 163 163 163 163 57 57 57 108 96 83 57 57 128 57 57 128 207 171 129 223 171 111 223 171 111 223 171 111 223 171 111 223 171 111 162 118 70 162 118 70 162 118 70 162 118 70 162 118 70 162 118 70 223 171 111 
25 23 20 25 23 20 25 23 20 25 23 20 25 23 20 25 23 20 25 23 20 25 23 20 25 23 20 25 23 20 25 23 20 25 23 20 25 23 20 25 23 20 25 23 20 25 23 20 162 118 70 162 118 70 162 118 70 223 171 111 223 171 111 223 171 111 162 118 70 162 118 70 162 118 70 223 171 111 223 171 111 223 171 111 223 171 111 162 118 70 162 118 70 162 118 70 57 57 57 
57 57 57 57 57 57 75 75 57 76 76 57 57 57 82 90 90 57 98 98 57 108 108 57 57 57 120 163 163 163 148 127 103 255 213 158 204 165 121 204 165 121 255 213 159 255 213 159 57 57 128 57 57 128 207 171 129 223 171 111 223 171 111 223 171 111 223 171 111 223 171 111 162 118 70 162 118 70 162 118 70 162 118 70 162 118 70 162 118 70 223 171 111 
25 23 20 25 23 20 25 23 20 25 23 20 25 23 20 25 23 20 25 23 20 25 23 20 25 23 20 25 23 20 25 23 20 25 23 20 25 23 20 25 23 20 25 23 20 25 23 20 162 118 70 162 118 70 162 118 70 223 171 111 223 171 111 223 171 111 162 118 70 162 118 70 162 118 70 223 171 111 223 171 111 223 171 111 223 171 111 162 118 70 162 118 70 162 118 70 159 159 159 
159 159 159 160 160 160 57 57 75 75 75 57 57 57 75 75 75 57 57 57 75 57 57 78 89 89 57 162 162 162 246 196 140 57 57 57 57 57 57 203 164 121 203 164 121 255 212 158 255 212 158 203 164 121 223 171 111 223 171 111 223 171 111 223 171 111 223 171 111 223 171 111 162 118 70 162 118 70 162 118 70 162 118 70 162 118 70 162 118 70 223 171 111 
25 23 20 25 23 20 25 23 20 25 23 20 25 23 20 25 23 20 25 23 20 25 23 20 25 23 20 25 23 20 25 23 20 25 23 20 25 23 20 25 23 20 25 23 20 25 23 20 162 118 70 162 118 70 162 118 70 223 171 111 223 171 111 223 171 111 162 118 70 162 118 70 162 118 70 162 118 70 223 171 111 223 171 111 223 171 111 162 118 70 162 118 70 162 118 70 57 57 57 
159 159 159 159 159 159 57 57 75 57 57 75 75 75 57 57 57 75 75 75 57 75 75 57 57 57 75 57 57 57 246 196 140 57 57 57 57 57 57 57 57 57 246 196 140 162 162 162 57 57 57 246 196 140 223 171 111 223 171 111 223 171 111 223 171 111 223 171 111 223 171 111 162 118 70 162 118 70 162 118 70 162 118 70 162 118 70 162 118 70 223 171 111 
25 23 20 25 23 20 25 23 20 25 23 20 25 23 20 25 23 20 25 23 20 25 23 20 25 23 20 25 23 20 25 23 20 25 23 20 25 23 20 25 23 20 25 23 20 25 23 20 162 118 70 162 118 70 162 118 70 184 184 0 0 0 173 223 171 111 162 118 70 162 118 70 162 118 70 162 118 70 223 171 111 223 171 111 223 171 111 162 118 70 162 118 70 162 118 70 57 57 57 
57 57 57 57 57 57 57 57 75 75 75 57 75 75 57 57 57 75 57 57 75 57 57 75 75 75 57 57 57 57 57 57 57 75 75 75 75 75 75 57 57 57 246 196 140 57 57 57 57 57 57 207 171 129 223 171 111 223 171 111 223 171 111 223 171 111 223 171 111 162 118 70 162 118 70 162 118 70 162 118 70 162 118 70 162 118 70 162 118 70 223 171 111 
25 23 20 25 23 20 25 23 20 25 23 20 25 23 20 25 23 20 25 23 20 25 23 20 25 23 20 25 23 20 25 23 20 25 23 20 25 23 20 25 23 20 25 23 20 25 23 20 180 180 0 0 0 200 203 203 0 200 200 0 0 0 193 0 0 180 159 159 0 162 118 70 162 118 70 162 118 70 223 171 111 223 171 111 223 171 111 162 118 70 162 118 70 162 118 70 57 57 57 
57 57 57 57 57 57 57 57 57 75 75 57 57 57 75 75 75 57 75 75 57 75 75 57 159 159 159 159 159 159 75 75 75 75 75 75 75 75 75 75 75 75 246 195 139 75 75 75 57 57 57 207 171 129 223 171 111 223 171 111 223 171 111 223 171 111 223 171 111 162 118 70 162 118 70 162 118 70 162 118 70 162 118 70 162 118 70 223 171 111 223 171 111 
25 23 20 25 23 20 25 23 20 25 23 20 25 23 20 25 23 20 25 23 20 25 23 20 25 23 20 25 23 20 25 23 20 25 23 20 25 23 20 25 23 20 25 23 20 171 171 0 0 0 193 0 0 199 199 199 0 195 195 0 0 0 188 0 0 177 161 161 0 138 138 0 162 118 70 162 118 70 223 171 111 223 171 111 223 171 111 162 118 70 162 118 70 162 118 70 162 118 70 
223 171 111 223 171 111 223 171 111 223 171 111 57 57 57 75 75 75 57 57 57 57 57 57 57 57 57 57 57 57 159 159 159 159 159 159 57 57 57 57 57 57 246 195 139 75 75 75 75 75 75 207 171 129 223 171 111 223 171 111 223 171 111 223 171 111 223 171 111 162 118 70 162 118 70 162 118 70 162 118 70 162 118 70 162 118 70 223 171 111 223 171 111 
25 23 20 25 23 20 25 23 20 25 23 20 25 23 20 25 23 20 25 23 20 25 23 20 25 23 20 25 23 20 25 23 20 25 23 20 25 23 20 135 135 135 135 135 135 174 174 0 0 0 185 0 0 188 189 189 0 197 197 13 0 0 176 0 0 166 152 152 0 132 132 0 0 0 103 162 118 70 223 171 111 223 171 111 223 171 111 162 118 70 162 118 70 162 118 70 162 118 70 
223 171 111 223 171 111 223 171 111 223 171 111 162 118 70 162 118 70 162 118 70 162 118 70 223 171 111 223 171 111 58 58 58 58 58 58 158 158 158 58 58 58 58 58 58 58 58 58 58 58 58 207 171 129 223 171 111 223 171 111 223 171 111 223 171 111 223 171 111 162 118 70 162 118 70 162 118 70 162 118 70 162 118 70 162 118 70 223 171 111 223 171 111 
25 23 20 25 23 20 25 23 20 25 23 20 25 23 20 25 23 20 25 23 20 25 23 20 25 23 20 25 23 20 0 0 0 0 0 0 0 0 0 0 0 0 0 0 140 162 162 0 0 0 171 0 0 173 172 172 0 168 168 0 0 0 161 0 0 151 138 138 0 120 120 0 0 0 95 0 0 42 0 0 0 135 135 135 223 171 111 162 118 70 162 118 70 162 118 70 162 118 70 
223 171 111 223 171 111 223 171 111 223 171 111 162 118 70 162 118 70 162 118 70 162 118 70 223 171 111 223 171 111 223 171 111 223 171 111 162 118 70 162 118 70 162 118 70 162 118 70 162 118 70 223 171 111 223 171 111 223 171 111 223 171 111 223 171 111 223 171 111 162 118 70 162 118 70 162 118 70 162 118 70 162 118 70 162 118 70 223 171 111 223 171 111 
25 23 20 25 23 20 25 23 20 25 23 20 25 23 20 25 23 20 25 23 20 138 138 138 138 138 138 138 138 138 138 138 138 138 138 138 138 138 138 0 0 0 0 0 127 145 145 0 0 0 153 155 155 0 154 154 0 150 150 0 0 0 142 0 0 133 120 120 0 103 103 0 0 0 79 0 0 39 0 0 0 0 0 0 136 136 136 136 136 136 136 136 136 136 136 136 136 136 136 
223 171 111 223 171 111 223 171 111 223 171 111 162 118 70 162 118 70 162 118 70 162 118 70 223 171 111 223 171 111 223 171 111 223 171 111 162 118 70 162 118 70 162 118 70 162 118 70 162 118 70 223 171 111 223 171 111 223 171 111 223 171 111 223 171 111 223 171 111 162 118 70 162 118 70 162 118 70 162 118 70 162 118 70 162 118 70 223 171 111 223 171 111 
25 23 20 25 23 20 25 23 20 25 23 20 0 0 0 0 0 0 0 0 0 0 0 0 0 0 0 0 0 0 139 139 139 139 139 139 0 0 0 0 0 0 0 0 106 124 124 0 0 0 132 134 134 0 133 133 0 128 128 0 0 0 121 0 0 112 99 99 0 82 82 0 0 0 58 0 0 25 0 0 0 0 0 0 0 0 0 138 138 138 137 137 137 0 0 0 0 0 0 
0 0 0 0 0 0 0 0 0 136 136 136 136 136 136 0 0 0 162 118 70 162 118 70 223 171 111 223 171 111 223 171 111 223 171 111 162 118 70 162 118 70 162 118 70 162 118 70 162 118 70 223 171 111 223 171 111 223 171 111 223 171 111 223 171 111 223 171 111 162 118 70 162 118 70 162 118 70 162 118 70 162 118 70 223 171 111 223 171 111 223 171 111 
25 23 20 140 140 140 140 140 140 140 140 140 140 140 140 140 140 140 0 0 0 140 140 140 140 140 140 140 140 140 140 140 140 140 140 140 0 0 0 0 0 0 78 78 0 99 99 0 0 0 107 110 110 0 109 109 0 105 105 0 0 0 98 0 0 88 75 75 0 57 57 0 0 0 33 0 0 25 0 0 0 0 0 0 0 0 0 139 139 139 139 139 139 138 138 138 138 138 138 
138 138 138 0 0 0 138 138 138 138 138 138 137 137 137 137 137 137 137 137 137 0 0 0 0 0 0 0 0 0 0 0 0 223 171 111 162 118 70 162 118 70 162 118 70 162 118 70 162 118 70 223 171 111 223 171 111 223 171 111 223 171 111 223 171 111 162 118 70 162 118 70 162 118 70 162 118 70 162 118 70 162 118 70 223 171 111 223 171 111 223 171 111 
0 0 0 141 141 141 141 141 141 141 141 141 0 0 0 0 0 0 0 0 0 0 0 0 0 0 0 0 0 0 0 0 0 0 0 0 0 0 0 0 0 0 34 34 0 68 68 0 0 0 79 82 82 0 82 82 0 78 78 0 0 0 71 0 0 61 47 47 0 29 29 0 0 0 25 140 140 140 140 140 140 0 0 0 0 0 0 0 0 0 140 140 140 139 139 139 139 139 139 
0 0 0 0 0 0 0 0 0 0 0 0 0 0 0 0 0 0 0 0 0 0 0 0 0 0 0 0 0 0 0 0 0 0 0 0 137 137 137 136 136 136 136 136 136 136 136 136 0 0 0 223 171 111 223 171 111 223 171 111 223 171 111 223 171 111 162 118 70 162 118 70 162 118 70 162 118 70 162 118 70 162 118 70 223 171 111 223 171 111 223 171 111 
0 0 0 142 142 142 142 142 142 142 142 142 0 0 0 0 0 0 0 0 0 142 142 142 142 142 142 142 142 142 142 142 142 142 142 142 142 142 142 0 0 0 142 142 142 28 28 0 0 0 45 51 51 0 51 51 0 47 47 0 0 0 41 0 0 30 25 25 0 0 0 25 0 0 25 0 0 0 0 0 0 0 0 0 0 0 0 0 0 0 0 0 0 140 140 140 140 140 140 
140 140 140 0 0 0 0 0 0 0 0 0 139 139 139 139 139 139 139 139 139 139 139 139 138 138 138 138 138 138 0 0 0 138 138 138 138 138 138 137 137 137 137 137 137 137 137 137 0 0 0 0 0 0 0 0 0 0 0 0 0 0 0 136 136 136 162 118 70 162 118 70 162 118 70 162 118 70 162 118 70 162 118 70 223 171 111 223 171 111 223 171 111 
143 143 143 143 143 143 143 143 143 143 143 143 143 143 143 0 0 0 0 0 0 143 143 143 143 143 143 143 143 143 143 143 143 0 0 0 0 0 0 0 0 0 0 0 0 0 0 0 0 0 25 0 0 255 0 0 255 0 0 255 0 0 255 0 0 255 0 0 255 0 0 255 0 0 255 0 0 255 255 220 143 255 220 143 0 0 0 0 0 0 141 141 141 141 141 141 141 141 141 
141 141 141 141 141 141 140 140 140 0 0 0 0 0 0 0 0 0 140 140 140 139 139 139 139 139 139 0 0 0 0 0 0 0 0 0 0 0 0 0 0 0 0 0 0 138 138 138 0 0 0 0 0 0 0 0 0 0 0 0 0 0 0 0 0 0 136 136 136 136 136 136 136 136 136 135 135 135 135 135 135 0 0 0 223 171 111 223 171 111 223 171 111 
144 144 144 144 144 144 0 0 0 0 0 0 0 0 0 0 0 0 0 0 0 0 0 0 255 222 144 210 154 91 210 154 91 255 222 144 210 154 91 210 154 91 255 222 144 209 153 91 209 153 91 0 0 102 0 0 255 0 0 255 0 0 255 0 0 146 0 0 146 0 0 146 0 0 146 0 0 146 255 221 143 255 221 143 208 153 91 0 0 0 0 0 0 0 0 0 0 0 0 
141 141 141 141 141 141 0 0 0 0 0 0 0 0 0 0 0 0 0 0 0 0 0 0 140 140 140 140 140 140 0 0 0 0 0 0 0 0 0 0 0 0 0 0 0 139 139 139 138 138 138 138 138 138 138 138 138 138 138 138 138 138 138 137 137 137 137 137 137 137 137 137 137 137 137 136 136 136 136 136 136 136 136 136 0 0 0 0 0 0 0 0 0 
145 145 145 145 145 145 145 145 145 0 0 0 0 0 0 0 0 0 210 154 92 255 223 145 255 223 145 210 154 92 255 223 145 255 223 145 210 154 92 32 31 30 255 222 144 210 154 91 210 154 91 0 0 102 0 0 146 0 0 146 0 0 146 0 0 146 0 0 146 0 0 146 0 0 146 0 0 146 255 221 144 255 221 144 209 153 91 0 0 0 0 0 0 0 0 0 0 0 0 
142 142 142 142 142 142 142 142 142 142 142 142 0 0 0 0 0 0 0 0 0 141 141 141 141 141 141 141 141 141 140 140 140 140 140 140 140 140 140 140 140 140 0 0 0 139 139 139 139 139 139 139 139 139 139 139 139 139 139 139 0 0 0 0 0 0 0 0 0 0 0 0 0 0 0 0 0 0 137 137 137 0 0 0 0 0 0 0 0 0 0 0 0 
145 145 145 145 145 145 145 145 145 145 145 145 0 0 0 0 0 0 255 223 145 255 223 145 211 154 92 211 154 92 255 223 145 32 31 31 32 31 30 32 31 30 32 31 30 10 10 54 255 223 145 255 222 145 0 0 146 0 0 146 0 0 146 0 0 146 0 0 146 0 0 146 0 0 146 0 0 146 130 100 65 255 221 144 209 153 91 209 153 91 0 0 0 0 0 0 143 143 143 
143 143 143 143 143 143 142 142 142 142 142 142 142 142 142 142 142 142 0 0 0 0 0 0 141 141 141 141 141 141 141 141 141 141 141 141 141 141 141 0 0 0 0 0 0 0 0 0 0 0 0 0 0 0 0 0 0 0 0 0 0 0 0 0 0 0 0 0 0 0 0 0 0 0 0 0 0 0 0 0 0 137 137 137 137 137 137 137 137 137 137 137 137 
146 146 146 0 0 0 0 0 0 0 0 0 0 0 0 211 155 92 255 224 145 255 224 145 211 155 92 255 223 145 255 223 145 77 60 42 77 60 42 73 56 37 10 10 54 10 10 54 255 223 145 255 223 145 0 0 146 0 0 146 0 0 146 0 0 146 0 0 146 0 0 146 0 0 146 0 0 145 94 69 41 255 222 144 209 153 91 209 153 91 0 0 0 0 0 0 0 0 0 
143 143 143 143 143 143 143 143 143 143 143 143 143 143 143 0 0 0 0 0 0 0 0 0 0 0 0 0 0 0 0 0 0 0 0 0 0 0 0 0 0 0 0 0 0 0 0 0 0 0 0 0 0 0 0 0 0 140 140 140 140 140 140 139 139 139 139 139 139 139 139 139 0 0 0 0 0 0 138 138 138 138 138 138 138 138 138 138 138 138 137 137 137 
0 0 0 0 0 0 0 0 0 0 0 0 0 0 0 255 224 145 255 224 145 211 155 92 211 155 92 255 224 145 255 224 145 101 81 58 101 81 58 97 77 53 97 77 53 97 77 53 255 223 145 255 223 145 0 0 146 0 0 146 0 0 146 0 0 146 0 0 145 255 223 145 255 222 144 210 154 91 210 154 91 255 222 144 255 222 144 209 153 91 255 222 144 0 0 0 0 0 0 
0 0 0 0 0 0 0 0 0 143 143 143 0 0 0 0 0 0 0 0 0 0 0 0 0 0 0 0 0 0 0 0 0 142 142 142 142 142 142 142 142 142 141 141 141 141 141 141 0 0 0 0 0 0 141 141 141 140 140 140 140 140 140 140 140 140 140 140 140 140 140 140 139 139 139 139 139 139 0 0 0 0 0 0 0 0 0 138 138 138 138 138 138 
147 147 147 147 147 147 0 0 0 0 0 0 147 147 147 255 224 146 255 224 146 212 155 92 211 155 92 255 224 145 211 155 92 211 155 92 101 81 57 73 56 38 211 155 92 211 155 92 255 223 145 255 223 145 211 154 92 211 154 92 255 223 145 211 154 92 210 154 92 255 223 145 255 223 145 210 154 92 210 154 92 255 222 144 255 222 144 210 154 91 210 154 91 0 0 0 0 0 0 
0 0 0 0 0 0 144 144 144 144 144 144 144 144 144 143 143 143 143 143 143 143 143 143 0 0 0 0 0 0 143 143 143 142 142 142 142 142 142 142 142 142 142 142 142 142 142 142 141 141 141 141 141 141 0 0 0 0 0 0 0 0 0 141 141 141 140 140 140 140 140 140 140 140 140 0 0 0 0 0 0 0 0 0 0 0 0 0 0 0 0 0 0 
147 147 147 147 147 147 0 0 0 0 0 0 255 224 146 255 224 146 212 155 92 212 155 92 255 224 146 255 224 146 212 155 92 211 155 92 255 224 145 255 224 145 211 155 92 211 155 92 255 224 145 255 224 145 211 155 92 211 155 92 255 223 145 211 154 92 211 154 92 255 223 145 255 223 145 210 154 92 210 154 92 255 223 145 255 223 145 210 154 91 210 154 91 255 222 144 0 0 0 
0 0 0 144 144 144 144 144 144 144 144 144 144 144 144 144 144 144 144 144 144 143 143 143 143 143 143 0 0 0 0 0 0 0 0 0 143 143 143 142 142 142 142 142 142 142 142 142 142 142 142 0 0 0 0 0 0 0 0 0 0 0 0 0 0 0 0 0 0 0 0 0 0 0 0 0 0 0 0 0 0 0 0 0 0 0 0 0 0 0 0 0 0 
0 0 0 0 0 0 0 0 0 0 0 0 255 225 146 255 225 146 212 155 92 212 155 92 255 224 146 255 224 146 212 155 92 212 155 92 255 224 146 255 224 146 211 155 92 211 155 92 255 224 145 211 155 92 211 155 92 255 224 145 255 224 145 211 155 92 211 154 92 255 223 145 255 223 145 211 154 92 210 154 92 255 223 145 255 223 145 210 154 92 210 154 92 255 222 144 145 145 145 
0 0 0 0 0 0 145 145 145 144 144 144 144 144 144 144 144 144 144 144 144 144 144 144 0 0 0 0 0 0 0 0 0 0 0 0 0 0 0 0 0 0 0 0 0 143 143 143 0 0 0 0 0 0 0 0 0 0 0 0 0 0 0 0 0 0 0 0 0 0 0 0 141 141 141 141 141 141 140 140 140 140 140 140 140 140 140 0 0 0 0 0 0 
0 0 0 0 0 0 0 0 0 0 0 0 255 225 146 212 155 92 212 155 92 255 225 146 255 225 146 212 155 92 212 155 92 255 224 146 255 224 146 212 155 92 212 155 92 255 224 146 255 224 146 211 155 92 211 155 92 255 224 145 255 224 145 211 155 92 211 155 92 255 223 145 255 223 145 211 154 92 211 154 92 255 223 145 255 223 145 210 154 92 210 154 92 255 223 145 255 223 145 
0 0 0 0 0 0 0 0 0 0 0 0 0 0 0 145 145 145 144 144 144 0 0 0 0 0 0 0 0 0 0 0 0 0 0 0 0 0 0 0 0 0 0 0 0 143 143 143 143 143 143 143 143 143 142 142 142 0 0 0 0 0 0 0 0 0 0 0 0 0 0 0 141 141 141 141 141 141 141 141 141 141 141 141 141 141 141 140 140 140 140 140 140 
0 0 0 0 0 0 0 0 0 255 225 146 255 225 146 212 156 93 212 156 93 255 225 146 255 225 146 212 155 92 212 155 92 255 225 146 255 225 146 212 155 92 212 155 92 255 224 146 255 224 146 212 155 92 212 155 92 255 224 146 255 224 145 211 155 92 211 155 92 255 224 145 255 224 145 211 155 92 211 154 92 211 154 92 255 223 145 255 223 145 111 81 48 111 81 48 153 118 76 
0 0 0 0 0 0 0 0 0 0 0 0 0 0 0 0 0 0 145 145 145 145 145 145 144 144 144 0 0 0 0 0 0 0 0 0 0 0 0 0 0 0 0 0 0 143 143 143 143 143 143 143 143 143 143 143 143 143 143 143 142 142 142 142 142 142 142 142 142 142 142 142 142 142 142 142 142 142 141 141 141 141 141 141 141 141 141 141 141 141 141 141 141 
148 148 148 0 0 0 0 0 0 255 225 146 213 156 93 213 156 93 255 225 146 255 225 146 255 225 146 212 156 92 212 155 92 255 225 146 255 225 146 212 155 92 212 155 92 255 224 146 255 224 146 212 155 92 212 155 92 255 224 146 255 224 146 211 155 92 111 81 48 153 118 76 153 118 76 153 118 76 111 81 48 111 81 48 153 118 76 25 25 25 0 0 0 255 198 118 0 0 0 
0 0 0 0 0 0 0 0 0 0 0 0 0 0 0 145 145 145 145 145 145 145 145 145 145 145 145 145 145 145 144 144 144 144 144 144 0 0 0 0 0 0 144 144 144 144 144 144 143 143 143 143 143 143 143 143 143 143 143 143 143 143 143 143 143 143 142 142 142 0 0 0 0 0 0 0 0 0 0 0 0 142 142 142 141 141 141 141 141 141 141 141 141 
149 149 149 0 0 0 0 0 0 255 225 146 213 156 93 213 156 93 255 225 146 255 225 146 212 156 93 212 156 93 255 225 146 255 225 146 255 225 146 212 155 92 212 155 92 153 118 76 153 118 76 111 81 48 111 81 48 153 118 76 153 118 76 0 0 0 0 0 0 0 0 0 0 0 0 0 0 0 0 0 0 0 0 0 25 25 25 25 25 25 25 25 25 255 198 118 25 25 25 
0 0 0 0 0 0 0 0 0 0 0 0 146 146 146 145 145 145 145 145 145 145 145 145 145 145 145 145 145 145 145 145 145 145 145 145 144 144 144 0 0 0 0 0 0 144 144 144 144 144 144 144 144 144 143 143 143 143 143 143 143 143 143 143 143 143 143 143 143 0 0 0 0 0 0 0 0 0 0 0 0 0 0 0 0 0 0 0 0 0 0 0 0 
0 0 0 0 0 0 255 226 147 213 156 93 213 156 93 213 156 93 255 225 146 154 118 77 111 81 48 111 81 48 153 118 76 153 118 76 153 118 76 111 81 48 0 0 0 0 0 0 0 0 0 0 0 0 25 25 25 25 25 25 25 25 25 0 0 0 0 0 0 0 0 0 0 0 0 0 0 0 0 0 0 25 25 25 25 25 25 25 25 25 25 25 25 255 198 118 25 25 25 
146 146 146 146 146 146 146 146 146 146 146 146 146 146 146 146 146 146 146 146 146 145 145 145 145 145 145 145 145 145 145 145 145 145 145 145 145 145 145 0 0 0 0 0 0 0 0 0 0 0 0 0 0 0 0 0 0 144 144 144 143 143 143 143 143 143 0 0 0 0 0 0 0 0 0 0 0 0 0 0 0 0 0 0 0 0 0 0 0 0 0 0 0 
0 0 0 0 0 0 154 118 77 111 82 48 111 81 48 111 81 48 0 0 0 0 0 0 0 0 0 0 0 0 0 0 0 0 0 0 0 0 0 0 0 0 0 0 0 0 0 0 25 25 25 25 25 25 25 25 25 25 25 25 25 25 25 25 25 25 25 25 25 0 0 0 0 0 0 0 0 0 25 25 25 25 25 25 25 25 25 25 25 25 25 25 25 255 198 118 25 25 25 
25 25 25 146 146 146 0 0 0 0 0 0 0 0 0 0 0 0 146 146 146 146 146 146 146 146 146 145 145 145 145 145 145 145 145 145 0 0 0 0 0 0 0 0 0 0 0 0 0 0 0 0 0 0 0 0 0 0 0 0 0 0 0 0 0 0 0 0 0 0 0 0 0 0 0 0 0 0 0 0 0 0 0 0 0 0 0 0 0 0 0 0 0 
0 0 0 0 0 0 0 0 0 255 198 118 255 198 118 149 149 149 149 149 149 25 25 25 25 25 25 0 0 0 0 0 0 0 0 0 0 0 0 0 0 0 0 0 0 25 25 25 25 25 25 25 25 25 25 25 25 25 25 25 25 25 25 25 25 25 25 25 25 25 25 25 25 25 25 0 0 0 25 25 25 25 25 25 25 25 25 25 25 25 25 25 25 255 198 118 25 25 25 
25 25 25 0 0 0 0 0 0 0 0 0 0 0 0 0 0 0 0 0 0 0 0 0 0 0 0 146 146 146 145 145 145 0 0 0 0 0 0 0 0 0 0 0 0 0 0 0 0 0 0 0 0 0 0 0 0 0 0 0 0 0 0 144 144 144 144 144 144 144 144 144 143 143 143 143 143 143 0 0 0 0 0 0 0 0 0 0 0 0 0 0 0 
0 0 0 0 0 0 0 0 0 149 149 149 255 198 118 149 149 149 149 149 149 25 25 25 25 25 25 25 25 25 25 25 25 25 25 25 0 0 0 25 25 25 25 25 25 25 25 25 25 25 25 25 25 25 25 25 25 25 25 25 25 25 25 25 25 25 25 25 25 0 0 0 0 0 0 0 0 0 0 0 0 0 0 0 25 25 25 25 25 25 25 25 25 255 198 118 25 25 25 
0 0 0 0 0 0 0 0 0 0 0 0 0 0 0 0 0 0 0 0 0 0 0 0 0 0 0 0 0 0 0 0 0 146 146 146 0 0 0 0 0 0 0 0 0 0 0 0 0 0 0 0 0 0 0 0 0 0 0 0 0 0 0 144 144 144 144 144 144 144 144 144 144 144 144 144 144 144 143 143 143 143 143 143 143 143 143 0 0 0 0 0 0 
0 0 0 0 0 0 150 150 150 150 150 150 255 198 118 149 149 149 149 149 149 25 25 25 25 25 25 25 25 25 25 25 25 25 25 25 0 0 0 0 0 0 25 25 25 25 25 25 25 25 25 25 25 25 25 25 25 25 25 25 25 25 25 25 25 25 0 0 0 0 0 0 0 0 0 0 0 0 0 0 0 0 0 0 0 0 0 0 0 0 0 0 0 255 219 130 25 25 25 
0 0 0 0 0 0 0 0 0 0 0 0 0 0 0 0 0 0 0 0 0 0 0 0 0 0 0 0 0 0 146 146 146 146 146 146 146 146 146 146 146 146 145 145 145 0 0 0 0 0 0 0 0 0 0 0 0 0 0 0 145 145 145 144 144 144 144 144 144 144 144 144 144 144 144 144 144 144 144 144 144 143 143 143 143 143 143 143 143 143 143 143 143 
150 150 150 150 150 150 150 150 150 150 150 150 255 198 118 255 198 118 25 25 25 25 25 25 25 25 25 25 25 25 0 0 0 0 0 0 0 0 0 0 0 0 0 0 0 0 0 0 25 25 25 25 25 25 25 25 25 25 25 25 25 25 25 0 0 0 0 0 0 0 0 0 0 0 0 0 0 0 0 0 0 0 0 0 0 0 0 0 0 0 0 0 0 0 0 0 147 147 147 
147 147 147 0 0 0 0 0 0 0 0 0 0 0 0 0 0 0 0 0 0 0 0 0 0 0 0 146 146 146 146 146 146 146 146 146 146 146 146 146 146 146 146 146 146 145 145 145 145 145 145 145 145 145 0 0 0 0 0 0 145 145 145 145 145 145 144 144 144 144 144 144 144 144 144 144 144 144 144 144 144 144 144 144 144 144 144 143 143 143 0 0 0 
150 150 150 150 150 150 150 150 150 150 150 150 255 210 125 255 198 118 25 25 25 25 25 25 25 25 25 0 0 0 0 0 0 0 0 0 0 0 0 0 0 0 0 0 0 0 0 0 0 0 0 0 0 0 25 25 25 25 25 25 0 0 0 0 0 0 0 0 0 0 0 0 0 0 0 0 0 0 0 0 0 0 0 0 0 0 0 0 0 0 0 0 0 148 148 148 148 148 148 
148 148 148 147 147 147 147 147 147 0 0 0 0 0 0 0 0 0 0 0 0 0 0 0 147 147 147 146 146 146 146 146 146 146 146 146 146 146 146 146 146 146 146 146 146 146 146 146 145 145 145 145 145 145 145 145 145 0 0 0 0 0 0 145 145 145 145 145 145 145 145 145 144 144 144 144 144 144 144 144 144 144 144 144 144 144 144 144 144 144 0 0 0 
0 0 0 0 0 0 150 150 150 150 150 150 150 150 150 255 210 125 25 25 25 25 25 25 0 0 0 0 0 0 0 0 0 0 0 0 0 0 0 0 0 0 0 0 0 0 0 0 0 0 0 0 0 0 0 0 0 149 149 149 149 149 149 0 0 0 0 0 0 0 0 0 0 0 0 0 0 0 0 0 0 0 0 0 0 0 0 0 0 0 148 148 148 148 148 148 148 148 148 
148 148 148 148 148 148 147 147 147 147 147 147 147 147 147 147 147 147 0 0 0 0 0 0 147 147 147 147 147 147 146 146 146 146 146 146 146 146 146 146 146 146 146 146 146 146 146 146 146 146 146 146 146 146 145 145 145 0 0 0 0 0 0 0 0 0 0 0 0 0 0 0 145 145 145 144 144 144 144 144 144 144 144 144 144 144 144 144 144 144 0 0 0 
0 0 0 0 0 0 0 0 0 0 0 0 150 150 150 255 210 125 0 0 0 0 0 0 0 0 0 0 0 0 0 0 0 0 0 0 0 0 0 0 0 0 0 0 0 0 0 0 0 0 0 0 0 0 149 149 149 149 149 149 149 149 149 149 149 149 149 149 149 0 0 0 0 0 0 0 0 0 0 0 0 0 0 0 0 0 0 148 148 148 148 148 148 148 148 148 148 148 148 
148 148 148 148 148 148 148 148 148 148 148 148 147 147 147 147 147 147 147 147 147 0 0 0 0 0 0 147 147 147 147 147 147 147 147 147 146 146 146 146 146 146 146 146 146 146 146 146 146 146 146 146 146 146 0 0 0 0 0 0 0 0 0 0 0 0 0 0 0 0 0 0 0 0 0 0 0 0 0 0 0 144 144 144 144 144 144 144 144 144 0 0 0 
0 0 0 0 0 0 0 0 0 0 0 0 0 0 0 150 150 150 0 0 0 0 0 0 0 0 0 0 0 0 0 0 0 0 0 0 0 0 0 0 0 0 0 0 0 0 0 0 150 150 150 150 150 150 150 150 150 150 150 150 149 149 149 149 149 149 149 149 149 149 149 149 149 149 149 0 0 0 0 0 0 0 0 0 149 149 149 149 149 149 148 148 148 148 148 148 148 148 148 
148 148 148 148 148 148 148 148 148 148 148 148 148 148 148 147 147 147 0 0 0 0 0 0 0 0 0 0 0 0 0 0 0 147 147 147 147 147 147 146 146 146 146 146 146 146 146 146 146 146 146 146 146 146 0 0 0 0 0 0 0 0 0 0 0 0 0 0 0 0 0 0 0 0 0 0 0 0 0 0 0 0 0 0 0 0 0 144 144 144 0 0 0 
0 0 0 0 0 0 0 0 0 151 151 151 151 151 151 151 151 151 151 151 151 151 151 151 0 0 0 0 0 0 0 0 0 0 0 0 0 0 0 0 0 0 0 0 0 150 150 150 150 150 150 150 150 150 150 150 150 150 150 150 150 150 150 150 150 150 150 150 150 149 149 149 149 149 149 149 149 149 149 149 149 149 149 149 149 149 149 149 149 149 149 149 149 149 149 149 148 148 148 
148 148 148 148 148 148 148 148 148 148 148 148 148 148 148 148 148 148 0 0 0 0 0 0 0 0 0 0 0 0 0 0 0 0 0 0 0 0 0 0 0 0 146 146 146 146 146 146 146 146 146 0 0 0 0 0 0 0 0 0 0 0 0 0 0 0 0 0 0 0 0 0 0 0 0 0 0 0 0 0 0 0 0 0 0 0 0 144 144 144 144 144 144 
0 0 0 0 0 0 151 151 151 151 151 151 151 151 151 151 151 151 151 151 151 151 151 151 151 151 151 0 0 0 0 0 0 0 0 0 0 0 0 0 0 0 151 151 151 150 150 150 150 150 150 150 150 150 150 150 150 150 150 150 150 150 150 150 150 150 150 150 150 150 150 150 150 150 150 150 150 150 0 0 0 0 0 0 0 0 0 149 149 149 149 149 149 149 149 149 149 149 149 
149 149 149 148 148 148 148 148 148 148 148 148 148 148 148 0 0 0 0 0 0 0 0 0 0 0 0 0 0 0 0 0 0 0 0 0 0 0 0 0 0 0 0 0 0 0 0 0 146 146 146 0 0 0 0 0 0 0 0 0 0 0 0 0 0 0 0 0 0 0 0 0 0 0 0 0 0 0 0 0 0 0 0 0 0 0 0 145 145 145 144 144 144 
0 0 0 151 151 151 151 151 151 151 151 151 151 151 151 151 151 151 151 151 151 151 151 151 151 151 151 151 151 151 151 151 151 1 1 1 1 1 1 151 151 151 151 151 151 151 151 151 151 151 151 151 151 151 151 151 151 151 151 151 150 150 150 150 150 150 150 150 150 150 150 150 150 150 150 1 1 1 1 1 1 0 0 0 0 0 0 0 0 0 0 0 0 0 0 0 149 149 149 
149 149 149 149 149 149 149 149 149 148 148 148 0 0 0 0 0 0 0 0 0 0 0 0 0 0 0 0 0 0 0 0 0 0 0 0 0 0 0 0 0 0 0 0 0 0 0 0 0 0 0 146 146 146 146 146 146 0 0 0 0 0 0 0 0 0 0 0 0 0 0 0 0 0 0 0 0 0 0 0 0 0 0 0 0 0 0 145 145 145 145 145 145 
151 151 151 151 151 151 151 151 151 151 151 151 151 151 151 151 151 151 151 151 151 151 151 151 151 151 151 151 151 151 151 151 151 151 151 151 1 1 1 151 151 151 151 151 151 151 151 151 151 151 151 151 151 151 151 151 151 151 151 151 151 151 151 151 151 151 151 151 151 151 151 151 1 1 1 1 1 1 1 1 1 1 1 1 1 1 1 1 1 1 1 1 1 1 1 1 0 0 0 
0 0 0 149 149 149 149 149 149 149 149 149 0 0 0 0 0 0 0 0 0 0 0 0 0 0 0 0 0 0 0 0 0 0 0 0 0 0 0 0 0 0 0 0 0 0 0 0 147 147 147 147 147 147 146 146 146 146 146 146 146 146 146 146 146 146 0 0 0 0 0 0 0 0 0 0 0 0 0 0 0 0 0 0 0 0 0 145 145 145 145 145 145 
152 152 152 152 152 152 152 152 152 152 152 152 152 152 152 152 152 152 152 152 152 152 152 152 152 152 152 152 152 152 1 1 1 1 1 1 1 1 1 1 1 1 1 1 1 152 152 152 152 152 152 152 152 152 151 151 151 151 151 151 151 151 151 151 151 151 151 151 151 1 1 1 1 1 1 1 1 1 1 1 1 1 1 1 1 1 1 1 1 1 1 1 1 1 1 1 1 1 1 
1 1 1 1 1 1 1 1 1 0 0 0 0 0 0 0 0 0 0 0 0 0 0 0 0 0 0 0 0 0 0 0 0 0 0 0 0 0 0 0 0 0 0 0 0 0 0 0 147 147 147 147 147 147 147 147 147 146 146 146 146 146 146 146 146 146 146 146 146 146 146 146 0 0 0 0 0 0 0 0 0 0 0 0 145 145 145 145 145 145 145 145 145 
152 152 152 152 152 152 152 152 152 152 152 152 152 152 152 152 152 152 152 152 152 152 152 152 152 152 152 2 2 2 2 2 2 2 2 2 2 2 2 2 2 2 2 2 2 2 2 2 2 2 2 152 152 152 152 152 152 152 152 152 152 152 152 152 152 152 2 2 2 2 2 2 2 2 2 2 2 2 2 2 2 1 1 1 1 1 1 1 1 1 1 1 1 1 1 1 1 1 1 
1 1 1 1 1 1 149 149 149 149 149 149 149 149 149 1 1 1 0 0 0 0 0 0 0 0 0 0 0 0 0 0 0 0 0 0 0 0 0 0 0 0 0 0 0 147 147 147 147 147 147 147 147 147 147 147 147 147 147 147 146 146 146 146 146 146 146 146 146 146 146 146 146 146 146 146 146 146 146 146 146 0 0 0 145 145 145 145 145 145 145 145 145 
153 153 153 153 153 153 153 153 153 153 153 153 153 153 153 153 153 153 153 153 153 153 153 153 2 2 2 2 2 2 2 2 2 2 2 2 2 2 2 2 2 2 2 2 2 2 2 2 2 2 2 2 2 2 2 2 2 152 152 152 152 152 152 2 2 2 2 2 2 2 2 2 2 2 2 2 2 2 2 2 2 2 2 2 2 2 2 2 2 2 2 2 2 2 2 2 1 1 1 
1 1 1 150 150 150 150 150 150 150 150 150 149 149 149 149 149 149 149 149 149 149 149 149 0 0 0 0 0 0 0 0 0 0 0 0 0 0 0 0 0 0 0 0 0 147 147 147 147 147 147 147 147 147 147 147 147 147 147 147 147 147 147 147 147 147 146 146 146 146 146 146 146 146 146 146 146 146 146 146 146 146 146 146 0 0 0 145 145 145 145 145 145 
153 153 153 153 153 153 153 153 153 153 153 153 153 153 153 153 153 153 153 153 153 3 3 3 3 3 3 3 3 3 3 3 3 3 3 3 3 3 3 3 3 3 3 3 3 3 3 3 3 3 3 3 3 3 3 3 3 3 3 3 3 3 3 3 3 3 3 3 3 3 3 3 3 3 3 3 3 3 3 3 3 2 2 2 2 2 2 2 2 2 2 2 2 2 2 2 2 2 2 
2 2 2 151 151 151 150 150 150 150 150 150 150 150 150 150 150 150 149 149 149 149 149 149 149 149 149 149 149 149 1 1 1 0 0 0 0 0 0 0 0 0 148 148 148 148 148 148 147 147 147 147 147 147 147 147 147 147 147 147 147 147 147 147 147 147 147 147 147 146 146 146 146 146 146 146 146 146 146 146 146 146 146 146 0 0 0 0 0 0 0 0 0 
154 154 154 154 154 154 154 154 154 154 154 154 154 154 154 154 154 154 3 3 3 3 3 3 3 3 3 3 3 3 4 4 4 4 4 4 4 4 4 4 4 4 4 4 4 4 4 4 4 4 4 4 4 4 4 4 4 154 154 154 154 154 154 154 154 154 4 4 4 4 4 4 3 3 3 3 3 3 3 3 3 3 3 3 3 3 3 3 3 3 3 3 3 3 3 3 2 2 2 
151 151 151 151 151 151 151 151 151 151 151 151 150 150 150 150 150 150 150 150 150 150 150 150 149 149 149 149 149 149 149 149 149 149 149 149 1 1 1 0 0 0 148 148 148 148 148 148 148 148 148 148 148 148 147 147 147 147 147 147 147 147 147 147 147 147 147 147 147 147 147 147 146 146 146 146 146 146 146 146 146 0 0 0 0 0 0 0 0 0 0 0 0 
3 3 3 154 154 154 154 154 154 155 155 155 155 155 155 4 4 4 4 4 4 4 4 4 4 4 4 4 4 4 4 4 4 4 4 4 4 4 4 5 5 5 5 5 5 5 5 5 5 5 5 5 5 5 155 155 155 155 155 155 155 155 155 155 155 155 154 154 154 154 154 154 4 4 4 4 4 4 4 4 4 4 4 4 4 4 4 4 4 4 3 3 3 3 3 3 152 152 152 
152 152 152 152 152 152 151 151 151 151 151 151 151 151 151 151 151 151 150 150 150 150 150 150 150 150 150 150 150 150 149 149 149 149 149 149 149 149 149 1 1 1 148 148 148 148 148 148 148 148 148 148 148 148 148 148 148 147 147 147 147 147 147 147 147 147 147 147 147 147 147 147 147 147 147 146 146 146 146 146 146 0 0 0 0 0 0 0 0 0 0 0 0 
